<?xml version="1.0" standalone="no"?>
<!DOCTYPE svg PUBLIC "-//W3C//DTD SVG 1.1//EN" "http://www.w3.org/Graphics/SVG/1.1/DTD/svg11.dtd" >
<svg>
<metadata>
Created by FontForge 20090622 at Tue Feb 26 06:28:02 2019
 By deploy user
Copyright (c) 2012 by Adri&#195;&#160; G&#195;&#179;mez. All rights reserved.
</metadata>
<defs>
<font id="Luthier-Bold" horiz-adv-x="576" >
  <font-face 
    font-family="Luthier Bd"
    font-weight="400"
    font-stretch="normal"
    units-per-em="1000"
    panose-1="0 0 0 0 0 0 0 0 0 0"
    ascent="800"
    descent="-200"
    x-height="458"
    cap-height="639"
    bbox="6 -268 1252 1013"
    underline-thickness="50"
    underline-position="-50"
    unicode-range="U+000D-U+FB04"
  />
<missing-glyph horiz-adv-x="347" 
 />
    <glyph glyph-name="onehalf" unicode="&#x31;&#x2f;&#x32;" horiz-adv-x="661" 
d="M259 346l20 -12q4 -2 7.5 -4.5l6.5 -4.5q4 -3 6 -4v-17h-195v16l40 26v253h-41v17l105 47h51v-317zM440 0v19l44 37q25 21 44.5 39.5t32.5 38t19.5 43t6.5 53.5q0 57 -29 61q-5 1 -16.5 0.5t-17.5 -1.5l-25 -58h-59l10 72q37 11 63 14.5t52 3.5q73 0 107.5 -23.5
t34.5 -68.5q0 -24 -19 -51.5t-47 -54t-59 -50t-56 -39.5h122l22 42h56l-14 -77h-272zM193 -15l298 663h73l-298 -663h-73z" />
    <glyph glyph-name="onequarter" unicode="&#x31;&#x2f;&#x34;" horiz-adv-x="614" 
d="M259 346l20 -12q4 -2 7.5 -4.5l6.5 -4.5q4 -3 6 -4v-17h-195v16l40 26v253h-41v17l105 47h51v-317zM193 -15l298 663h73l-298 -663h-73zM490 209l-67 -87h67v87zM526 321h83v-199h61l-36 -34h-25v-47l35 -22v-19h-189v17l35 24v47h-124v19z" />
    <glyph glyph-name="threequarters" unicode="&#x33;&#x2f;&#x34;" horiz-adv-x="688" 
d="M239 -15l298 663h73l-298 -663h-73zM536 209l-67 -87h67v87zM572 321h83v-199h61l-36 -34h-25v-47l35 -22v-19h-189v17l35 24v47h-124v19zM368 402q0 -48 -37.5 -73t-108.5 -25q-26 0 -59.5 4.5t-62.5 11.5l-13 68h69l36 -51q33 -5 45 13.5t12 53.5q0 30 -7 41t-18 13
h-75l26 38h48q13 6 13 51q0 38 -9 50.5t-34 7.5l-25 -58h-70l7 75q38 7 64 11t49 4q68 0 104 -22t36 -65q0 -9 -3.5 -19.5t-10.5 -20t-16 -17.5t-21 -12q29 -14 45 -33.5t16 -45.5z" />
    <glyph glyph-name="percent" unicode="&#x30;&#x2f;&#x30;" horiz-adv-x="774" 
d="M484 165q0 90 38.5 130t107.5 40q63 0 102.5 -40t39.5 -130t-39.5 -132t-102.5 -42q-67 0 -106.5 41.5t-39.5 132.5zM667 166q0 74 -13 110.5t-28 36.5q-14 0 -25.5 -32t-11.5 -115q0 -42 4 -70.5t10.5 -45.5t14 -24.5t15.5 -7.5q13 0 23.5 36.5t10.5 111.5zM119 454
q0 90 38.5 130t107.5 40q63 0 102.5 -40t39.5 -130t-39.5 -132t-102.5 -42q-67 0 -106.5 41.5t-39.5 132.5zM302 455q0 74 -13 110.5t-28 36.5q-14 0 -25.5 -32t-11.5 -115q0 -42 4 -70.5t10.5 -45.5t14 -24.5t15.5 -7.5q13 0 23.5 36.5t10.5 111.5zM634 642h64l-441 -665
h-67z" />
    <glyph glyph-name="AE" unicode="AE" horiz-adv-x="971" 
d="M447 585l-27 -51l-33.5 -65l-34 -65l-26.5 -51h121v232zM387 -1v17l60 36v260h-140l-132 -261l71 -35v-17h-206v16l79 36l303 588h497l21 -128h-71l-62 89h-165t-58 -1v-246h224l-29 -41h-195v-269h223l61 82h72l-21 -125z" />
    <glyph glyph-name="ae" unicode="ae" horiz-adv-x="753" 
d="M352 247q-90 -29 -110 -59q-14 -20 -14 -60q0 -83 43 -83q24 0 45.5 7.5t35.5 16.5v178zM578 439q-17 0 -29 -8.5t-20 -22t-13 -30t-8 -33.5q-2 -14 -3.5 -50t-1.5 -82l146 66q-4 45 -9 76.5t-7 39.5q-7 20 -17 32t-38 12zM503 180q3 -19 4 -28t3 -14q7 -31 22.5 -55.5
t37 -39.5t47 -18.5t52.5 7.5l19 28.5l19 28.5h71l-14 -52q-16 -13 -39 -22.5t-62 -18.5h1q-74 -15 -136 -0.5t-104 49.5q-13 -8 -36.5 -17.5t-50.5 -17.5t-53.5 -13.5t-45.5 -5.5q-67 0 -104 23t-42 63q-3 28 0 54.5t15.5 49t37 40t63.5 26.5q11 3 50.5 12.5t93.5 25.5v59
q0 24 -1.5 41.5t-7.5 28.5t-18.5 16.5t-33.5 5.5q-24 0 -37.5 -3t-18.5 -5l-46 -83h-72l13 94q42 9 83.5 15.5t85.5 6.5q54 0 86.5 -7t52.5 -20l5 -4q53 34 137 34q55 0 93 -10.5t61 -32t33.5 -54.5t12.5 -77z" />
    <glyph glyph-name="OE" unicode="OE" horiz-adv-x="1028" 
d="M440 7q31 0 74 38h-10v535h9q-53 48 -95 48q-29 0 -58.5 -15.5t-53.5 -51.5t-39 -95.5t-15 -147.5t17.5 -147.5t44.5 -96t60.5 -52t65.5 -15.5zM541 -2q-24 -8 -53 -12t-61 -4q-77 0 -138.5 20t-104.5 61.5t-66 105t-23 150.5t22 150t64.5 103.5t104.5 60t141 19.5
q63 0 113 -15h447l21 -128h-71l-62 97h-164.5t-58.5 -1v-260h224l-28 -35h-196v-281h223l61 94h72l-21 -125h-446z" />
    <glyph glyph-name="oe" unicode="oe" horiz-adv-x="918" 
d="M654 435q-17 0 -29 -8.5t-20 -22t-13 -30t-8 -33.5q-2 -14 -3.5 -47t-1.5 -79l146 64q-4 45 -9 74.5t-7 37.5q-7 20 -17 32t-38 12zM430 231q0 54 -8.5 92.5t-23.5 63t-35 36.5t-42 12q-20 0 -38 -12t-32 -37.5t-22.5 -65.5t-8.5 -95q0 -53 9 -93t24 -66.5t34.5 -40
t40.5 -13.5q43 0 72.5 54.5t29.5 164.5zM580 175q3 -19 3.5 -25.5t2.5 -11.5q7 -31 25.5 -56t49.5 -38.5t74.5 -12t99.5 23.5l11 -18q-19 -11 -43.5 -22t-63.5 -19q-72 -16 -132.5 -2t-102.5 48q-31 -29 -75.5 -43.5t-105.5 -14.5q-118 0 -178.5 61.5t-60.5 179.5
q0 117 60 178.5t183 61.5q109 0 170 -52q57 51 159 51q55 0 93 -12t61.5 -35t34 -57t12.5 -78z" />
    <glyph glyph-name="fi" unicode="fi" horiz-adv-x="622" 
d="M265 42l78 -26v-16h-263v15l46 27v57v71v98v139h-48l35 45h13v30q0 51 17.5 90t47 66t68 41.5t81.5 15.5q45 1 94 -3t92 -15l13 -93h-73l-27 58q-3 5 -22 8.5t-43 4t-47 -1.5t-33 -7q-7 -4 -12.5 -11t-9 -20.5t-5.5 -35.5t-2 -56v-71h318l1 -410l45 -27v-15h-182l1 407
h-183v-365z" />
    <glyph glyph-name="fl" unicode="fl" horiz-adv-x="612" 
d="M264 42l45 -27v-15h-230v15l46 27v57v71v98v139h-47l35 45h12v30q0 51 15.5 92.5t47 69.5t80.5 41t117 7q1 0 22.5 -3.5t51.5 -10t63.5 -17t58.5 -24.5l1 -595l45 -27v-15h-228v15l46 27l1 596q-40 10 -73.5 13t-57.5 -8t-37.5 -38.5t-13.5 -76.5v-76h100l-35 -45h-65
v-365z" />
    <glyph glyph-name="perthousand" unicode="&#x30;&#x2f;&#x30;&#x30;" horiz-adv-x="1040" 
d="M806 165q0 90 38.5 130t107.5 40q63 0 102.5 -40t39.5 -130t-39.5 -132t-102.5 -42q-67 0 -106.5 41.5t-39.5 132.5zM989 166q0 74 -13 110.5t-28 36.5q-14 0 -25.5 -32t-11.5 -115q0 -42 4 -70.5t10.5 -45.5t14 -24.5t15.5 -7.5q13 0 23.5 36.5t10.5 111.5zM484 165
q0 90 38.5 130t107.5 40q63 0 102.5 -40t39.5 -130t-39.5 -132t-102.5 -42q-67 0 -106.5 41.5t-39.5 132.5zM667 166q0 74 -13 110.5t-28 36.5q-14 0 -25.5 -32t-11.5 -115q0 -42 4 -70.5t10.5 -45.5t14 -24.5t15.5 -7.5q13 0 23.5 36.5t10.5 111.5zM119 454q0 90 38.5 130
t107.5 40q63 0 102.5 -40t39.5 -130t-39.5 -132t-102.5 -42q-67 0 -106.5 41.5t-39.5 132.5zM302 455q0 74 -13 110.5t-28 36.5q-14 0 -25.5 -32t-11.5 -115q0 -42 4 -70.5t10.5 -45.5t14 -24.5t15.5 -7.5q13 0 23.5 36.5t10.5 111.5zM634 642h64l-441 -665h-67z" />
    <glyph glyph-name="ff" unicode="ff" horiz-adv-x="731" 
d="M265 452h183v30q0 71 22 116q-67 17 -113.5 20t-63.5 -7q-4 -2 -9 -8t-9 -19t-7 -34.5t-3 -55.5v-42zM265 42l54 -26v-16h-239v15l46 27v57v71v98v139h-48l35 45h13v6q0 102 47.5 154.5t133.5 54.5q55 1 103 -11t80 -26q47 61 139 61q13 0 32 -1t39 -3.5l38.5 -5
t30.5 -5.5l13 -93h-73l-32 66q-2 3 -10.5 5t-19 2t-20 -0.5t-12.5 -1.5q-15 -6 -21.5 -34.5t-6.5 -96.5v-71h140l-35 -45h-105v-365l78 -26v-16h-263v15l46 27v57v71v98v139h-183v-365z" />
    <glyph glyph-name="fk" unicode="fk" horiz-adv-x="938" 
d="M446 638q-40 10 -73.5 13t-57.5 -8t-37.5 -38.5t-13.5 -76.5v-76h100l-35 -45h-65v-365l45 -27v-15h-230v15l46 27v57v71v98v139h-47l35 45h12v30q0 51 15.5 92.5t47 69.5t80.5 41t117 7q1 0 22.5 -3.5t51.5 -10t63.5 -17t58.5 -24.5v-377l174 157l-56 20v16h174v-16
l-55 -21l-65.5 -58l-62.5 -58l99.5 -129.5l99.5 -129.5l42 -26v-16h-145l-176 224l-29 -29l1 -152l45 -27v-15h-228v15l46 27q0 128 0.5 252.5t0.5 252.5v91z" />
    <glyph glyph-name="fj" unicode="fj" horiz-adv-x="590" 
d="M265 407v-365l78 -26v-16h-263v15l46 27v57v71v98v139h-48l35 45h13v30q0 51 17.5 90t47 66t68 41.5t81.5 15.5q45 1 94 -3t92 -15l13 -93h-73l-27 58q-3 5 -22 8.5t-43 4t-47 -1.5t-33 -7q-7 -4 -12.5 -11t-9 -20.5t-5.5 -35.5t-2 -56v-71h318l1 -482q0 -33 -8.5 -58.5
t-22 -44t-31 -31.5t-35.5 -22q-14 -6 -35 -9.5t-44.5 -2.5t-45 5t-34.5 13l-15 82h73l25 -53q9 -19 15 -19q23 3 23 73l-1 504h-183z" />
    <glyph glyph-name="ft" unicode="ft" horiz-adv-x="649" 
d="M265 42l78 -26v-16h-263v15l46 27v57v71v98v139h-48l35 45h13v30q0 102 47.5 155.5t133.5 53.5q13 0 32 -1t39 -3.5l38.5 -5t30.5 -5.5l13 -93h-73l-32 66q-2 3 -10.5 5t-19 2t-20 -0.5t-12.5 -1.5q-15 -6 -21.5 -34.5t-6.5 -96.5v-71h180l2 1l47 104h68l15 -104h117
l-49 -46h-67v-304q0 -27 6.5 -41t23.5 -19l84 -28v-15h-112q-19 0 -38 4.5t-36 12.5t-30 19t-19 24q-7 15 -9 42t-2 68v237h-181v-365z" />
    <glyph glyph-name="fh" unicode="fh" horiz-adv-x="928" 
d="M446 638q-40 10 -73.5 13t-57.5 -8t-37.5 -38.5t-13.5 -76.5v-76h100l-35 -45h-65v-365l45 -27v-15h-230v15l46 27v57v71v98v139h-47l35 45h12v30q0 51 15.5 92.5t47 69.5t80.5 41t117 7q1 0 22.5 -3.5t51.5 -10t63.5 -17t58.5 -24.5v-217q1 1 16.5 8t38 15t48.5 15t49 7
q30 0 56.5 -8t47 -24t32 -41.5t11.5 -59.5v-290l45 -27v-15h-228v15l46 27v293q0 40 -16 56t-40 17.5t-52.5 -7l-53.5 -15.5l1 -344l45 -27v-15h-228v15l46 27v64.5v53.5t0.5 55.5t0.5 70v96.5v135v121z" />
    <glyph glyph-name="fb" unicode="fb" horiz-adv-x="839" 
d="M734 250q0 94 -23 134t-63 40q-18 0 -38 -4t-27 -11v-366q43 -11 72.5 -8t46.5 26t24.5 69t7.5 120zM446 638q-40 10 -73.5 13t-57.5 -8t-37.5 -38.5t-13.5 -76.5v-76h100l-35 -45h-65v-365l45 -27v-15h-230v15l46 27v57v71v98v139h-47l35 45h12v30q0 51 15.5 92.5
t47 69.5t80.5 41t117 7q1 0 22.5 -3.5t51.5 -10t63.5 -17t58.5 -24.5v-186q24 8 48.5 11.5t44.5 3.5q96 0 149.5 -56.5t53.5 -165.5q0 -67 -14 -109.5t-41 -77.5q-24 -30 -65.5 -46t-101.5 -16q-28 0 -64 7t-68 15l-1 -1l-13 -16h-63v638v0z" />
    <glyph glyph-name="ffb" unicode="ffb" horiz-adv-x="1161" 
d="M265 452h182v30q0 68 26 116q-64 16 -114 19.5t-66 -6.5q-4 -2 -9 -8t-9 -19t-7 -34.5t-3 -55.5v-42zM1056 250q0 94 -23 134t-63 40q-18 0 -38 -4t-27 -11v-366q43 -11 72.5 -8t46.5 26t24.5 69t7.5 120zM768 638q-40 10 -73.5 13t-57.5 -8t-37.5 -38.5t-13.5 -76.5v-76
h100l-35 -45h-65v-365l45 -27v-15h-230v15l46 27v57v71v98v139h-182v-365l54 -26v-16h-239v15l46 27v57v71v98v139h-48l35 45h13v6q0 102 47.5 154.5t133.5 54.5q26 0 52.5 -3.5t51 -9t46 -12.5t37.5 -13q32 36 84 53t129 10q1 0 22.5 -3.5t51.5 -10t63.5 -17t58.5 -24.5
v-186q24 8 48.5 11.5t44.5 3.5q96 0 149.5 -56.5t53.5 -165.5q0 -67 -14 -109.5t-41 -77.5q-24 -30 -65.5 -46t-101.5 -16q-28 0 -64 7t-68 15l-1 -1l-13 -16h-63v638v0z" />
    <glyph glyph-name="ffh" unicode="ffh" horiz-adv-x="1249" 
d="M265 452h181v30q0 68 26 116q-32 8 -60.5 13t-52.5 6.5t-41 0t-25 -6.5q-4 -2 -9 -8t-9 -19t-7 -34.5t-3 -55.5v-42zM767 638q-40 10 -73.5 13t-57.5 -8t-37.5 -38.5t-13.5 -76.5v-76h100l-35 -45h-65v-365l45 -27v-15h-230v15l46 27v57v71v98v139h-181v-365l54 -26v-16
h-239v15l46 27v57v71v98v139h-48l35 45h13v6q0 102 47.5 154.5t133.5 54.5q25 0 51.5 -3.5t51 -9t46 -12.5l38.5 -13q31 36 83.5 53t128.5 10q1 0 22.5 -3.5t51.5 -10t63.5 -17t58.5 -24.5v-217q1 1 16.5 8t38 15t48.5 15t49 7q30 0 56.5 -8t47 -24t32 -41.5t11.5 -59.5
v-290l45 -27v-15h-228v15l46 27v293q0 40 -16 56t-40 17.5t-52.5 -7l-53.5 -15.5l1 -344l45 -27v-15h-228v15l46 27v64.5v53.5t0.5 55.5t0.5 70v96.5v135v121z" />
    <glyph glyph-name="fft" unicode="fft" horiz-adv-x="970" 
d="M265 452h182v30q0 68 23 116q-63 16 -112 19t-65 -6q-4 -2 -9 -8t-9 -19t-7 -34.5t-3 -55.5v-42zM586 42l78 -26v-16h-263v15l46 27v57v71v98v139h-182v-365l54 -26v-16h-239v15l46 27v57v71v98v139h-48l35 45h13v6q0 102 47.5 154.5t133.5 54.5q25 0 50 -3t49 -8.5
t45 -12t38 -12.5q48 60 139 60q13 0 32 -1t39 -3.5l38.5 -5t30.5 -5.5l13 -93h-73l-32 66q-2 3 -10.5 5t-19 2t-20 -0.5t-12.5 -1.5q-15 -6 -21.5 -34.5t-6.5 -96.5v-71h180l2 1l47 104h68l15 -104h117l-49 -46h-67v-304q0 -27 6.5 -41t23.5 -19l84 -28v-15h-112
q-19 0 -38 4.5t-36 12.5t-30 19t-19 24q-7 15 -9 42t-2 68v237h-181v-365z" />
    <glyph glyph-name="ffk" unicode="ffk" horiz-adv-x="1259" 
d="M265 452h181v30q0 68 26 116q-32 8 -60.5 13t-52.5 6.5t-41 0t-25 -6.5q-4 -2 -9 -8t-9 -19t-7 -34.5t-3 -55.5v-42zM767 638q-40 10 -73.5 13t-57.5 -8t-37.5 -38.5t-13.5 -76.5v-76h100l-35 -45h-65v-365l45 -27v-15h-230v15l46 27v57v71v98v139h-181v-365l54 -26v-16
h-239v15l46 27v57v71v98v139h-48l35 45h13v6q0 102 47.5 154.5t133.5 54.5q25 0 51.5 -3.5t51 -9t46 -12.5l38.5 -13q31 36 83.5 53t128.5 10q1 0 22.5 -3.5t51.5 -10t63.5 -17t58.5 -24.5v-377l174 157l-56 20v16h174v-16l-55 -21l-65.5 -58l-62.5 -58l99.5 -129.5
l99.5 -129.5l42 -26v-16h-145l-176 224l-29 -29l1 -152l45 -27v-15h-228v15l46 27q0 128 0.5 252.5t0.5 252.5v91z" />
    <glyph glyph-name="ffj" unicode="ffj" horiz-adv-x="907" 
d="M265 452h178v30q0 34 8 63t22 53q-32 8 -61 13t-53 6.5t-41 0t-25 -6.5q-4 -2 -9 -8t-9 -19t-7 -34.5t-3 -55.5v-42zM582 407v-365l78 -26v-16h-263v15l46 27v57v71v98v139h-178v-365l54 -26v-16h-239v15l46 27v57v71v98v139h-48l35 45h13v6q0 102 47.5 154.5t133.5 54.5
q26 0 53 -3.5t52 -9.5t47 -13t38 -13q30 32 71.5 49t88.5 18q45 1 94 -3t92 -15l13 -93h-73l-27 58q-3 5 -22 8.5t-43 4t-47 -1.5t-33 -7q-7 -4 -12.5 -11t-9 -20.5t-5.5 -35.5t-2 -56v-71h318l1 -482q0 -33 -8.5 -58.5t-22 -44t-31 -31.5t-35.5 -22q-14 -6 -35 -9.5
t-44.5 -2.5t-45 5t-34.5 13l-15 82h73l25 -53q9 -19 15 -19q23 3 23 73l-1 504h-183z" />
    <glyph glyph-name="ffi" unicode="ffi" horiz-adv-x="939" 
d="M265 452h178v30q0 34 8 63t22 53q-32 8 -61 13t-53 6.5t-41 0t-25 -6.5q-4 -2 -9 -8t-9 -19t-7 -34.5t-3 -55.5v-42zM582 42l78 -26v-16h-263v15l46 27v57v71v98v139h-178v-365l54 -26v-16h-239v15l46 27v57v71v98v139h-48l35 45h13v6q0 102 47.5 154.5t133.5 54.5
q26 0 53 -3.5t52 -9.5t47 -13t38 -13q30 32 71.5 49t88.5 18q45 1 94 -3t92 -15l13 -93h-73l-27 58q-3 5 -22 8.5t-43 4t-47 -1.5t-33 -7q-7 -4 -12.5 -11t-9 -20.5t-5.5 -35.5t-2 -56v-71h318l1 -410l45 -27v-15h-182l1 407h-183v-365z" />
    <glyph glyph-name="ffl" unicode="ffl" horiz-adv-x="937" 
d="M265 452h185v30q0 33 6 62t20 53q-65 17 -115.5 20.5t-67.5 -6.5q-4 -2 -9 -8t-9 -19t-7 -34.5t-3 -55.5v-42zM589 42l45 -27v-15h-230v15l46 27v57v71v98v139h-185v-365l54 -26v-16h-239v15l46 27v57v71v98v139h-48l35 45h13v6q0 102 47.5 154.5t133.5 54.5
q26 0 53 -3.5t52 -9.5t47 -13t38 -13q31 36 83.5 53.5t129.5 10.5q1 0 22.5 -3.5t51.5 -10t63.5 -17t58.5 -24.5l1 -595l45 -27v-15h-228v15l46 27l1 596q-40 10 -73.5 13t-57.5 -8t-37.5 -38.5t-13.5 -76.5v-76h100l-35 -45h-65v-365z" />
    <glyph glyph-name="tu" unicode="tu" horiz-adv-x="900" 
d="M583 129q0 -40 14.5 -56t36.5 -17.5t48.5 6.5l51.5 16l-1 260v38l-54 28v13l191 57v-123v-75t-0.5 -62.5t-0.5 -71v-99.5l54 -28v-15h-189v44q-2 -1 -17.5 -8t-37.5 -15.5t-45.5 -15t-40.5 -6.5q-30 0 -56.5 8t-47 24t-32 41t-11.5 60v275h-181v-304q0 -27 6.5 -41
t23.5 -19l84 -28v-15h-112q-19 0 -38 4.5t-36 12.5t-30 19t-19 24q-7 15 -9 42t-2 68v237h-57l58 46l47 104h68l15 -104h319v-324z" />
    <glyph glyph-name="fff" unicode="fff" horiz-adv-x="1038" 
d="M265 452h175v6q0 88 37 140q-31 8 -61 12.5t-54.5 6t-42.5 0t-26 -5.5q-4 -2 -9 -8t-9 -19t-7 -34.5t-3 -55.5v-42zM579 452h176v30q0 71 22 116q-67 17 -110 20t-60 -7q-4 -2 -9 -8t-9 -19t-7 -34.5t-3 -55.5v-42zM579 42l54 -26v-16h-239v15l46 27v57v71v98v139h-175
v-365l54 -26v-16h-239v15l46 27v57v71v98v139h-48l35 45h13v6q0 102 47.5 154.5t133.5 54.5q26 0 54 -3.5t54.5 -9.5t49.5 -13t39 -13q45 37 117 39q55 1 99.5 -11t76.5 -26q47 61 139 61q13 0 32 -1t39 -3.5l38.5 -5t30.5 -5.5l13 -93h-73l-32 66q-2 3 -10.5 5t-19 2
t-20 -0.5t-12.5 -1.5q-15 -6 -21.5 -34.5t-6.5 -96.5v-71h140l-35 -45h-105v-365l78 -26v-16h-263v15l46 27v57v71v98v139h-176v-365z" />
    <glyph glyph-name="rt" unicode="rt" horiz-adv-x="649" 
d="M578 103q0 -27 6.5 -41t23.5 -19l84 -28v-15h-112q-19 0 -38 4.5t-36 12.5t-30 19t-19 24q-7 15 -9 42t-2 68v247q-33 1 -62.5 -1.5t-53.5 -6.5t-41 -8.5t-24 -6.5l1 -353l79 -27v-15h-262v15l46 27v77v51.5t0.5 38.5t0.5 38.5v51.5v77l-54 28v13l189 57v-46q32 12 79 24
t110 18l40 88h68l15 -93h117l-49 -46h-67v-315v0z" />
    <glyph glyph-name="ty" unicode="ty" horiz-adv-x="854" 
d="M684 0q-10 -25 -16.5 -46l-12.5 -39t-13 -33.5t-19 -28.5q-17 -20 -44 -30.5t-57.5 -12.5t-60.5 3.5t-52 19.5l-14 80h73l33 -66q48 0 68.5 39t25.5 114l-189 407h-141v-304q0 -27 6.5 -41t23.5 -19l84 -28v-15h-112q-19 0 -38 4.5t-36 12.5t-30 19t-19 24q-7 15 -9 42
t-2 68v237h-57l58 46l47 104h68l15 -104h267l16 -37l134 -302l118 302l-48 27v15h145v-15l-46 -27z" />
    <glyph glyph-name="tt" unicode="tt" horiz-adv-x="649" 
d="M578 103q0 -27 6.5 -41t23.5 -19l84 -28v-15h-112q-19 0 -38 4.5t-36 12.5t-30 19t-19 24q-7 15 -9 42t-2 68v237h-181v-304q0 -27 6.5 -41t23.5 -19l84 -28v-15h-112q-19 0 -38 4.5t-36 12.5t-30 19t-19 24q-7 15 -9 42t-2 68v237h-57l58 46l47 104h68l15 -104h183
l47 104h68l15 -104h117l-49 -46h-67v-304v0z" />
    <glyph glyph-name="ry" unicode="ry" horiz-adv-x="880" 
d="M710 0q-10 -25 -16.5 -46l-12.5 -39t-13 -33.5t-19 -28.5q-17 -20 -44 -30.5t-57.5 -12.5t-60.5 3.5t-52 19.5l-14 80h73l33 -66q48 0 68.5 39t25.5 114l-192 414q-26 0 -52 -1.5t-49 -4t-40 -5t-23 -3.5l1 -359l79 -27v-15h-262v15l46 27v77v51.5t0.5 38.5t0.5 38.5
v51.5v77l-54 28v13l189 57v-40q18 6 48.5 10.5t69 8t82 5t88.5 1.5l154 -344l118 302l-48 27v15h145v-15l-46 -27z" />
    <glyph glyph-name="ru" unicode="ru" horiz-adv-x="901" 
d="M584 129q0 -40 14.5 -56t36.5 -17.5t48.5 6.5l51.5 16l-1 298l-54 28v13l191 57l-1 -431l54 -28v-15h-189v44q-2 -1 -17.5 -8t-37.5 -15.5t-45.5 -15t-40.5 -6.5q-30 0 -56.5 8t-47 24t-32 41t-11.5 60v282q-26 1 -55.5 -0.5t-55 -4t-45 -5t-26.5 -4.5l1 -359l79 -27v-15
h-262v15l46 27v77v51.5t0.5 38.5t0.5 38.5v51.5v77l-54 28v13l189 57v-40q18 6 49.5 10.5t70.5 8t83.5 5t89.5 1.5h26v-329z" />
    <glyph glyph-name="rf" unicode="rf" horiz-adv-x="729" 
d="M585 42l78 -26v-16h-263v15l46 27v365v11q-34 2 -64 -0.5t-53.5 -7t-40 -9.5l-23.5 -7l1 -353l79 -27v-15h-262v15l46 27v77v51.5t0.5 38.5t0.5 38.5v51.5v77l-54 28v13l189 57v-46q33 12 74.5 23.5t106.5 17.5v14q0 102 47.5 155.5t133.5 53.5q13 0 32 -1t39 -3.5
l38.5 -5t30.5 -5.5l13 -93h-73l-32 66q-2 3 -10.5 5t-19 2t-20 -0.5t-12.5 -1.5q-15 -6 -21.5 -34.5t-6.5 -96.5v-54h140l-35 -47h-105v-380z" />
    <glyph glyph-name="tw" unicode="tw" horiz-adv-x="1081" 
d="M981 422l-43 23v14h131v-14l-41 -23l-147 -422h-43l-103 256l-103 -256h-60l-166 407h-141v-304q0 -27 6.5 -41t23.5 -19l84 -28v-15h-112q-19 0 -38 4.5t-36 12.5t-30 19t-19 24q-7 15 -9 42t-2 68v237h-57l58 46l47 104h68l15 -104h256l125 -307l67 164l-59 144h128
l113 -279z" />
    <glyph glyph-name=".notdef" horiz-adv-x="347" 
 />
    <glyph glyph-name="NULL" horiz-adv-x="0" 
 />
    <glyph glyph-name="NULL" horiz-adv-x="0" 
 />
    <glyph glyph-name="nonmarkingreturn" unicode="&#xd;" horiz-adv-x="0" 
 />
    <glyph glyph-name="space" unicode=" " horiz-adv-x="277" 
 />
    <glyph glyph-name="Eth" unicode="&#xd0;" horiz-adv-x="755" 
d="M623 327q0 70 -18.5 122t-51.5 87t-78 52.5t-98 17.5h-55v-106t-1 -120h114l-31 -45h-83q-1 -81 -1 -157.5v-138.5h106q105 0 151 71.5t46 216.5zM93 380h76v210l-63 36v13h301q85 0 154.5 -17t119 -54.5t76 -97t26.5 -145.5q0 -158 -88 -241.5t-268 -83.5h-68t-69 1
q-20 0 -48.5 0.5t-42.5 0.5h-93v15l63 36v282h-103z" />
    <glyph glyph-name="eth" unicode="&#xf0;" horiz-adv-x="533" 
d="M412 203q0 50 -8.5 88.5t-23.5 65t-34.5 40.5t-41.5 14q-20 0 -38 -14.5t-32 -41.5t-22.5 -66.5t-8.5 -90.5q0 -50 9 -85.5t24 -58t34.5 -33.5t40.5 -11q43 0 72 45.5t29 147.5zM148 528l117 67h-3q-26 20 -54.5 34.5t-61.5 24.5v41q57 -14 104 -30t77 -33l156 92v-64
l-109 -64h3q78 -60 121.5 -157t44.5 -218q2 -122 -56.5 -180t-183.5 -58q-117 0 -175.5 56.5t-58.5 164.5t59 171.5t179 63.5q17 0 32.5 -1.5t29.5 -3.5q-10 32 -26.5 64t-39.5 58l-155 -89v61z" />
    <glyph glyph-name="Lslash" unicode="&#x141;" horiz-adv-x="637" 
d="M311 443l80 53v-76l-80 -53v-335h210l72 100h76l-26 -131l-268 -1h-277v17l63 36v214l-70 -45v73l70 44v249l-63 36v17h277v-18l-64 -35v-145z" />
    <glyph glyph-name="lslash" unicode="&#x142;" horiz-adv-x="316" 
d="M296 446l79 52v-74l-79 -51l1 -331l45 -27v-15h-228v15l46 27v239l-85 -55v73l86 55v249l-54 28v13l189 57v-255z" />
    <glyph glyph-name="Scaron" unicode="&#x160;" horiz-adv-x="611" 
d="M619 174q0 -42 -24.5 -78.5t-69.5 -66.5q-34 -22 -79 -33.5t-98 -11.5q-106 0 -232 57l-14 117h71l54 -117q34 -7 78.5 -12.5t84.5 0.5t67.5 27.5t27.5 68.5q0 51 -36 81t-105 54q-55 19 -98 38t-72.5 43.5t-45 57.5t-15.5 82q0 74 88 129q62 38 159 38q100 0 207 -51
l13 -97h-66l-57 95q-32 11 -56 13.5t-47 2.5t-43 -5t-34.5 -16t-22.5 -30.5t-8 -47.5q0 -47 42 -82t119 -67q102 -42 157 -85.5t55 -103.5zM481 874l-112 -171h-94l-114 171l41 23l120 -113l121 111z" />
    <glyph glyph-name="scaron" unicode="&#x161;" horiz-adv-x="461" 
d="M497 130q0 -36 -20.5 -63t-52 -45t-69.5 -27t-73 -9q-49 0 -94.5 13t-87.5 35l-8 79h72l41 -74q24 -15 52.5 -19t54 2t42.5 21t17 38q0 25 -7 40.5t-19.5 25t-29.5 15.5t-37 11q-86 22 -133 60t-47 104q0 34 20 59t51 41t68 23.5t70 7.5q87 0 164 -37l10 -80h-71l-43 72
q-20 10 -45 14.5t-47 -1.5t-37 -24t-15 -52t25.5 -55t75.5 -38l63 -22.5t55.5 -27t39.5 -36.5t15 -51zM435 682l-112 -171h-94l-114 171l41 23l120 -113l121 111z" />
    <glyph glyph-name="Yacute" unicode="&#xdd;" horiz-adv-x="656" 
d="M601 587l-79 36v16h208v-18l-75 -34l-184 -326v-211l73 -34v-16h-283v16l76 35v200l-207 334l-83 37v17h283v-16l-64 -36l179 -274zM344 702l127 160h68l44 -52l-210 -143z" />
    <glyph glyph-name="yacute" unicode="&#xfd;" horiz-adv-x="548" 
d="M378 0q-10 -25 -16.5 -46l-12.5 -39t-13 -33.5t-19 -28.5q-17 -20 -44 -30.5t-57.5 -12.5t-60.5 3.5t-52 19.5l-14 80h73l33 -66q48 0 68.5 39t25.5 114l-193 416l-44 27v15h234v-15l-45 -27l134 -302l118 302l-48 27v15h145v-15l-46 -27zM294 520l127 160h68l44 -52
l-210 -143z" />
    <glyph glyph-name="Thorn" unicode="&#xde;" horiz-adv-x="636" 
d="M523 322q0 41 -4 71t-16.5 49.5t-37 28.5t-65.5 9h-108v-287h111q34 0 57 6.5t37 22t20 40t6 60.5zM352 16v-18h-264v17l60 36v535l-60 36v17h264v-18l-60 -35v-72h128q72 0 120 -12t76.5 -34t40.5 -53.5t13 -71.5q1 -39 -11 -73.5t-42.5 -60t-82.5 -40.5t-131 -15h-111
v-103z" />
    <glyph glyph-name="thorn" unicode="&#xfe;" horiz-adv-x="542" 
d="M415 235q0 51 -6.5 89.5t-23 62t-45 30.5t-72.5 -3v-378q42 -7 70.5 -4t45.5 24t24 64t7 115zM268 453q22 6 45.5 9t41.5 3q107 0 151 -57q23 -30 37.5 -73.5t14.5 -115.5q0 -57 -21.5 -103.5t-60 -76.5t-92 -41t-116.5 2l1 -148l45 -27v-15h-228v15l46 27v93v96.5
t0.5 108.5t0.5 130v160v198l-54 36v17h188z" />
    <glyph glyph-name="Zcaron" unicode="&#x17d;" horiz-adv-x="659" 
d="M539 46l71 108h66l-23 -154h-564v4q117 163 213 313l182 281h-232l-71 -87h-62l17 128h519v-5l-106 -159l-97 -150l-91.5 -142.5l-89.5 -136.5h268zM527 870l-112 -171h-94l-114 171l41 23l120 -113l121 111z" />
    <glyph glyph-name="zcaron" unicode="&#x17e;" horiz-adv-x="525" 
d="M387 45l52 65h70l-19 -110h-410v13l267 411h-145l-44 -56h-63l14 91h406v-15l-271 -399h143zM461 682l-112 -171h-94l-114 171l41 23l120 -113l121 111z" />
    <glyph glyph-name="onesuperior" unicode="&#xb9;" horiz-adv-x="283" 
d="M259 346l20 -12q4 -2 7.5 -4.5l6.5 -4.5q4 -3 6 -4v-17h-195v16l40 26v253h-41v17l105 47h51v-317z" />
    <glyph glyph-name="threesuperior" unicode="&#xb3;" horiz-adv-x="336" 
d="M368 402q0 -48 -37.5 -73t-108.5 -25q-26 0 -59.5 4.5t-62.5 11.5l-13 68h69l36 -51q33 -5 45 13.5t12 53.5q0 30 -7 41t-18 13h-75l26 38h48q13 6 13 51q0 38 -9 50.5t-34 7.5l-25 -58h-70l7 75q38 7 64 11t49 4q68 0 104 -22t36 -65q0 -9 -3.5 -19.5t-10.5 -20
t-16 -17.5t-21 -12q29 -14 45 -33.5t16 -45.5z" />
    <glyph glyph-name="twosuperior" unicode="&#xb2;" horiz-adv-x="350" 
d="M88 305v19l44 37q25 21 44.5 39.5t32.5 38t19.5 43t6.5 53.5q0 57 -29 61q-5 1 -16.5 0.5t-17.5 -1.5l-25 -58h-59l10 72q37 11 63 14.5t52 3.5q73 0 107.5 -23.5t34.5 -68.5q0 -24 -19 -51.5t-47 -54t-59 -50t-56 -39.5h122l22 42h56l-14 -77h-272z" />
    <glyph glyph-name="brokenbar" unicode="&#xa6;" horiz-adv-x="317" 
d="M171 -137v310h110v-310h-110zM171 365v310h110v-310h-110z" />
    <glyph glyph-name="minus" unicode="&#x2212;" horiz-adv-x="594" 
d="M82 226v96h548v-96h-548z" />
    <glyph glyph-name="multiply" unicode="&#xd7;" horiz-adv-x="531" 
d="M321 368l157 155l67 -68l-155 -154l156 -157l-73 -74l-153 161l-158 -159l-69 68l159 158l-36 36l-40 40l-39.5 40l-35.5 36l69 72z" />
    <glyph glyph-name="exclam" unicode="!" horiz-adv-x="301" 
d="M210 120q28 0 47 -18.5t19 -45.5q0 -26 -19 -45t-47 -19q-26 0 -45 19t-19 45q0 27 19 45.5t45 18.5zM255 165h-93l-33 490h159z" />
    <glyph glyph-name="quotedbl" unicode="&#x22;" horiz-adv-x="371" 
d="M285 500l-30 163h140l-27 -163h-83zM124 500l-30 163h140l-27 -163h-83z" />
    <glyph glyph-name="numbersign" unicode="#" horiz-adv-x="672" 
d="M323 251h118l26 131h-118zM99 251h119l26 131h-133v80h145l36 181h105l-36 -181h118l36 181h105l-36 -181h106v-80h-118l-26 -131h132v-81h-148l-36 -183h-105l36 183h-118l-36 -183h-105l36 183h-103v81z" />
    <glyph glyph-name="dollar" unicode="$" horiz-adv-x="611" 
d="M245 512q0 -33 21 -61.5t61 -52.5v211q-37 -5 -59.5 -26.5t-22.5 -70.5zM484 125q0 39 -21 65.5t-63 46.5v-206q36 7 60 28.5t24 65.5zM327 -98v83q-100 5 -212 56l-14 117h71l54 -117q21 -5 47 -9t54 -6v239q-51 19 -91 37.5t-67.5 42.5t-42 56.5t-14.5 79.5
q0 74 88 129q50 31 127 37v67h73v-68q82 -9 166 -49l13 -97h-66l-57 95q-16 5 -30 8t-26 5v-243q4 -2 6 -2q104 -35 158 -82t54 -107q0 -42 -24.5 -78.5t-69.5 -66.5q-51 -33 -124 -42v-85h-73z" />
    <glyph glyph-name="ampersand" unicode="&#x26;" horiz-adv-x="730" 
d="M625 326l2 9zM331 422l16.5 -20.5t20.5 -23.5q38 35 38 102q0 94 -49 94q-46 0 -46 -79q0 -45 20 -73zM296 301q-63 -48 -63 -134q0 -68 35 -103q43 -43 83 -43q71 0 149 83h1zM712 327q-23 -54 -51.5 -103.5t-63.5 -96.5h-3l81 -77l91 -35v-15h-154l-72 68
q-91 -85 -226 -85q-96 0 -152 41q-73 54 -73 122q0 109 182 181q-20 14 -34.5 30.5t-24.5 33.5q-11 17 -17 36.5t-6 34.5q0 51 56 98h-1q42 36 124 36q71 0 107 -24q55 -37 55 -79q0 -79 -135 -140l40 -46l37.5 -42l37.5 -42l41 -46q59 90 74 149l-66 31v17h218v-16z" />
    <glyph glyph-name="quotesingle" unicode="'" horiz-adv-x="211" 
d="M133 500l-30 163h140l-27 -163h-83z" />
    <glyph glyph-name="parenleft" unicode="(" horiz-adv-x="312" 
d="M351 -197q-44 34 -86.5 81.5t-75.5 107t-53.5 130t-20.5 150.5q0 78 20.5 144t53.5 120.5t75.5 97.5t86.5 76l11 -12q-26 -31 -48 -74t-38.5 -97t-26 -118.5t-9.5 -136.5q0 -74 9.5 -142.5t26 -127.5t38.5 -107t48 -80z" />
    <glyph glyph-name="parenright" unicode=")" horiz-adv-x="312" 
d="M25 -185q25 32 47.5 80t39 107t26 127.5t9.5 142.5q0 72 -9.5 136.5t-26 118.5t-39 97t-47.5 74l11 12q44 -33 86.5 -76t75.5 -97.5t53.5 -120.5t20.5 -144q0 -80 -20.5 -150.5t-53.5 -130t-75.5 -107t-86.5 -81.5z" />
    <glyph glyph-name="asterisk" unicode="*" horiz-adv-x="359" 
d="M235 564q0 8 -5.5 14t-13.5 6t-13.5 -6t-5.5 -14q0 -19 19 -19t19 19zM246 700l5 -48l44 34l37 -37l-38 -48l68 -19v-40l-72 -15l42 -52l-36 -36l-45 33l-5 -48h-58l-6 49l-24 -19.5l-20 -15.5l-37 37l41 51l-71 16v40l67 19l-37 48l38 38l43 -35l6 48h58z" />
    <glyph glyph-name="plus" unicode="+" horiz-adv-x="621" 
d="M316 351v192h103v-192h221v-93h-221v-203h-103v203h-222v93h222z" />
    <glyph glyph-name="comma" unicode="," horiz-adv-x="289" 
d="M109 -100l55 192l116 -57l-119 -164z" />
    <glyph glyph-name="hyphen" unicode="-" horiz-adv-x="400" 
d="M96 291h323v-95h-323v95z" />
    <glyph glyph-name="period" unicode="." horiz-adv-x="250" 
d="M166 116q28 0 47 -18.5t19 -45.5q0 -26 -19 -45t-47 -19q-26 0 -45 19t-19 45q0 27 19 45.5t45 18.5z" />
    <glyph glyph-name="slash" unicode="/" horiz-adv-x="347" 
d="M46 -17l298 663h103l-298 -663h-103z" />
    <glyph glyph-name="zero" unicode="0" horiz-adv-x="567" 
d="M80 321q1 171 70.5 250t197.5 79q56 0 103 -19.5t81.5 -60t53.5 -102.5t19 -147q0 -86 -19.5 -149t-54 -104t-81.5 -61.5t-103 -20.5q-62 0 -111.5 20.5t-84 61.5t-53 104t-18.5 149zM452 322q0 75 -10 131t-26.5 93.5t-37 56t-41.5 18.5q-18 0 -36.5 -15t-33.5 -50
t-24 -92.5t-9 -141.5q0 -86 11 -144t28.5 -93t38 -50.5t40.5 -15.5q18 0 36 19t32.5 57t23 94.5t8.5 132.5z" />
    <glyph glyph-name="one" unicode="1" horiz-adv-x="355" 
d="M321 53l62 -38v-15h-271v15l65 37v498h-81v18l152 67h73v-582z" />
    <glyph glyph-name="two" unicode="2" horiz-adv-x="531" 
d="M275 606q-10 0 -25 -1.5t-26 -4.5l-61 -108l-63 -1l20 122q47 13 89.5 20.5t89.5 7.5q64 0 111.5 -21t75.5 -57.5t35.5 -87t-9.5 -110.5q-14 -47 -65 -113q-9 -11 -28.5 -31l-47 -47l-62.5 -60l-75 -70h198l53 77h66l-19 -121h-447v20q89 66 142 122t87 104
q29 41 46.5 92.5t17.5 125.5q0 81 -23.5 111.5t-79.5 30.5z" />
    <glyph glyph-name="three" unicode="3" horiz-adv-x="567" 
d="M575 177q0 -91 -67 -138.5t-189 -47.5q-51 0 -103.5 7t-99.5 19l-21 108h66l62 -90q43 -13 80 -10t64.5 21.5t43.5 52t16 82.5q0 37 -8 62t-22.5 40t-33.5 21.5t-41 6.5h-21t-24.5 0.5t-24 0.5h-19.5l28 41l60 1q77 2 77 123q0 44 -12 72t-33.5 43t-50 17.5t-61.5 -4.5
l-57 -108h-68l14 117l12 3q28 7 74.5 15.5t94.5 8.5q115 0 175 -38.5t60 -119.5q0 -53 -34 -94t-94 -56q35 -3 61 -14.5t46 -31.5q50 -50 50 -110z" />
    <glyph glyph-name="four" unicode="4" 
d="M352 547l-224 -318h224v318zM358 638h135v-409h108l-32 -44h-76v-134l60 -30v-21h-264v19l63 33v133h-294v23z" />
    <glyph glyph-name="five" unicode="5" horiz-adv-x="583" 
d="M470 638l34 53h45l-26 -155h-351l-9 -143q35 9 79 12t90 -2t89.5 -18.5t77.5 -36.5t55 -57t21 -79q0 -54 -22 -93.5t-58 -66t-82.5 -41t-96.5 -19t-99 0.5t-90 18l-28 114h75l58 -92q49 -1 86.5 5.5t62.5 25t38 51t13 82.5q0 69 -28.5 106t-74.5 50t-102.5 7t-113.5 -22
l17 300h340z" />
    <glyph glyph-name="six" unicode="6" horiz-adv-x="581" 
d="M347 25q45 0 63 39.5t18 126.5q0 78 -17.5 112.5t-56.5 34.5q-52 0 -112 -17q0 -138 24 -217t81 -79zM584 194q0 -98 -60 -152t-175 -54q-123 0 -193 80.5t-70 241.5q0 86 23.5 147.5t61 101t82.5 58.5t87 20t89.5 -5t89.5 -15l23 -126h-77l-59 108q-11 2 -20.5 3
t-16.5 1q-41 0 -65 -25t-36.5 -62t-17.5 -80.5t-7 -79.5q30 10 62.5 15.5t66.5 5.5q99 0 155.5 -45t56.5 -138z" />
    <glyph glyph-name="seven" unicode="7" horiz-adv-x="566" 
d="M623 639l-288 -640h-154l344 537h-320l-52 -63h-48l29 166h489z" />
    <glyph glyph-name="eight" unicode="8" horiz-adv-x="573" 
d="M310 312q-25 -15 -40.5 -32t-24 -37t-11.5 -43t-3 -49q0 -57 30 -91t83 -34q48 0 79 32.5t31 85.5q0 19 -8 41.5t-22.5 43.5t-34 38.5t-41.5 27.5zM370 379q28 24 39.5 56.5t11.5 68.5q0 52 -20.5 84.5t-55.5 32.5q-38 0 -61.5 -29t-23.5 -74q0 -40 22 -73t60 -52z
M91 152q0 54 44.5 101.5t132.5 79.5l-31 14q-63 29 -89 62.5t-26 78.5q0 37 16 68t45.5 53t71 34.5t92.5 12.5q48 0 87.5 -10.5t67.5 -29t43.5 -45t15.5 -57.5q0 -23 -7 -42.5t-23.5 -38.5t-44.5 -37.5t-70 -39.5l42 -21q71 -35 102 -74t31 -89q0 -42 -18 -76.5t-51.5 -58.5
t-81.5 -37.5t-107 -13.5q-53 0 -97.5 12.5t-76.5 34.5t-50 52.5t-18 66.5z" />
    <glyph glyph-name="nine" unicode="9" horiz-adv-x="581" 
d="M340 618q-45 0 -63 -39.5t-18 -126.5q0 -78 17.5 -112.5t56.5 -34.5q52 0 112 17q0 138 -24 217t-81 79zM103 449q0 98 60 152t175 54q123 0 193 -80.5t70 -241.5q0 -86 -23.5 -150t-61 -107t-82.5 -65t-87 -23q-21 0 -46 1t-50.5 4t-50.5 6.5t-46 8.5l-17 104h81l49 -86
q11 -2 27.5 -3t23.5 -1q41 0 65 28t36.5 68.5t17.5 86.5t7 82q-30 -10 -62.5 -15.5t-66.5 -5.5q-99 0 -155.5 45t-56.5 138z" />
    <glyph glyph-name="colon" unicode=":" horiz-adv-x="247" 
d="M166 465q28 0 47 -18.5t19 -45.5q0 -26 -19 -45t-47 -19q-26 0 -45 19t-19 45q0 27 19 45.5t45 18.5zM166 126q28 0 47 -18.5t19 -45.5q0 -26 -19 -45t-47 -19q-26 0 -45 19t-19 45q0 27 19 45.5t45 18.5z" />
    <glyph glyph-name="semicolon" unicode=";" horiz-adv-x="274" 
d="M176 455q28 0 47 -18.5t19 -45.5q0 -26 -19 -45t-47 -19q-26 0 -45 19t-19 45q0 27 19 45.5t45 18.5zM93 -103l55 192l116 -57l-119 -164z" />
    <glyph glyph-name="less" unicode="&#x3c;" horiz-adv-x="709" 
d="M313 290l384 -167v-104l-571 256v30l571 256v-108z" />
    <glyph glyph-name="equal" unicode="=" horiz-adv-x="677" 
d="M117 318v84h559v-84h-559zM117 101v84h559v-84h-559z" />
    <glyph glyph-name="greater" unicode="&#x3e;" horiz-adv-x="705" 
d="M124 453v108l571 -256v-30l-571 -256v104l384 167z" />
    <glyph glyph-name="question" unicode="?" horiz-adv-x="423" 
d="M218 120q28 0 47 -18.5t19 -45.5q0 -26 -19 -45t-47 -19q-26 0 -45 19t-19 45q0 27 19 45.5t45 18.5zM272 280l-14 -119h-88l-16 148l94 19q17 3 28.5 11.5t18 25t9.5 43t3 65.5q0 37 -5 62t-16 40.5t-27.5 23t-40.5 10.5q-17 2 -34 1.5t-34 -3.5l-51 -100h-73l13 112
q45 13 88 21t91 8q241 0 241 -169q0 -70 -41 -119.5t-139 -77.5z" />
    <glyph glyph-name="at" unicode="@" horiz-adv-x="872" 
d="M561 298q-90 -29 -110 -59q-14 -20 -14 -60q0 -83 43 -83q24 0 45.5 7.5t35.5 16.5v178zM701 125q13 13 26.5 32t24 43.5t17.5 55.5t7 67q0 54 -18.5 105.5t-53 92t-85.5 65.5t-115 25q-61 0 -113 -25.5t-89.5 -73.5t-59 -115.5t-21.5 -151.5q0 -68 21 -126t60.5 -101
t97 -67.5t130.5 -24.5q62 0 108.5 10t95.5 34l13 -20q-26 -18 -51 -31.5t-54 -22.5t-63.5 -13.5t-77.5 -4.5q-81 0 -155.5 24t-131 71.5t-90 117t-33.5 161.5q0 79 34.5 151t94.5 126.5t141 86.5t175 32q84 0 151 -26.5t113.5 -69.5t71.5 -98.5t25 -113.5t-20 -102.5
t-54 -77.5t-79 -56t-95 -36.5t-102 -19.5t-100 -6q-67 0 -104 23t-42 63q-3 28 0 54.5t15.5 49t37 40t63.5 26.5q11 3 50.5 12.5t93.5 25.5v59q0 24 -1.5 41.5t-7.5 28.5t-18.5 16.5t-33.5 5.5q-24 0 -37.5 -3t-18.5 -5l-46 -83h-72l13 94q42 9 83.5 15.5t85.5 6.5
q54 0 86.5 -7t52.5 -20q54 -35 54 -97v-263z" />
    <glyph glyph-name="A" unicode="A" horiz-adv-x="763" 
d="M463 282l-109 264l-108 -264h217zM331 598l-17 41h146l246 -596l44 -27v-15h-235v15l43 27l-80 194h-249l-82 -194l43 -27v-15h-140v15l44 27z" />
    <glyph glyph-name="B" unicode="B" horiz-adv-x="685" 
d="M484 485q0 65 -26.5 92.5t-91.5 27.5h-66v-259h70q34 0 56 10t35 28t18 43.5t5 57.5zM531 171q0 42 -9 68.5t-27.5 41.5t-47 20.5t-68.5 5.5h-79v-270h106q40 0 60 7.5t38 26.5q14 14 20.5 38t6.5 62zM96 0v15l61 36v537l-61 36v15h288q72 0 120.5 -10.5t77 -30
t40.5 -47.5t12 -62q0 -58 -41.5 -95.5t-104.5 -54.5h-5q93 -7 145.5 -49t52.5 -106q0 -37 -15.5 -72t-50.5 -64q-14 -12 -31.5 -20.5t-40.5 -14.5t-53.5 -9.5t-70.5 -4.5q-52 -1 -103.5 0t-93.5 1h-126z" />
    <glyph glyph-name="C" unicode="C" horiz-adv-x="656" 
d="M248 310q0 -72 14 -129.5t40 -89.5q29 -35 66.5 -51t80.5 -16q26 0 51 1.5t48 6.5l65 102h71l-20 -123q-3 -1 -13.5 -3l-25.5 -5t-32 -6t-32 -4q-26 -3 -54 -5t-62 -2q-88 0 -152.5 20t-105.5 62q-45 48 -68 111.5t-23 131.5q0 175 90.5 258t258.5 83q35 0 60 -2t45 -5
q10 -2 25.5 -4.5t30.5 -5.5l26.5 -5.5t13.5 -2.5l20 -123h-71l-63 101q-45 9 -83 9q-48 0 -85 -15.5t-63 -51.5t-39.5 -93.5t-13.5 -141.5v-2v0z" />
    <glyph glyph-name="D" unicode="D" horiz-adv-x="729" 
d="M589 327q0 70 -18 120.5t-49.5 84t-74 51.5t-92.5 23h-52q0 -59 -0.5 -133t-0.5 -150.5t-0.5 -150.5t-0.5 -133h101q99 0 143 72t44 216zM384 639q81 0 147 -17t112.5 -54.5t72 -97t25.5 -145.5q0 -158 -83.5 -241.5t-254.5 -83.5h-64.5t-65.5 1q-19 0 -46.5 0.5
t-40.5 0.5h-88v15l60 36v537l-60 36v13h286z" />
    <glyph glyph-name="E" unicode="E" horiz-adv-x="639" 
d="M100 -1v15l59 37v536l-59 38v14h543l21 -128h-71l-62 92h-165t-58 -1v-255h224l-29 -45h-195v-264h223l61 87h72l-21 -125z" />
    <glyph glyph-name="F" unicode="F" horiz-adv-x="593" 
d="M301 50l65 -35v-16h-277v16l65 36v537l-56 36v15h518l21 -128h-71l-62 95h-203v-258h234l-28 -45h-206v-253z" />
    <glyph glyph-name="G" unicode="G" horiz-adv-x="716" 
d="M248 310q0 -72 14 -129.5t40 -89.5q29 -35 66.5 -51t80.5 -16q26 0 53 2t50 7v197h1l-76 34v14h282v-13l-60 -35v-197q-33 -11 -66.5 -20.5t-66.5 -16.5q-26 -6 -56.5 -8t-64.5 -2q-88 0 -152.5 20t-105.5 62q-45 48 -68 111.5t-23 131.5q0 175 90.5 258t258.5 83
q35 0 60 -2t45 -5q10 -2 25.5 -4.5t30.5 -5.5l26.5 -5.5t13.5 -2.5l20 -123h-71l-63 101q-45 9 -83 9q-48 0 -85 -15.5t-63 -51.5t-39.5 -93.5t-13.5 -141.5v-2v0z" />
    <glyph glyph-name="H" unicode="H" horiz-adv-x="769" 
d="M603 350l-1 235l-61 36v17h265v-17l-60 -36v-532l60 -36v-17h-265v17l61 36l1 252h-311v-252l61 -35v-18h-263v17l60 36v533l-60 36v17h263v-18l-61 -35v-236h311z" />
    <glyph glyph-name="I" unicode="I" horiz-adv-x="365" 
d="M309 53l61 -35v-18h-263v17l60 36v533l-60 36v17h263v-18l-61 -35v-533z" />
    <glyph glyph-name="J" unicode="J" horiz-adv-x="432" 
d="M388 128q0 -42 -14.5 -68.5t-39 -40.5t-57.5 -18.5t-69 -4.5q-29 0 -53 2.5t-50 11.5l-18 117h73l20 -51l14 -34.5t7 -15.5q32 -4 41.5 21t9.5 81v458l-60 36v17h257v-18l-61 -35v-458v0z" />
    <glyph glyph-name="K" unicode="K" horiz-adv-x="734" 
d="M287 317l263 269l-90 36v17h245v-18l-95 -36l-188 -201l247 -333l82 -36v-16h-197l-218 295l-49 -52v-191l61 -35v-18h-264v17l60 36v535l-60 36v17h264v-18l-61 -35v-269z" />
    <glyph glyph-name="L" unicode="L" horiz-adv-x="617" 
d="M301 41h199l69 91h72l-25 -131l-255 -1h-263v17l60 36v535l-60 36v17h263v-18l-60 -35v-547z" />
    <glyph glyph-name="M" unicode="M" horiz-adv-x="922" 
d="M881 52l61 -35v-18h-263v17l60 36v449q-1 0 -10.5 -21.5l-24.5 -56.5l-34 -79.5l-39 -91l-39 -91.5l-34 -79.5l-23.5 -55.5l-8.5 -21h-88l-208 520v-474l71 -36v-16h-188v17l70 35v536l-53 31v21h191l200 -497l108 248l39.5 91l35 80l25.5 56.5l10 21.5h203v-18l-61 -35
v-534z" />
    <glyph glyph-name="N" unicode="N" horiz-adv-x="765" 
d="M663 582l-82 41v16h213v-16l-76 -38v-585h-77l-419 543l-1 -489l72 -39v-16h-194v15l69 40v529l-69 39v17h198l79 -94.5l92.5 -117l98.5 -130l97 -132.5z" />
    <glyph glyph-name="O" unicode="O" horiz-adv-x="742" 
d="M105 319q0 87 22 150t64.5 103.5t104.5 60t141 19.5q72 0 133 -19t101 -61q44 -46 66.5 -108t22.5 -145t-22.5 -145.5t-66.5 -109.5q-40 -42 -101 -62t-133 -20q-77 0 -138.5 20t-104.5 61.5t-66 105t-23 150.5zM607 318q0 78 -16 134.5t-41.5 92.5t-57.5 53.5t-64 17.5
q-29 0 -58.5 -13.5t-53.5 -47.5t-39 -91.5t-15 -145.5t17.5 -145.5t44.5 -92t60.5 -48.5t65.5 -14q29 0 57 17.5t50.5 54.5t36 93.5t13.5 134.5z" />
    <glyph glyph-name="P" unicode="P" horiz-adv-x="653" 
d="M545 446q0 41 -4 71t-16.5 49.5t-37 28.5t-65.5 9h-108v-287h111q34 0 57 6.5t37 22t20 40t6 60.5zM442 638q72 0 120 -12t76.5 -34t40.5 -53.5t13 -71.5q1 -39 -11 -73.5t-42.5 -60t-82.5 -40.5t-131 -15h-111v-227l77 -34v-17h-293v17l72 33v542l-72 33v13h344v0z" />
    <glyph glyph-name="Q" unicode="Q" horiz-adv-x="742" 
d="M607 318q0 78 -16 134.5t-41.5 92.5t-57.5 53.5t-64 17.5q-29 0 -58.5 -13.5t-53.5 -47.5t-39 -91.5t-15 -145.5t17.5 -145.5t44.5 -92t60.5 -48.5t65.5 -14q29 0 57 17.5t50.5 54.5t36 93.5t13.5 134.5zM105 319q0 87 22 150t64.5 103.5t104.5 60t141 19.5q72 0 133 -19
t101 -61q44 -46 66.5 -108t22.5 -145t-22.5 -145.5t-66.5 -109.5q-15 -17 -36 -31l113 -146l-44 -51l-218 149q-24 -3 -49 -3q-77 0 -138.5 20t-104.5 61.5t-66 105t-23 150.5z" />
    <glyph glyph-name="R" unicode="R" horiz-adv-x="692" 
d="M524 446q0 41 -4 71t-17 49.5t-37.5 28.5t-65.5 9h-107v-287h110q67 0 94 28.5t27 100.5zM420 638q73 0 121 -12t76.5 -34t40.5 -53.5t13 -71.5q1 -30 -5.5 -57.5t-24 -50t-46 -40t-71.5 -27.5l146 -241l77 -33v-18h-197l-169 278h-88v-227l77 -34v-17h-294v17l72 33v542
l-72 33v13h344v0z" />
    <glyph glyph-name="S" unicode="S" horiz-adv-x="621" 
d="M628 174q0 -42 -24.5 -78.5t-69.5 -66.5q-34 -22 -79 -33.5t-98 -11.5q-106 0 -232 57l-14 117h71l54 -117q34 -7 78.5 -12.5t84.5 0.5t67.5 27.5t27.5 68.5q0 51 -36 81t-105 54q-55 19 -98 38t-72.5 43.5t-45 57.5t-15.5 82q0 74 88 129q62 38 159 38q100 0 207 -51
l13 -97h-66l-57 95q-32 11 -56 13.5t-47 2.5t-43 -5t-34.5 -16t-22.5 -30.5t-8 -47.5q0 -47 42 -82t119 -67q102 -42 157 -85.5t55 -103.5z" />
    <glyph glyph-name="T" unicode="T" horiz-adv-x="677" 
d="M470 51l87 -35v-17l-324 1v16l87 36v552h-114l-60 -90h-69l26 125h583l26 -125h-69l-60 90h-114z" />
    <glyph glyph-name="U" unicode="U" horiz-adv-x="720" 
d="M604 586l-82 34v19l213 1v-19l-78 -35v-328q0 -69 -12 -120.5t-39.5 -86.5t-72.5 -52.5t-112 -17.5q-145 0 -212 62t-67 184v359l-66 35v18h284v-18l-71 -35v-345q0 -103 37 -157.5t112 -56.5q38 -1 69 11t52.5 39.5t33 70.5t11.5 104v334z" />
    <glyph glyph-name="V" unicode="V" horiz-adv-x="752" 
d="M613 619v20h190v-20l-71 -36l-250 -583h-89l-249 586l-71 33v20h281v-21l-69 -32l195 -468l27 62.5l31.5 72.5l33 77l32.5 76l77 177z" />
    <glyph glyph-name="W" unicode="W" horiz-adv-x="1045" 
d="M693 0l-95 326l-10 -24l-26 -60.5l-35 -78.5l-35 -78.5l-26.5 -60.5l-10.5 -24h-87l-222 586l-78 33v20h273v-20l-54 -33l172 -457l119 271l-79 241h133l149 -500l182 445l-68 33v20h183v-20l-66 -32l-114.5 -294l-114.5 -293h-90z" />
    <glyph glyph-name="X" unicode="X" horiz-adv-x="776" 
d="M242 52l96 -34v-18h-240v18l84 34l195 281h-1l-164 253l-84 34v21h310v-20l-74 -34l114 -180l129 181l-86 32v21h231v-21l-83 -32l-161 -226h1l200 -309l83 -35v-18h-309v18l74 33l-150 234z" />
    <glyph glyph-name="Y" unicode="Y" horiz-adv-x="666" 
d="M610 587l-79 36v16h208v-18l-75 -34l-184 -326v-211l73 -34v-16h-283v16l76 35v200l-207 334l-83 37v17h283v-16l-64 -36l179 -274z" />
    <glyph glyph-name="Z" unicode="Z" horiz-adv-x="669" 
d="M548 46l71 108h66l-23 -154h-564v4q117 163 213 313l182 281h-232l-71 -87h-62l17 128h519v-5l-106 -159l-97 -150l-91.5 -142.5l-89.5 -136.5h268z" />
    <glyph glyph-name="bracketleft" unicode="[" horiz-adv-x="268" 
d="M242 637v-764l86 -37v-21h-213v881h213v-23z" />
    <glyph glyph-name="backslash" unicode="\" horiz-adv-x="390" 
d="M385 -20l-341 666h104l341 -666h-104z" />
    <glyph glyph-name="bracketright" unicode="]" horiz-adv-x="268" 
d="M25 673v23h213v-881h-213v21l86 37v764z" />
    <glyph glyph-name="asciicircum" unicode="^" horiz-adv-x="468" 
d="M186 391h-113l148 249h126l148 -249h-113l-99 162z" />
    <glyph glyph-name="underscore" unicode="_" horiz-adv-x="547" 
d="M607 -117h-552v82h552v-82z" />
    <glyph glyph-name="grave" unicode="`" horiz-adv-x="305" 
d="M297 499l-212 145l44 52h68l126 -159z" />
    <glyph glyph-name="a" unicode="a" horiz-adv-x="541" 
d="M357 247q-46 -15 -75.5 -30t-39.5 -29q-14 -20 -14 -60q0 -83 43 -83q24 0 48 7.5t38 16.5v178zM497 42l60 -27v-15h-200v24q-27 -12 -56 -22.5t-63 -10.5q-67 0 -104 23t-42 63q-3 28 0 54.5t15.5 49t37 40t63.5 26.5q11 3 53 12.5t96 25.5v59q0 24 -2.5 39.5t-9.5 25.5
t-20 13.5t-34 3.5q-24 0 -37.5 -3t-18.5 -5l-46 -73h-72l13 94q42 9 83.5 15.5t85.5 6.5q54 0 89 -7t55 -20q54 -35 54 -97v-295z" />
    <glyph glyph-name="b" unicode="b" horiz-adv-x="513" 
d="M408 250q0 94 -23 134t-63 40q-18 0 -38 -4t-27 -11v-366q43 -11 72.5 -8t46.5 26t24.5 69t7.5 120zM120 0v603l-54 28v13l189 57v-250q24 8 48.5 11.5t44.5 3.5q96 0 149.5 -56.5t53.5 -165.5q0 -67 -14 -109.5t-41 -77.5q-24 -30 -65.5 -46t-101.5 -16q-28 0 -64 7
t-68 15q-1 -1 -1 0v-1l-13 -16h-63z" />
    <glyph glyph-name="c" unicode="c" horiz-adv-x="492" 
d="M515 38q-15 -13 -37 -22t-46.5 -15t-50.5 -9t-49 -3q-67 0 -115 16.5t-78.5 47.5t-44.5 75t-14 99q0 57 16 98.5t44.5 70t68.5 44.5t87 22q8 1 17 1.5t24 0.5q24 0 44 -1.5t38.5 -4.5t38.5 -7t45 -10l13 -93h-59l-41 78q-7 3 -26 6.5t-48 2.5q-41 -1 -60.5 -14.5
t-35.5 -48.5q-11 -23 -15.5 -62t-3.5 -89q2 -77 16.5 -119.5t48.5 -60.5q12 -8 29.5 -12.5t36 -5.5t35 1t27.5 8l19 28.5l19 28.5h71z" />
    <glyph glyph-name="d" unicode="d" horiz-adv-x="529" 
d="M209 226q0 -38 2.5 -71.5t11.5 -59t26 -40t46 -14.5q15 0 31 2t34 6l1 371q-32 8 -64 6q-45 -2 -66.5 -52.5t-21.5 -147.5zM542 15v-15h-182v16q-14 -8 -37 -13.5t-52 -5.5q-53 0 -91 13.5t-62.5 42.5t-36.5 76t-12 113q0 51 13 92.5t40 70.5t68.5 44.5t98.5 15.5
q46 0 74 -7v145l-54 28v13l189 57v-660z" />
    <glyph glyph-name="e" unicode="e" horiz-adv-x="471" 
d="M295 435q-17 0 -29 -8.5t-20 -22t-13 -30t-8 -33.5q-2 -14 -3.5 -47t-1.5 -79l146 64q-4 45 -9 74.5t-7 37.5q-7 20 -17 32t-38 12zM221 175q3 -19 3.5 -25.5t2.5 -11.5q7 -31 25.5 -56t49.5 -38.5t74.5 -12t99.5 23.5l11 -18q-19 -11 -43.5 -22t-63.5 -19
q-54 -12 -102.5 -6.5t-87.5 24t-66 48t-39 66.5q-5 14 -8 32t-4 41l-1 26q-2 60 12 104.5t43.5 74t72 44t97.5 14.5t93 -12t61.5 -35t34 -57t12.5 -78z" />
    <glyph glyph-name="f" unicode="f" horiz-adv-x="409" 
d="M265 42l78 -26v-16h-263v15l46 27v57v71v98v139h-48l35 45h13v30q0 102 47.5 155.5t133.5 53.5q13 0 32 -1t39 -3.5l38.5 -5t30.5 -5.5l13 -93h-73l-32 66q-2 3 -10.5 5t-19 2t-20 -0.5t-12.5 -1.5q-15 -6 -21.5 -34.5t-6.5 -96.5v-71h140l-35 -45h-105v-365z" />
    <glyph glyph-name="g" unicode="g" horiz-adv-x="512" 
d="M378 323q0 62 -22.5 90.5t-54.5 28.5q-28 0 -50 -29.5t-22 -92.5q0 -60 15 -96t62 -36q23 0 37.5 11.5t22 30.5t10 43t2.5 50zM413 -62q0 13 -5 23.5t-22.5 19.5t-52 18t-93.5 18l-14.5 -19.5t-12.5 -21.5q-5 -10 -10.5 -28t-5.5 -37q0 -29 16 -47t40 -25.5t52 -5t52 15
t40 35t16 54.5zM301 158h-9.5t-7.5 0.5t-9 1t-14 1.5q-6 -7 -14.5 -21.5t-19.5 -41.5l153 -25h-1q176 -26 170 -121q-2 -32 -23.5 -60.5t-63.5 -51.5q-31 -17 -71.5 -26.5t-83.5 -11t-84.5 5t-74 21t-52.5 37t-20 53.5q0 26 26.5 52t64.5 58q-5 4 -12.5 9.5t-14 13t-11 16.5
t-4.5 18q0 17 18.5 38t58.5 49q-110 42 -110 140q1 78 57 117t157 39q25 0 47 -3t36 -6l110 53l22 -23l-46 -70q19 -22 29.5 -50t10.5 -57q0 -76 -55 -115.5t-158 -39.5h-1z" />
    <glyph glyph-name="h" unicode="h" horiz-adv-x="621" 
d="M618 15v-15h-228v15l46 27v293q0 40 -16 56t-40 17.5t-52.5 -7l-53.5 -15.5l1 -344l45 -27v-15h-228v15l46 27v69v58t0.5 62.5t0.5 82.5v118.5v170.5l-54 28v13l189 57v-281q1 1 16.5 8t38 15t48.5 15t49 7q30 0 56.5 -8t47 -24t32 -41.5t11.5 -59.5v-290z" />
    <glyph glyph-name="i" unicode="i" horiz-adv-x="317" 
d="M209 652q28 0 47 -18.5t19 -45.5q0 -26 -19 -45t-47 -19q-26 0 -45 19t-19 45q0 27 19 45.5t45 18.5zM279 42l45 -27v-15h-228v15l46 27v77v51t0.5 38t0.5 38v51v77l-54 28v13l189 57z" />
    <glyph glyph-name="j" unicode="j" horiz-adv-x="284" 
d="M212 652q28 0 47 -18.5t19 -45.5q0 -26 -19 -45t-47 -19q-26 0 -45 19t-19 45q0 27 19 45.5t45 18.5zM88 402v13l189 57v-502q0 -33 -8.5 -58.5t-22 -44t-31 -31.5t-35.5 -22q-14 -6 -35 -9.5t-44.5 -2.5t-45 5t-34.5 13l-15 82h73l25 -53q9 -19 15 -19q23 3 23 73v471z
" />
    <glyph glyph-name="k" unicode="k" horiz-adv-x="584" 
d="M270 260l174 157l-56 20v16h174v-16l-55 -21l-65.5 -58l-62.5 -58l99.5 -129.5l99.5 -129.5l42 -26v-16h-145l-176 224l-29 -29l1 -152l45 -27v-15h-228v15l46 27q0 142 0.5 280.5t0.5 280.5l-54 28v13l189 57v-441z" />
    <glyph glyph-name="l" unicode="l" horiz-adv-x="309" 
d="M279 42l45 -27v-15h-228v15l46 27q0 142 0.5 280.5t0.5 280.5l-54 28v13l189 57z" />
    <glyph glyph-name="m" unicode="m" horiz-adv-x="898" 
d="M609 15v-15h-228v15l46 27v293q0 40 -14 56t-36 17.5t-48 -7t-51 -15.5l1 -344l45 -27v-15h-228v15l46 27v76v49.5t0.5 36.5t0.5 36.5v49.5v76l-54 28v13l189 57v-44q1 1 14.5 8t34 15t44 15t46.5 7q38 0 71 -13t53 -40l27 14t38 17.5t45.5 15t50.5 6.5q30 0 56.5 -8
t47 -24t32 -41.5t11.5 -59.5v-290l45 -27v-15h-228v15l46 27v293q0 38 -14 53.5t-36 17.5t-50 -6.5t-56 -18.5q8 -22 8 -49v-290z" />
    <glyph glyph-name="n" unicode="n" horiz-adv-x="625" 
d="M621 15v-15h-228v15l46 27v293q0 40 -16 56t-40 17.5t-52.5 -7l-53.5 -15.5l1 -344l45 -27v-15h-228v15l46 27v76v49.5t0.5 36.5t0.5 36.5v49.5v76l-54 28v13l189 57v-44q1 1 16.5 8t38 15t48.5 15t49 7q30 0 56.5 -8t47 -24t32 -41.5t11.5 -59.5v-290z" />
    <glyph glyph-name="o" unicode="o" horiz-adv-x="543" 
d="M568 225q0 -117 -59 -179t-186 -62q-118 0 -178.5 61.5t-60.5 179.5q0 117 60 178.5t183 61.5q241 0 241 -240zM430 231q0 54 -8.5 92.5t-23.5 63t-35 36.5t-42 12q-20 0 -38 -12t-32 -37.5t-22.5 -65.5t-8.5 -95q0 -53 9 -93t24 -66.5t34.5 -40t40.5 -13.5
q43 0 72.5 54.5t29.5 164.5z" />
    <glyph glyph-name="p" unicode="p" horiz-adv-x="539" 
d="M412 235q0 51 -6.5 89.5t-23 62t-45 30.5t-72.5 -3v-378q42 -7 70.5 -4t45.5 24t24 64t7 115zM265 453q22 6 45.5 9t41.5 3q107 0 151 -57q23 -30 37.5 -73.5t14.5 -115.5q0 -57 -21.5 -103.5t-60 -76.5t-92 -41t-116.5 2l1 -148l45 -27v-15h-228v15l46 27v136t0.5 130.5
t0.5 130v136.5l-54 28v13l189 57v-30z" />
    <glyph glyph-name="q" unicode="q" horiz-adv-x="535" 
d="M220 205q0 -88 23 -127t63 -39q29 0 61 8v372q-29 8 -59 6q-32 -1 -49.5 -21.5t-26 -52t-10.5 -70.5t-2 -76zM548 -173v-15h-227v15l46 27v154q-17 -5 -39 -8t-46 -3q-106 0 -154 55.5t-48 166.5q0 68 13.5 109.5t39.5 73.5q24 29 65.5 45.5t101.5 15.5q33 0 58 -4
t42 -10l38 22h65v-617z" />
    <glyph glyph-name="r" unicode="r" horiz-adv-x="445" 
d="M265 433q18 6 42.5 11.5t50.5 9t50.5 6t42.5 2.5l18 -116h-71l-39 65h-1q-5 0 -16.5 -0.5t-25 -2t-27.5 -3.5t-24 -5l1 -359l79 -27v-15h-262v15l46 27v77v51.5t0.5 38.5t0.5 38.5v51.5v77l-54 28v13l189 57v-40z" />
    <glyph glyph-name="s" unicode="s" horiz-adv-x="461" 
d="M497 130q0 -36 -20.5 -63t-52 -45t-69.5 -27t-73 -9q-49 0 -94.5 13t-87.5 35l-8 79h72l41 -74q24 -15 52.5 -19t54 2t42.5 21t17 38q0 25 -7 40.5t-19.5 25t-29.5 15.5t-37 11q-86 22 -133 60t-47 104q0 34 20 59t51 41t68 23.5t70 7.5q87 0 164 -37l10 -80h-71l-43 72
q-20 10 -45 14.5t-47 -1.5t-37 -24t-15 -52t25.5 -55t75.5 -38l63 -22.5t55.5 -27t39.5 -36.5t15 -51z" />
    <glyph glyph-name="t" unicode="t" horiz-adv-x="336" 
d="M265 103q0 -27 6.5 -41t23.5 -19l84 -28v-15h-112q-19 0 -38 4.5t-36 12.5t-30 19t-19 24q-7 15 -9 42t-2 68v237h-57l58 46l47 104h68l15 -104h117l-49 -46h-67v-304v0z" />
    <glyph glyph-name="u" unicode="u" 
d="M259 129q0 -40 14.5 -56t36.5 -17.5t48.5 6.5l51.5 16l-1 298l-54 28v13l191 57l-1 -431l54 -28v-15h-189v44q-2 -1 -17.5 -8t-37.5 -15.5t-45.5 -15t-40.5 -6.5q-30 0 -56.5 8t-47 24t-32 41t-11.5 60v244l-54 28v13l191 57v-345z" />
    <glyph glyph-name="v" unicode="v" horiz-adv-x="547" 
d="M365 0h-89l-175 416l-44 27v15h234v-15l-45 -27l117 -301l104 301l-47 27v15h141v-15l-46 -27z" />
    <glyph glyph-name="w" unicode="w" horiz-adv-x="710" 
d="M670 422l-43 23v14h131v-14l-41 -23l-147 -422h-43l-103 256l-103 -256h-60l-172 422l-45 22v14h214v-14l-38 -22l114 -276l67 164l-59 144h128l113 -279z" />
    <glyph glyph-name="x" unicode="x" horiz-adv-x="549" 
d="M526 42l41 -29v-13h-224v13l39 29l-89 133l-105 -136l45 -26v-13h-148v13l44 29l138 177l-138 197l-50 27v15h236v-15l-41 -27l78 -113l94 112l-45 28v15h149v-15l-46 -27l-125 -151z" />
    <glyph glyph-name="y" unicode="y" horiz-adv-x="548" 
d="M378 0q-10 -25 -16.5 -46l-12.5 -39t-13 -33.5t-19 -28.5q-17 -20 -44 -30.5t-57.5 -12.5t-60.5 3.5t-52 19.5l-14 80h73l33 -66q48 0 68.5 39t25.5 114l-193 416l-44 27v15h234v-15l-45 -27l134 -302l118 302l-48 27v15h145v-15l-46 -27z" />
    <glyph glyph-name="z" unicode="z" horiz-adv-x="486" 
d="M387 45l52 65h70l-19 -110h-410v13l267 411h-145l-44 -56h-63l14 91h406v-15l-271 -399h143z" />
    <glyph glyph-name="braceleft" unicode="{" horiz-adv-x="363" 
d="M115 272q17 13 28.5 34.5t11.5 47.5v195q0 147 225 147v-22q-26 0 -46 -6.5t-34 -24.5q-18 -24 -18 -80v-156q0 -57 -25.5 -95t-73.5 -57q48 -18 73.5 -56t25.5 -95v-156q0 -56 18 -80q14 -18 34 -24.5t46 -6.5v-22q-225 0 -225 147v195q0 28 -10 50t-30 35v30z" />
    <glyph glyph-name="bar" unicode="|" horiz-adv-x="336" 
d="M171 -137v812h110v-812h-110z" />
    <glyph glyph-name="braceright" unicode="}" horiz-adv-x="365" 
d="M290 242q-20 -13 -30 -35t-10 -50v-195q0 -147 -225 -147v22q26 0 46 6.5t34 24.5q18 24 18 80v156q0 57 25.5 95t73.5 56q-48 19 -73.5 57t-25.5 95v156q0 56 -18 80q-14 18 -34 24.5t-46 6.5v22q225 0 225 -147v-195q0 -26 11.5 -47.5t28.5 -34.5v-30z" />
    <glyph glyph-name="asciitilde" unicode="~" horiz-adv-x="625" 
d="M265 374q42 0 78 -11t68 -23q28 -11 52.5 -19t40.5 -8q14 0 30 19.5t35 68.5l74 -32q-7 -47 -22 -78.5t-36.5 -51t-49.5 -28t-61 -8.5q-41 0 -77 11t-68 22l-53.5 19t-41.5 9q-14 0 -29.5 -19.5t-35.5 -67.5l-74 31q15 93 59 129.5t111 36.5z" />
    <glyph glyph-name="Adieresis" unicode="&#xc4;" horiz-adv-x="753" 
d="M454 282l-109 264l-108 -264h217zM322 598l-17 41h146l246 -596l44 -27v-15h-235v15l43 27l-80 194h-249l-82 -194l43 -27v-15h-140v15l44 27zM465 827q25 0 40.5 -16t15.5 -38t-15.5 -38t-40.5 -16q-22 0 -38 16t-16 38t16 38t38 16zM323 827q24 0 40 -16t16 -38
t-16 -38t-40 -16q-22 0 -38 16t-16 38t16 38t38 16z" />
    <glyph glyph-name="Aring" unicode="&#xc5;" horiz-adv-x="753" 
d="M418 687q0 33 -9.5 49t-21.5 16q-11 0 -20.5 -16t-9.5 -50q0 -33 10 -48.5t21 -15.5q14 0 22 15.5t8 49.5zM453 282l-109 264l-108 -264h217zM387 770q35 0 60 -25t25 -60q0 -31 -19 -53l243 -589l44 -27v-15h-235v15l43 27l-80 194h-249l-82 -194l43 -27v-15h-140v15
l44 27l247 579l-3 4q-25 25 -25 59q0 18 7 33.5t18.5 27t26.5 18t32 6.5z" />
    <glyph glyph-name="Ccedilla" unicode="&#xc7;" horiz-adv-x="646" 
d="M239 310q0 -72 14 -129.5t40 -89.5q29 -35 66.5 -51t80.5 -16q26 0 51 1.5t48 6.5l65 102h71l-20 -123q-3 -1 -13.5 -3l-25.5 -5t-32 -6t-32 -4q-26 -3 -54 -5t-62 -2q-88 0 -152.5 20t-105.5 62q-45 48 -68 111.5t-23 131.5q0 175 90.5 258t258.5 83q35 0 60 -2t45 -5
q10 -2 25.5 -4.5t30.5 -5.5l26.5 -5.5t13.5 -2.5l20 -123h-71l-63 101q-45 9 -83 9q-48 0 -85 -15.5t-63 -51.5t-39.5 -93.5t-13.5 -141.5v-2v0zM379 -40q24 -4 46 -10t37.5 -15t23 -23t2.5 -33q-7 -28 -39.5 -42.5t-78.5 -13.5q-66 2 -103 29l16 24q11 -5 27.5 -11t36.5 -6
t31 5.5t11 18.5q0 21 -19.5 29.5t-53.5 19.5l47 68h44z" />
    <glyph glyph-name="Eacute" unicode="&#xc9;" horiz-adv-x="629" 
d="M91 -1v15l59 37v536l-59 38v14h543l21 -128h-71l-62 92h-165t-58 -1v-255h224l-29 -45h-195v-264h223l61 87h72l-21 -125zM256 735l127 160h68l44 -52l-210 -143z" />
    <glyph glyph-name="Ntilde" unicode="&#xd1;" horiz-adv-x="755" 
d="M654 582l-82 41v16h213v-16l-76 -38v-585h-77l-419 543l-1 -489l72 -39v-16h-194v15l69 40v529l-69 39v17h198l79 -94.5l92.5 -117l98.5 -130l97 -132.5zM361 823q28 0 49.5 -6.5t40.5 -13.5q17 -6 31.5 -10.5t20.5 -5.5q1 0 9 -1.5t19.5 0t23 9t19.5 25.5l23 -11
q-8 -53 -38 -74t-74 -21q-29 0 -50.5 6t-40.5 14q-17 7 -31 11.5t-21 5.5q-5 1 -13.5 1t-18.5 -3.5t-20 -12t-16 -24.5l-26 7q9 55 38 79.5t75 24.5z" />
    <glyph glyph-name="Odieresis" unicode="&#xd6;" horiz-adv-x="732" 
d="M96 319q0 87 22 150t64.5 103.5t104.5 60t141 19.5q72 0 133 -19t101 -61q44 -46 66.5 -108t22.5 -145t-22.5 -145.5t-66.5 -109.5q-40 -42 -101 -62t-133 -20q-77 0 -138.5 20t-104.5 61.5t-66 105t-23 150.5zM598 318q0 78 -16 134.5t-41.5 92.5t-57.5 53.5t-64 17.5
q-29 0 -58.5 -13.5t-53.5 -47.5t-39 -91.5t-15 -145.5t17.5 -145.5t44.5 -92t60.5 -48.5t65.5 -14q29 0 57 17.5t50.5 54.5t36 93.5t13.5 134.5zM479 809q25 0 40.5 -16t15.5 -38t-15.5 -38t-40.5 -16q-22 0 -38 16t-16 38t16 38t38 16zM337 809q24 0 40 -16t16 -38t-16 -38
t-40 -16q-22 0 -38 16t-16 38t16 38t38 16z" />
    <glyph glyph-name="Udieresis" unicode="&#xdc;" horiz-adv-x="710" 
d="M595 586l-82 34v19l213 1v-19l-78 -35v-328q0 -69 -12 -120.5t-39.5 -86.5t-72.5 -52.5t-112 -17.5q-145 0 -212 62t-67 184v359l-66 35v18h284v-18l-71 -35v-345q0 -103 37 -157.5t112 -56.5q38 -1 69 11t52.5 39.5t33 70.5t11.5 104v334zM481 809q25 0 40.5 -16
t15.5 -38t-15.5 -38t-40.5 -16q-22 0 -38 16t-16 38t16 38t38 16zM339 809q24 0 40 -16t16 -38t-16 -38t-40 -16q-22 0 -38 16t-16 38t16 38t38 16z" />
    <glyph glyph-name="aacute" unicode="&#xe1;" horiz-adv-x="541" 
d="M357 247q-46 -15 -75.5 -30t-39.5 -29q-14 -20 -14 -60q0 -83 43 -83q24 0 48 7.5t38 16.5v178zM497 42l60 -27v-15h-200v24q-27 -12 -56 -22.5t-63 -10.5q-67 0 -104 23t-42 63q-3 28 0 54.5t15.5 49t37 40t63.5 26.5q11 3 53 12.5t96 25.5v59q0 24 -2.5 39.5t-9.5 25.5
t-20 13.5t-34 3.5q-24 0 -37.5 -3t-18.5 -5l-46 -73h-72l13 94q42 9 83.5 15.5t85.5 6.5q54 0 89 -7t55 -20q54 -35 54 -97v-295zM201 545l127 160h68l44 -52l-210 -143z" />
    <glyph glyph-name="agrave" unicode="&#xe0;" horiz-adv-x="541" 
d="M357 247q-46 -15 -75.5 -30t-39.5 -29q-14 -20 -14 -60q0 -83 43 -83q24 0 48 7.5t38 16.5v178zM497 42l60 -27v-15h-200v24q-27 -12 -56 -22.5t-63 -10.5q-67 0 -104 23t-42 63q-3 28 0 54.5t15.5 49t37 40t63.5 26.5q11 3 53 12.5t96 25.5v59q0 24 -2.5 39.5t-9.5 25.5
t-20 13.5t-34 3.5q-24 0 -37.5 -3t-18.5 -5l-46 -73h-72l13 94q42 9 83.5 15.5t85.5 6.5q54 0 89 -7t55 -20q54 -35 54 -97v-295zM377 511l-212 145l44 52h68l126 -159z" />
    <glyph glyph-name="acircumflex" unicode="&#xe2;" horiz-adv-x="541" 
d="M357 247q-46 -15 -75.5 -30t-39.5 -29q-14 -20 -14 -60q0 -83 43 -83q24 0 48 7.5t38 16.5v178zM497 42l60 -27v-15h-200v24q-27 -12 -56 -22.5t-63 -10.5q-67 0 -104 23t-42 63q-3 28 0 54.5t15.5 49t37 40t63.5 26.5q11 3 53 12.5t96 25.5v59q0 24 -2.5 39.5t-9.5 25.5
t-20 13.5t-34 3.5q-24 0 -37.5 -3t-18.5 -5l-46 -73h-72l13 94q42 9 83.5 15.5t85.5 6.5q54 0 89 -7t55 -20q54 -35 54 -97v-295zM142 537l112 171h94l113 -171l-41 -22l-119 112l-121 -111z" />
    <glyph glyph-name="adieresis" unicode="&#xe4;" horiz-adv-x="541" 
d="M357 247q-46 -15 -75.5 -30t-39.5 -29q-14 -20 -14 -60q0 -83 43 -83q24 0 48 7.5t38 16.5v178zM497 42l60 -27v-15h-200v24q-27 -12 -56 -22.5t-63 -10.5q-67 0 -104 23t-42 63q-3 28 0 54.5t15.5 49t37 40t63.5 26.5q11 3 53 12.5t96 25.5v59q0 24 -2.5 39.5t-9.5 25.5
t-20 13.5t-34 3.5q-24 0 -37.5 -3t-18.5 -5l-46 -73h-72l13 94q42 9 83.5 15.5t85.5 6.5q54 0 89 -7t55 -20q54 -35 54 -97v-295zM375 644q25 0 40.5 -16t15.5 -38t-15.5 -38t-40.5 -16q-22 0 -38 16t-16 38t16 38t38 16zM233 644q24 0 40 -16t16 -38t-16 -38t-40 -16
q-22 0 -38 16t-16 38t16 38t38 16z" />
    <glyph glyph-name="atilde" unicode="&#xe3;" horiz-adv-x="541" 
d="M357 247q-46 -15 -75.5 -30t-39.5 -29q-14 -20 -14 -60q0 -83 43 -83q24 0 48 7.5t38 16.5v178zM497 42l60 -27v-15h-200v24q-27 -12 -56 -22.5t-63 -10.5q-67 0 -104 23t-42 63q-3 28 0 54.5t15.5 49t37 40t63.5 26.5q11 3 53 12.5t96 25.5v59q0 24 -2.5 39.5t-9.5 25.5
t-20 13.5t-34 3.5q-24 0 -37.5 -3t-18.5 -5l-46 -73h-72l13 94q42 9 83.5 15.5t85.5 6.5q54 0 89 -7t55 -20q54 -35 54 -97v-295zM239 646q28 0 49.5 -6.5t40.5 -13.5q17 -6 31.5 -10.5t20.5 -5.5q1 0 9 -1.5t19.5 0t23 9t19.5 25.5l23 -11q-8 -53 -38 -74t-74 -21
q-29 0 -50.5 6t-40.5 14q-17 7 -31 11.5t-21 5.5q-5 1 -13.5 1t-18.5 -3.5t-20 -12t-16 -24.5l-26 7q9 55 38 79.5t75 24.5z" />
    <glyph glyph-name="aring" unicode="&#xe5;" horiz-adv-x="541" 
d="M357 247q-46 -15 -75.5 -30t-39.5 -29q-14 -20 -14 -60q0 -83 43 -83q24 0 48 7.5t38 16.5v178zM497 42l60 -27v-15h-200v24q-27 -12 -56 -22.5t-63 -10.5q-67 0 -104 23t-42 63q-3 28 0 54.5t15.5 49t37 40t63.5 26.5q11 3 53 12.5t96 25.5v59q0 24 -2.5 39.5t-9.5 25.5
t-20 13.5t-34 3.5q-24 0 -37.5 -3t-18.5 -5l-46 -73h-72l13 94q42 9 83.5 15.5t85.5 6.5q54 0 89 -7t55 -20q54 -35 54 -97v-295zM339 597q0 33 -9.5 49t-21.5 16q-11 0 -20.5 -16t-9.5 -50q0 -33 10 -48.5t21 -15.5q14 0 22 15.5t8 49.5zM308 680q35 0 60 -25t25 -60
q0 -17 -6.5 -32t-18 -26.5t-27 -18.5t-33.5 -7q-34 0 -59 25t-25 59q0 18 7 33.5t18.5 27t26.5 18t32 6.5z" />
    <glyph glyph-name="ccedilla" unicode="&#xe7;" horiz-adv-x="492" 
d="M515 38q-15 -13 -37 -22t-46.5 -15t-50.5 -9t-49 -3q-67 0 -115 16.5t-78.5 47.5t-44.5 75t-14 99q0 57 16 98.5t44.5 70t68.5 44.5t87 22q8 1 17 1.5t24 0.5q24 0 44 -1.5t38.5 -4.5t38.5 -7t45 -10l13 -93h-59l-41 78q-7 3 -26 6.5t-48 2.5q-41 -1 -60.5 -14.5
t-35.5 -48.5q-11 -23 -15.5 -62t-3.5 -89q2 -77 16.5 -119.5t48.5 -60.5q12 -8 29.5 -12.5t36 -5.5t35 1t27.5 8l19 28.5l19 28.5h71zM349 -39q24 -4 46 -10t37.5 -15t23 -23t2.5 -33q-7 -28 -39.5 -42.5t-78.5 -13.5q-66 2 -103 29l16 24q11 -5 27.5 -11t36.5 -6t31 5.5
t11 18.5q0 21 -19.5 29.5t-53.5 19.5l47 68h44z" />
    <glyph glyph-name="eacute" unicode="&#xe9;" horiz-adv-x="471" 
d="M295 435q-17 0 -29 -8.5t-20 -22t-13 -30t-8 -33.5q-2 -14 -3.5 -47t-1.5 -79l146 64q-4 45 -9 74.5t-7 37.5q-7 20 -17 32t-38 12zM221 175q3 -19 3.5 -25.5t2.5 -11.5q7 -31 25.5 -56t49.5 -38.5t74.5 -12t99.5 23.5l11 -18q-19 -11 -43.5 -22t-63.5 -19
q-54 -12 -102.5 -6.5t-87.5 24t-66 48t-39 66.5q-5 14 -8 32t-4 41l-1 26q-2 60 12 104.5t43.5 74t72 44t97.5 14.5t93 -12t61.5 -35t34 -57t12.5 -78zM191 546l127 160h68l44 -52l-210 -143z" />
    <glyph glyph-name="egrave" unicode="&#xe8;" horiz-adv-x="471" 
d="M295 435q-17 0 -29 -8.5t-20 -22t-13 -30t-8 -33.5q-2 -14 -3.5 -47t-1.5 -79l146 64q-4 45 -9 74.5t-7 37.5q-7 20 -17 32t-38 12zM221 175q3 -19 3.5 -25.5t2.5 -11.5q7 -31 25.5 -56t49.5 -38.5t74.5 -12t99.5 23.5l11 -18q-19 -11 -43.5 -22t-63.5 -19
q-54 -12 -102.5 -6.5t-87.5 24t-66 48t-39 66.5q-5 14 -8 32t-4 41l-1 26q-2 60 12 104.5t43.5 74t72 44t97.5 14.5t93 -12t61.5 -35t34 -57t12.5 -78zM364 511l-212 145l44 52h68l126 -159z" />
    <glyph glyph-name="ecircumflex" unicode="&#xea;" horiz-adv-x="471" 
d="M295 435q-17 0 -29 -8.5t-20 -22t-13 -30t-8 -33.5q-2 -14 -3.5 -47t-1.5 -79l146 64q-4 45 -9 74.5t-7 37.5q-7 20 -17 32t-38 12zM221 175q3 -19 3.5 -25.5t2.5 -11.5q7 -31 25.5 -56t49.5 -38.5t74.5 -12t99.5 23.5l11 -18q-19 -11 -43.5 -22t-63.5 -19
q-54 -12 -102.5 -6.5t-87.5 24t-66 48t-39 66.5q-5 14 -8 32t-4 41l-1 26q-2 60 12 104.5t43.5 74t72 44t97.5 14.5t93 -12t61.5 -35t34 -57t12.5 -78zM129 538l112 171h94l113 -171l-41 -22l-119 112l-121 -111z" />
    <glyph glyph-name="edieresis" unicode="&#xeb;" horiz-adv-x="471" 
d="M295 435q-17 0 -29 -8.5t-20 -22t-13 -30t-8 -33.5q-2 -14 -3.5 -47t-1.5 -79l146 64q-4 45 -9 74.5t-7 37.5q-7 20 -17 32t-38 12zM221 175q3 -19 3.5 -25.5t2.5 -11.5q7 -31 25.5 -56t49.5 -38.5t74.5 -12t99.5 23.5l11 -18q-19 -11 -43.5 -22t-63.5 -19
q-54 -12 -102.5 -6.5t-87.5 24t-66 48t-39 66.5q-5 14 -8 32t-4 41l-1 26q-2 60 12 104.5t43.5 74t72 44t97.5 14.5t93 -12t61.5 -35t34 -57t12.5 -78zM370 644q25 0 40.5 -16t15.5 -38t-15.5 -38t-40.5 -16q-22 0 -38 16t-16 38t16 38t38 16zM228 644q24 0 40 -16t16 -38
t-16 -38t-40 -16q-22 0 -38 16t-16 38t16 38t38 16z" />
    <glyph glyph-name="iacute" unicode="&#xed;" horiz-adv-x="317" 
d="M279 42l45 -27v-15h-228v15l46 27v77v51t0.5 38t0.5 38v51v77l-54 28v13l189 57zM152 545l127 160h68l44 -52l-210 -143z" />
    <glyph glyph-name="igrave" unicode="&#xec;" horiz-adv-x="317" 
d="M287 42l45 -27v-15h-228v15l46 27v77v51t0.5 38t0.5 38v51v77l-54 28v13l189 57zM252 511l-212 145l44 52h68l126 -159z" />
    <glyph glyph-name="icircumflex" unicode="&#xee;" horiz-adv-x="317" 
d="M287 42l45 -27v-15h-228v15l46 27v77v51t0.5 38t0.5 38v51v77l-54 28v13l189 57zM53 537l112 171h94l113 -171l-41 -22l-119 112l-121 -111z" />
    <glyph glyph-name="idieresis" unicode="&#xef;" horiz-adv-x="317" 
d="M263 42l45 -27v-15h-228v15l46 27v77v51t0.5 38t0.5 38v51v77l-54 28v13l189 57zM264 644q25 0 40.5 -16t15.5 -38t-15.5 -38t-40.5 -16q-22 0 -38 16t-16 38t16 38t38 16zM122 644q24 0 40 -16t16 -38t-16 -38t-40 -16q-22 0 -38 16t-16 38t16 38t38 16z" />
    <glyph glyph-name="ntilde" unicode="&#xf1;" horiz-adv-x="625" 
d="M621 15v-15h-228v15l46 27v293q0 40 -16 56t-40 17.5t-52.5 -7l-53.5 -15.5l1 -344l45 -27v-15h-228v15l46 27v76v49.5t0.5 36.5t0.5 36.5v49.5v76l-54 28v13l189 57v-44q1 1 16.5 8t38 15t48.5 15t49 7q30 0 56.5 -8t47 -24t32 -41.5t11.5 -59.5v-290zM305 645
q28 0 49.5 -6.5t40.5 -13.5q17 -6 31.5 -10.5t20.5 -5.5q1 0 9 -1.5t19.5 0t23 9t19.5 25.5l23 -11q-8 -53 -38 -74t-74 -21q-29 0 -50.5 6t-40.5 14q-17 7 -31 11.5t-21 5.5q-5 1 -13.5 1t-18.5 -3.5t-20 -12t-16 -24.5l-26 7q9 55 38 79.5t75 24.5z" />
    <glyph glyph-name="oacute" unicode="&#xf3;" horiz-adv-x="543" 
d="M568 225q0 -117 -59 -179t-186 -62q-118 0 -178.5 61.5t-60.5 179.5q0 117 60 178.5t183 61.5q241 0 241 -240zM430 231q0 54 -8.5 92.5t-23.5 63t-35 36.5t-42 12q-20 0 -38 -12t-32 -37.5t-22.5 -65.5t-8.5 -95q0 -53 9 -93t24 -66.5t34.5 -40t40.5 -13.5
q43 0 72.5 54.5t29.5 164.5zM226 546l127 160h68l44 -52l-210 -143z" />
    <glyph glyph-name="ograve" unicode="&#xf2;" horiz-adv-x="543" 
d="M568 225q0 -117 -59 -179t-186 -62q-118 0 -178.5 61.5t-60.5 179.5q0 117 60 178.5t183 61.5q241 0 241 -240zM430 231q0 54 -8.5 92.5t-23.5 63t-35 36.5t-42 12q-20 0 -38 -12t-32 -37.5t-22.5 -65.5t-8.5 -95q0 -53 9 -93t24 -66.5t34.5 -40t40.5 -13.5
q43 0 72.5 54.5t29.5 164.5zM389 511l-212 145l44 52h68l126 -159z" />
    <glyph glyph-name="ocircumflex" unicode="&#xf4;" horiz-adv-x="543" 
d="M568 225q0 -117 -59 -179t-186 -62q-118 0 -178.5 61.5t-60.5 179.5q0 117 60 178.5t183 61.5q241 0 241 -240zM430 231q0 54 -8.5 92.5t-23.5 63t-35 36.5t-42 12q-20 0 -38 -12t-32 -37.5t-22.5 -65.5t-8.5 -95q0 -53 9 -93t24 -66.5t34.5 -40t40.5 -13.5
q43 0 72.5 54.5t29.5 164.5zM155 538l112 171h94l113 -171l-41 -22l-119 112l-121 -111z" />
    <glyph glyph-name="odieresis" unicode="&#xf6;" horiz-adv-x="543" 
d="M568 225q0 -117 -59 -179t-186 -62q-118 0 -178.5 61.5t-60.5 179.5q0 117 60 178.5t183 61.5q241 0 241 -240zM430 231q0 54 -8.5 92.5t-23.5 63t-35 36.5t-42 12q-20 0 -38 -12t-32 -37.5t-22.5 -65.5t-8.5 -95q0 -53 9 -93t24 -66.5t34.5 -40t40.5 -13.5
q43 0 72.5 54.5t29.5 164.5zM395 644q25 0 40.5 -16t15.5 -38t-15.5 -38t-40.5 -16q-22 0 -38 16t-16 38t16 38t38 16zM253 644q24 0 40 -16t16 -38t-16 -38t-40 -16q-22 0 -38 16t-16 38t16 38t38 16z" />
    <glyph glyph-name="otilde" unicode="&#xf5;" horiz-adv-x="543" 
d="M568 225q0 -117 -59 -179t-186 -62q-118 0 -178.5 61.5t-60.5 179.5q0 117 60 178.5t183 61.5q241 0 241 -240zM430 231q0 54 -8.5 92.5t-23.5 63t-35 36.5t-42 12q-20 0 -38 -12t-32 -37.5t-22.5 -65.5t-8.5 -95q0 -53 9 -93t24 -66.5t34.5 -40t40.5 -13.5
q43 0 72.5 54.5t29.5 164.5zM260 645q28 0 49.5 -6.5t40.5 -13.5q17 -6 31.5 -10.5t20.5 -5.5q1 0 9 -1.5t19.5 0t23 9t19.5 25.5l23 -11q-8 -53 -38 -74t-74 -21q-29 0 -50.5 6t-40.5 14q-17 7 -31 11.5t-21 5.5q-5 1 -13.5 1t-18.5 -3.5t-20 -12t-16 -24.5l-26 7
q9 55 38 79.5t75 24.5z" />
    <glyph glyph-name="uacute" unicode="&#xfa;" 
d="M259 129q0 -40 14.5 -56t36.5 -17.5t48.5 6.5l51.5 16l-1 298l-54 28v13l191 57l-1 -431l54 -28v-15h-189v44q-2 -1 -17.5 -8t-37.5 -15.5t-45.5 -15t-40.5 -6.5q-30 0 -56.5 8t-47 24t-32 41t-11.5 60v244l-54 28v13l191 57v-345zM294 546l127 160h68l44 -52l-210 -143z
" />
    <glyph glyph-name="ugrave" unicode="&#xf9;" 
d="M259 129q0 -40 14.5 -56t36.5 -17.5t48.5 6.5l51.5 16l-1 298l-54 28v13l191 57l-1 -431l54 -28v-15h-189v44q-2 -1 -17.5 -8t-37.5 -15.5t-45.5 -15t-40.5 -6.5q-30 0 -56.5 8t-47 24t-32 41t-11.5 60v244l-54 28v13l191 57v-345zM354 510l-212 145l44 52h68l126 -159z
" />
    <glyph glyph-name="ucircumflex" unicode="&#xfb;" 
d="M259 129q0 -40 14.5 -56t36.5 -17.5t48.5 6.5l51.5 16l-1 298l-54 28v13l191 57l-1 -431l54 -28v-15h-189v44q-2 -1 -17.5 -8t-37.5 -15.5t-45.5 -15t-40.5 -6.5q-30 0 -56.5 8t-47 24t-32 41t-11.5 60v244l-54 28v13l191 57v-345zM172 538l112 171h94l113 -171l-41 -22
l-119 112l-121 -111z" />
    <glyph glyph-name="udieresis" unicode="&#xfc;" 
d="M259 129q0 -40 14.5 -56t36.5 -17.5t48.5 6.5l51.5 16l-1 298l-54 28v13l191 57l-1 -431l54 -28v-15h-189v44q-2 -1 -17.5 -8t-37.5 -15.5t-45.5 -15t-40.5 -6.5q-30 0 -56.5 8t-47 24t-32 41t-11.5 60v244l-54 28v13l191 57v-345zM416 644q25 0 40.5 -16t15.5 -38
t-15.5 -38t-40.5 -16q-22 0 -38 16t-16 38t16 38t38 16zM274 644q24 0 40 -16t16 -38t-16 -38t-40 -16q-22 0 -38 16t-16 38t16 38t38 16z" />
    <glyph glyph-name="dagger" unicode="&#x2020;" horiz-adv-x="536" 
d="M402 386l-37 -486h-82l-35 485l32 79q-24 -3 -50.5 -6t-53 -6.5l-51.5 -6.5t-46 -5v82l199 -20l-20 196h135l-23 -196q24 2 50 5t52.5 5.5l51.5 5l46 4.5v-82l-201 24z" />
    <glyph glyph-name="degree" unicode="&#xb0;" horiz-adv-x="231" 
d="M165 575q0 15 -6.5 22.5t-15.5 7.5q-8 0 -14 -7.5t-6 -23.5q0 -15 7 -22.5t15 -7.5q20 0 20 31zM144 639q27 0 46.5 -19.5t19.5 -46.5q0 -26 -19.5 -45.5t-46.5 -19.5q-26 0 -45.5 19.5t-19.5 45.5q0 27 19.5 46.5t45.5 19.5z" />
    <glyph glyph-name="cent" unicode="&#xa2;" horiz-adv-x="492" 
d="M311 0v639h72v-639h-72zM515 127q-15 -13 -37 -22t-46.5 -15t-50.5 -9t-49 -3q-67 0 -115 16.5t-78.5 47.5t-44.5 75t-14 99q0 57 16 98.5t44.5 70t68.5 44.5t87 22q8 1 17 1.5t24 0.5q24 0 44 -1.5t38.5 -4.5t38.5 -7t45 -10l13 -93h-59l-41 78q-7 3 -26 6.5t-48 2.5
q-41 -1 -60.5 -14.5t-35.5 -48.5q-11 -23 -15.5 -62t-3.5 -89q2 -77 16.5 -119.5t48.5 -60.5q12 -8 29.5 -12.5t36 -5.5t35 1t27.5 8l19 28.5l19 28.5h71z" />
    <glyph glyph-name="sterling" unicode="&#xa3;" horiz-adv-x="662" 
d="M110 345h59q4 64 28 121t69 103q38 38 90 57.5t113 19.5q44 0 89.5 -13t90.5 -42l12 -87h-77l-36 69q-11 20 -29.5 30t-44.5 11q-41 1 -68.5 -26t-44 -68t-24 -88.5t-8.5 -86.5h123l-31 -45h-92v-173q0 -6 -3.5 -16.5t-9 -22.5t-13.5 -24.5t-17 -21.5h258q14 20 27 41.5
t27 41.5h76l-22 -125l-546 -1v16l63 26v259h-86z" />
    <glyph glyph-name="section" unicode="&#xa7;" horiz-adv-x="598" 
d="M261 335q-12 -10 -17.5 -23.5t-5.5 -48.5q0 -45 46.5 -80.5t118.5 -53.5q37 30 37 85q0 25 -12.5 46.5t-34 39t-49.5 30.5t-58 21q-5 -2 -10.5 -6t-14.5 -10zM567 241q0 -34 -24.5 -66t-89.5 -67h3q111 -57 111 -127q0 -33 -22.5 -64.5t-63.5 -57.5q-30 -18 -70.5 -28
t-88.5 -10t-99.5 12.5t-108.5 36.5l-13 97h72l48 -98q58 -26 101 -26q49 0 82.5 25.5t33.5 83.5q0 44 -31 76t-89 51q-101 34 -154 73.5t-53 84.5q0 25 11.5 46t30.5 37.5t43 28t48 19.5h-2q-131 62 -131 131q0 62 79 108q55 32 143 32q91 0 188 -44l11 -80h-67l-52 81
q-26 11 -48 16.5t-41 5.5q-41 0 -63.5 -22.5t-22.5 -70.5q0 -82 139 -125q190 -58 190 -159z" />
    <glyph glyph-name="bullet" unicode="&#x2022;" horiz-adv-x="483" 
d="M269 455q59 0 100 -41t41 -100t-41 -100t-99 -41q-59 0 -100 41t-41 100q0 60 40 100q41 41 100 41z" />
    <glyph glyph-name="paragraph" unicode="&#xb6;" horiz-adv-x="579" 
d="M541 575v-763h-95v762h-36v-762h-98v430h12q-51 2 -92 13.5t-67 32.5q-35 29 -54 66.5t-19 82.5q0 87 69 146q56 47 172 47h276v-16z" />
    <glyph glyph-name="germandbls" unicode="&#xdf;" horiz-adv-x="551" 
d="M263 0h-193v15l58 26v377q0 47 15.5 89t45 74t72.5 50.5t98 18.5q43 0 75.5 -13t54.5 -33.5t32.5 -46.5t10.5 -53q0 -36 -34 -84.5t-103 -102.5q46 -30 78 -56.5t52 -50t29 -44.5t10 -41q1 -15 -3 -36.5t-17.5 -41.5t-38.5 -35.5t-66 -18.5q-22 -2 -39 -1t-32.5 4.5
t-31 11t-34.5 18.5l-21 95h48l46 -84q29 -22 47 -15.5t18 58.5q0 22 -8 44t-26 45.5t-48.5 50.5t-75.5 60q30 30 50.5 56t33 50.5t18 49t5.5 51.5q0 24 -4.5 46.5t-13.5 39.5t-22.5 27t-30.5 10q-26 0 -40.5 -28.5t-14.5 -103.5v-478z" />
    <glyph glyph-name="registered" unicode="&#xae;" horiz-adv-x="543" 
d="M345 466q0 32 -8 46.5t-40 14.5h-41v-111h43q26 0 36 11t10 39zM305 540q28 0 46.5 -4.5t29.5 -13t15.5 -21t5.5 -27.5q1 -23 -11.5 -41.5t-45.5 -26.5l56 -94l30 -12v-7h-76l-66 108h-33v-89l30 -13v-6h-114v6l28 13v210l-28 13v5h133v0zM298 639q92 0 159 -67t67 -159
t-67 -159q-66 -66 -159 -66t-159 66t-66 159t66 159q67 67 159 67zM299 616q-82 0 -141 -59q-58 -58 -58 -142q0 -85 58 -143t141 -58t141 58t58 143q0 84 -58 142q-59 59 -141 59z" />
    <glyph glyph-name="copyright" unicode="&#xa9;" horiz-adv-x="772" 
d="M296 318q0 -43 7.5 -77t23.5 -52q17 -20 39 -30t48 -10q31 0 58 6l38 59h42l-12 -72q-3 -1 -23 -4.5t-38 -5.5q-15 -2 -31.5 -3.5t-36.5 -1.5q-51 0 -89.5 12t-61.5 37q-26 28 -40 65.5t-14 76.5q0 104 52.5 152.5t152.5 48.5q20 0 35 -1t27 -3l56 -11l12 -72h-42l-37 59
q-26 6 -48 6q-56 0 -87 -39.5t-31 -138.5v-1v0zM401 638q128 0 220 -92t92 -220q0 -127 -92 -219t-220 -92q-127 0 -219 92t-92 219q0 128 92 220t219 92zM402 606q-113 0 -194 -81q-80 -82 -80 -197q0 -116 80 -197q81 -81 194 -81q114 0 195 81q81 82 81 197
q0 116 -81 197t-195 81z" />
    <glyph glyph-name="trademark" unicode="&#x2122;" horiz-adv-x="652" 
d="M602 410l23 -14v-7h-102v7l23 14v175l-6.5 -14.5l-15.5 -36l-20 -46.5l-20 -46.5l-15 -35.5l-6 -14h-34l-81 203v-185l27 -14v-7h-73v7l27 14v209l-20 12v8h74l78 -194l42 97l15.5 35.5l13.5 31l10 22l4 8.5h79v-7l-23 -14v-208zM203 410l34 -14v-7l-126 1v6l34 14v215
h-45l-23 -35h-27l10 49h227l11 -49h-27l-24 35h-44v-215z" />
    <glyph glyph-name="acute" unicode="&#xb4;" horiz-adv-x="363" 
d="M113 536l127 160h68l44 -52l-210 -143z" />
    <glyph glyph-name="dieresis" unicode="&#xa8;" horiz-adv-x="272" 
d="M235 644q25 0 40.5 -16t15.5 -38t-15.5 -38t-40.5 -16q-22 0 -38 16t-16 38t16 38t38 16zM93 644q24 0 40 -16t16 -38t-16 -38t-40 -16q-22 0 -38 16t-16 38t16 38t38 16z" />
    <glyph glyph-name="notequal" unicode="&#x2260;" horiz-adv-x="661" 
d="M202 0l48 101h-143v84h184l63 133h-247v84h288l52 109h103l-52 -109h168v-84h-209l-63 -133h272v-84h-313l-48 -101h-103z" />
    <glyph glyph-name="Oslash" unicode="&#xd8;" horiz-adv-x="732" 
d="M597 318q0 46 -6 84.5t-16 69.5l-253 -402q26 -29 57.5 -40.5t60.5 -11.5t57 17.5t50.5 54.5t36 93.5t13.5 134.5zM252 318q0 -51 6 -91t17 -72l253 405q-24 29 -52.5 42.5t-57.5 13.5t-58.5 -13.5t-53.5 -47.5t-39 -91.5t-15 -145.5zM95 319q0 87 22 150t64.5 103.5
t104.5 60t141 19.5q78 0 144 -23l17 27h102l-44 -70l15 -14q47 -43 68 -106.5t21 -146.5t-22.5 -145.5t-66.5 -109.5q-40 -42 -101 -62t-133 -20q-41 0 -77.5 5.5t-68.5 16.5l-20 -32h-101l46 73q-54 41 -82.5 108.5t-28.5 165.5z" />
    <glyph glyph-name="infinity" unicode="&#x221e;" horiz-adv-x="872" 
d="M416 259q-33 70 -66.5 106t-72.5 36q-22 0 -39.5 -11.5t-30 -31t-19.5 -45.5t-7 -55t6 -55t18.5 -45.5t31 -31t42.5 -11.5q66 0 137 144zM707 398q-34 0 -67.5 -35t-72.5 -108h1q37 -72 70.5 -107t69.5 -35q22 0 40.5 11.5t31.5 31t20.5 45.5t7.5 55q0 30 -7.5 56t-21 45
t-32 30t-40.5 11zM911 255q0 -39 -15 -74.5t-43.5 -62.5t-68.5 -42.5t-90 -15.5q-59 0 -112 23t-95 73q-35 -45 -85 -69.5t-107 -24.5q-49 0 -89 14t-69 39.5t-45 62t-16 81.5q0 41 15.5 76.5t44 62t69 41.5t90.5 15q56 0 111 -20t96 -73q35 45 81.5 67t112.5 22
q48 0 87.5 -13.5t68 -38.5t44 -61.5t15.5 -81.5z" />
    <glyph glyph-name="plusminus" unicode="&#xb1;" horiz-adv-x="627" 
d="M319 447v192h103v-192h221v-93h-221v-203h-103v203h-222v93h222zM94 0v86h548v-86h-548z" />
    <glyph glyph-name="lessequal" unicode="&#x2264;" horiz-adv-x="634" 
d="M270 413l384 -167v-104l-571 256v30l571 256v-108zM84 15v90h569v-90h-569z" />
    <glyph glyph-name="greaterequal" unicode="&#x2265;" horiz-adv-x="645" 
d="M99 576v108l571 -256v-30l-571 -256v104l384 167zM100 15v90h569v-90h-569z" />
    <glyph glyph-name="yen" unicode="&#xa5;" horiz-adv-x="709" 
d="M470 101v-51l73 -34v-16h-283v16l76 35v50h-214v84h214v49h-214v84h172l-165 267l-83 37v17h283v-16l-64 -36l174 -269h3l155 269l-79 36v16h211v-18l-75 -34l-152 -269h179v-84h-211v-49h211v-84h-211z" />
    <glyph glyph-name="mu" unicode="&#xb5;" 
d="M259 129q0 -40 14.5 -56t36.5 -17.5t48.5 6.5l51.5 16l-1 298l-54 28v13l191 57l-1 -431l54 -28v-15h-189v44q-2 -1 -17.5 -8t-37.5 -15.5t-45.5 -15t-40.5 -6.5h-10v-176h-137v553l-54 28v13l191 57v-345z" />
    <glyph glyph-name="partialdiff" unicode="&#x2202;" horiz-adv-x="524" 
d="M442 317q-10 44 -31 73t-47 29q-35 0 -60 -27.5t-41.5 -68t-24.5 -87t-8 -83.5q0 -56 15.5 -91.5t48.5 -35.5q29 0 52.5 25t42.5 66t32 93t21 107zM556 461q0 -44 -6 -98t-18 -102q-15 -60 -40 -109.5t-59 -85.5t-76.5 -55.5t-92.5 -19.5q-53 0 -88.5 14.5t-57 38.5
t-31 55t-9.5 65q0 42 15 93.5t48 97t84 76t123 30.5q33 0 60.5 -8t49.5 -22v6q0 39 -4 82t-17 75q-11 28 -26 50t-33 34t-39.5 12t-45.5 -16l-41 -73h-72l13 91q78 35 144 32t115 -35.5t76.5 -91.5t27.5 -136z" />
    <glyph glyph-name="summation" unicode="&#x2211;" horiz-adv-x="590" 
d="M85 -169v23l272 366h-1l-257 395v24h493l22 -128h-75l-65 97q-55 0 -104.5 -0.5t-107.5 -0.5l226 -354l-274 -365h277l47 68h76l-22 -125h-507z" />
    <glyph glyph-name="product" unicode="&#x220f;" horiz-adv-x="780" 
d="M77 624v15h735v-17l-54 -35v-706l54 -37v-17h-259v17l55 36v714h-327v-714l54 -37v-17h-257v15l53 38v711z" />
    <glyph glyph-name="pi" unicode="&#x3c0;" horiz-adv-x="656" 
d="M360 454l-28.5 -227l-28.5 -227h-123l56 454h-29l-32 -66h-65l14 99h550l-26 -33h-67v-341q0 -26 3.5 -43.5t13 -25t27 -2.5t45.5 24v-31q-17 -22 -46.5 -33.5t-67.5 -11.5q-125 0 -125 115v349h-71z" />
    <glyph glyph-name="integral" unicode="&#x222b;" horiz-adv-x="425" 
d="M177 -166q5 0 9 5t7 18t4.5 35t1.5 55v612q0 37 1 60.5t5 40t10 28t17 24.5q32 38 116 38q10 0 19.5 -0.5t20 -2.5t23.5 -5.5l30 -8.5l-16 -69q-16 15 -28 23.5t-21 12t-16 4t-11 0.5q-5 0 -9 -5t-7 -18t-4.5 -35t-1.5 -55v-612q0 -37 -1 -60.5t-5 -40t-10.5 -28
t-16.5 -24.5q-32 -38 -116 -38q-21 0 -40 3t-53 14l16 69q16 -15 28 -23.5t21 -12t15.5 -4t11.5 -0.5z" />
    <glyph glyph-name="ordfeminine" unicode="&#xaa;" horiz-adv-x="371" 
d="M205 430q0 -23 2.5 -34t8 -13.5t14.5 1l21 8.5v101q-16 -7 -25.5 -13.5t-14.5 -14.5q-6 -9 -6 -35zM372 370l39 -17v-9h-157q-11 -3 -25 -4t-31 -2q-32 -2 -54 6t-35.5 20.5t-19.5 29t-6 33.5q0 30 12 45t34 24t53 15t69 17v39q0 31 -11.5 44t-30.5 11l-13 -23l-21 -35
h-74l10 65l18 5q8 2 21 4.5t28 4.5t30 3t27 1q41 0 62.5 -4t35.5 -14q39 -29 39 -66v-193z" />
    <glyph glyph-name="ordmasculine" unicode="&#xba;" horiz-adv-x="369" 
d="M411 492q0 -76 -41.5 -116.5t-128.5 -40.5q-84 0 -125.5 40.5t-41.5 116.5q0 75 42 115.5t127 40.5q168 0 168 -156zM284 495q0 63 -14 91.5t-31 28.5q-16 0 -28 -29.5t-12 -94.5q0 -63 14 -94.5t31 -31.5t28.5 32.5t11.5 97.5z" />
    <glyph glyph-name="Omega" unicode="&#x2126;" horiz-adv-x="822" 
d="M419 646q168 0 256.5 -64.5t88.5 -200.5q0 -45 -16.5 -85.5t-45.5 -73t-67.5 -55.5t-83.5 -33l-16 -79h108l45 69h76l-22 -123l-319 -1l23 160q48 5 81 25.5t54 49.5h-1q18 26 26 63t8 98q0 55 -9 97t-29 67q-23 29 -59 45.5t-97 16.5q-60 0 -97 -16.5t-60 -45.5
q-20 -24 -28.5 -67.5t-8.5 -96.5q0 -61 8 -98t26 -63h-1q21 -29 54 -49.5t81 -25.5l23 -160l-319 1l-22 123h76l48 -69h105l-16 78q-45 9 -84 31.5t-67.5 55.5t-45 74.5t-16.5 86.5q0 97 52.5 159.5t148.5 89.5q29 8 64.5 12t77.5 4z" />
    <glyph glyph-name="oslash" unicode="&#xf8;" horiz-adv-x="533" 
d="M429 231q0 17 -1 33.5t-3 30.5l-163 -248q28 -40 65 -40q43 0 72.5 57t29.5 167zM219 225q0 -20 1.5 -38t3.5 -35l164 250q-29 39 -68 39q-40 0 -70.5 -53t-30.5 -163zM110 -22l40 61q-67 62 -67 186q0 117 60 178.5t183 61.5q27 0 50.5 -3.5t44.5 -9.5l14 21h107
l-42 -63q67 -61 67 -185q0 -117 -59 -179t-186 -62q-55 0 -94 13l-12 -19h-106z" />
    <glyph glyph-name="questiondown" unicode="&#xbf;" horiz-adv-x="459" 
d="M327 339q-28 0 -47 18.5t-19 45.5q0 26 19 45t47 19q26 0 45 -19t19 -45q0 -27 -19 -45.5t-45 -18.5zM273 179l14 119h88l16 -148l-94 -19q-17 -3 -28.5 -11.5t-18 -25t-9.5 -43t-3 -65.5q0 -38 5 -62.5t16 -40t27.5 -23t40.5 -10.5q17 -2 34 -1.5t34 3.5l51 100h73
l-13 -112q-45 -13 -88 -21t-91 -8q-241 0 -241 169q0 70 41 119.5t139 77.5z" />
    <glyph glyph-name="exclamdown" unicode="&#xa1;" horiz-adv-x="331" 
d="M220 336q-28 0 -47 18.5t-19 45.5q0 26 19 45t47 19q26 0 45 -19t19 -45q0 -27 -19 -45.5t-45 -18.5zM175 291h93l33 -490h-159z" />
    <glyph glyph-name="logicalnot" unicode="&#xac;" horiz-adv-x="621" 
d="M622 365v-254h-109v205h-409v49h518z" />
    <glyph glyph-name="radical" unicode="&#x221a;" horiz-adv-x="664" 
d="M431 -1h-112l-146 413l-94 30v24h198l103 -292l205 664h103z" />
    <glyph glyph-name="florin" unicode="&#x192;" horiz-adv-x="624" 
d="M565 659q-31 -11 -49.5 -44.5t-24.5 -85.5l-10 -89h108l-31 -35h-81l-47 -421q-4 -33 -11 -60t-18 -49t-27.5 -40.5t-39.5 -34.5q-17 -13 -49 -22t-72 -9q-23 0 -48 5t-53 19l-21 122h75l65 -100q14 14 25.5 47t17.5 84l52 459h-101l26 35h78l6 51q3 30 10.5 53
t19.5 42.5t30 36.5t42 34q32 22 72.5 34t90.5 12q27 0 42 -2t39 -9l21 -125h-75z" />
    <glyph glyph-name="approxequal" unicode="&#x2248;" horiz-adv-x="625" 
d="M255 149q-14 0 -31.5 -22t-43.5 -71l-81 50q27 57 65 82.5t95 25.5q28 0 55.5 -8t69.5 -27q22 -11 36.5 -17l23.5 -10t15 -5t11 -1q14 0 31.5 19.5t46.5 69.5l80 -49q-28 -55 -67.5 -80t-98.5 -25q-19 0 -54 9.5t-97 38.5q-45 20 -56 20zM255 364q-14 0 -31.5 -22
t-43.5 -71l-81 50q27 57 65 82.5t95 25.5q28 0 55.5 -8t69.5 -27q22 -11 36.5 -17l23.5 -10t15 -5t11 -1q14 0 31.5 19.5t46.5 69.5l80 -49q-28 -55 -67.5 -80t-98.5 -25q-19 0 -54 9.5t-97 38.5q-45 20 -56 20z" />
    <glyph glyph-name="Delta" unicode="&#x2206;" horiz-adv-x="748" 
d="M400 545l-179 -489h363zM761 0h-670v19l255 683h155l260 -684v-18z" />
    <glyph glyph-name="guillemotleft" unicode="&#xab;" horiz-adv-x="508" 
d="M234 238l106 -170l-70 -29l-148 199l148 199l70 -29zM382 238l106 -170l-70 -29l-148 199l148 199l70 -29z" />
    <glyph glyph-name="guillemotright" unicode="&#xbb;" horiz-adv-x="508" 
d="M225 238l-102 169l70 30l145 -199l-145 -199l-70 30zM373 238l-102 169l70 30l145 -199l-145 -199l-70 30z" />
    <glyph glyph-name="ellipsis" unicode="&#x2026;" horiz-adv-x="609" 
d="M344 116q28 0 47 -18.5t19 -45.5q0 -26 -19 -45t-47 -19q-26 0 -45 19t-19 45q0 27 19 45.5t45 18.5zM517 116q28 0 47 -18.5t19 -45.5q0 -26 -19 -45t-47 -19q-26 0 -45 19t-19 45q0 27 19 45.5t45 18.5zM173 116q28 0 47 -18.5t19 -45.5q0 -26 -19 -45t-47 -19
q-26 0 -45 19t-19 45q0 27 19 45.5t45 18.5z" />
    <glyph glyph-name="Agrave" unicode="&#xc0;" horiz-adv-x="753" 
d="M454 282l-109 264l-108 -264h217zM322 598l-17 41h146l246 -596l44 -27v-15h-235v15l43 27l-80 194h-249l-82 -194l43 -27v-15h-140v15l44 27zM440 700l-212 145l44 52h68l126 -159z" />
    <glyph glyph-name="Atilde" unicode="&#xc3;" horiz-adv-x="753" 
d="M454 282l-109 264l-108 -264h217zM322 598l-17 41h146l246 -596l44 -27v-15h-235v15l43 27l-80 194h-249l-82 -194l43 -27v-15h-140v15l44 27zM336 823q28 0 49.5 -6.5t40.5 -13.5q17 -6 31.5 -10.5t20.5 -5.5q1 0 9 -1.5t19.5 0t23 9t19.5 25.5l23 -11q-8 -53 -38 -74
t-74 -21q-29 0 -50.5 6t-40.5 14q-17 7 -31 11.5t-21 5.5q-5 1 -13.5 1t-18.5 -3.5t-20 -12t-16 -24.5l-26 7q9 55 38 79.5t75 24.5z" />
    <glyph glyph-name="Otilde" unicode="&#xd5;" horiz-adv-x="732" 
d="M96 319q0 87 22 150t64.5 103.5t104.5 60t141 19.5q72 0 133 -19t101 -61q44 -46 66.5 -108t22.5 -145t-22.5 -145.5t-66.5 -109.5q-40 -42 -101 -62t-133 -20q-77 0 -138.5 20t-104.5 61.5t-66 105t-23 150.5zM598 318q0 78 -16 134.5t-41.5 92.5t-57.5 53.5t-64 17.5
q-29 0 -58.5 -13.5t-53.5 -47.5t-39 -91.5t-15 -145.5t17.5 -145.5t44.5 -92t60.5 -48.5t65.5 -14q29 0 57 17.5t50.5 54.5t36 93.5t13.5 134.5zM361 823q28 0 49.5 -6.5t40.5 -13.5q17 -6 31.5 -10.5t20.5 -5.5q1 0 9 -1.5t19.5 0t23 9t19.5 25.5l23 -11q-8 -53 -38 -74
t-74 -21q-29 0 -50.5 6t-40.5 14q-17 7 -31 11.5t-21 5.5q-5 1 -13.5 1t-18.5 -3.5t-20 -12t-16 -24.5l-26 7q9 55 38 79.5t75 24.5z" />
    <glyph glyph-name="endash" unicode="&#x2013;" horiz-adv-x="661" 
d="M59 314h560v-84h-560v84z" />
    <glyph glyph-name="emdash" unicode="&#x2014;" horiz-adv-x="1161" 
d="M59 314h1060v-84h-1060v84z" />
    <glyph glyph-name="quotedblleft" unicode="&#x201c;" horiz-adv-x="410" 
d="M176 439q-45 0 -68.5 24.5t-21.5 55.5q1 19 12.5 40.5t31 41.5t46 38.5t56.5 31.5l12 -23q-27 -18 -41 -44.5t-15 -58.5q31 -4 53 -18t20 -38q-2 -23 -25 -36.5t-58 -13.5h-2zM365 439q-45 0 -68.5 24.5t-21.5 55.5q1 19 12.5 40.5t31 41.5t46 38.5t56.5 31.5l12 -23
q-27 -18 -40.5 -45t-14.5 -58q31 -4 52.5 -18t19.5 -38q-2 -23 -25 -36.5t-58 -13.5h-2z" />
    <glyph glyph-name="quotedblright" unicode="&#x201d;" horiz-adv-x="398" 
d="M173 657q45 0 68.5 -24.5t21.5 -55.5q-1 -19 -12.5 -40.5t-31 -41.5t-46 -38.5t-56.5 -31.5l-12 23q27 17 40.5 44t14.5 59q-32 4 -53 17.5t-19 38.5q2 23 25 36.5t58 13.5h2zM362 657q45 0 68.5 -24.5t21.5 -55.5q-1 -19 -12.5 -40.5t-31 -41.5t-46 -38.5t-56.5 -31.5
l-12 23q27 17 40.5 44t14.5 59q-32 4 -53 17.5t-19 38.5q2 23 25 36.5t58 13.5h2z" />
    <glyph glyph-name="quoteleft" unicode="&#x2018;" horiz-adv-x="213" 
d="M165 439q-45 0 -68.5 24.5t-21.5 55.5q1 19 12.5 40.5t31 41.5t46 38.5t56.5 31.5l12 -23q-27 -18 -40.5 -45t-14.5 -58q31 -4 52.5 -18t19.5 -38q-2 -23 -25 -36.5t-58 -13.5h-2z" />
    <glyph glyph-name="quoteright" unicode="&#x2019;" horiz-adv-x="206" 
d="M158 657q45 0 68.5 -24.5t21.5 -55.5q-1 -19 -12.5 -40.5t-31 -41.5t-46 -38.5t-56.5 -31.5l-12 23q27 17 40.5 44t14.5 59q-32 4 -53 17.5t-19 38.5q2 23 25 36.5t58 13.5h2z" />
    <glyph glyph-name="divide" unicode="&#xf7;" horiz-adv-x="590" 
d="M353 483q28 0 47 -18.5t19 -45.5q0 -26 -19 -45t-47 -19q-26 0 -45 19t-19 45q0 27 19 45.5t45 18.5zM353 147q28 0 47 -18.5t19 -45.5q0 -26 -19 -45t-47 -19q-26 0 -45 19t-19 45q0 27 19 45.5t45 18.5zM615 283v-78h-520v78h520z" />
    <glyph glyph-name="lozenge" unicode="&#x25ca;" horiz-adv-x="558" 
d="M329 532l-132 -212h1l131 -212l130 212h1zM371 0h-86l-203 319l203 320h86l204 -319z" />
    <glyph glyph-name="ydieresis" unicode="&#xff;" horiz-adv-x="548" 
d="M378 0q-10 -25 -16.5 -46l-12.5 -39t-13 -33.5t-19 -28.5q-17 -20 -44 -30.5t-57.5 -12.5t-60.5 3.5t-52 19.5l-14 80h73l33 -66q48 0 68.5 39t25.5 114l-193 416l-44 27v15h234v-15l-45 -27l134 -302l118 302l-48 27v15h145v-15l-46 -27zM431 644q25 0 40.5 -16
t15.5 -38t-15.5 -38t-40.5 -16q-22 0 -38 16t-16 38t16 38t38 16zM289 644q24 0 40 -16t16 -38t-16 -38t-40 -16q-22 0 -38 16t-16 38t16 38t38 16z" />
    <glyph glyph-name="Ydieresis" unicode="&#x178;" horiz-adv-x="656" 
d="M601 587l-79 36v16h208v-18l-75 -34l-184 -326v-211l73 -34v-16h-283v16l76 35v200l-207 334l-83 37v17h283v-16l-64 -36l179 -274zM493 808q25 0 40.5 -16t15.5 -38t-15.5 -38t-40.5 -16q-22 0 -38 16t-16 38t16 38t38 16zM351 808q24 0 40 -16t16 -38t-16 -38t-40 -16
q-22 0 -38 16t-16 38t16 38t38 16z" />
    <glyph glyph-name="fraction" unicode="&#x2044;" horiz-adv-x="428" 
d="M77 -17l298 663h92l-298 -663h-92z" />
    <glyph glyph-name="Euro" unicode="&#x20ac;" horiz-adv-x="662" 
d="M58 403h50q23 128 109.5 188.5t232.5 60.5q35 0 60 -2t45 -5q10 -2 25.5 -4.5t30.5 -5.5l26.5 -5.5t13.5 -2.5l20 -123h-71l-63 101q-45 9 -83 9q-81 0 -132 -48t-64 -163h229l-37 -48h-196q-1 -11 -1 -21.5v-21.5v-2v-23h234l-37 -48h-193q5 -48 17.5 -86.5t32.5 -61.5
q29 -35 66.5 -51t80.5 -16q26 0 51 1.5t48 6.5l65 102h71l-20 -123q-3 -1 -13.5 -3l-25.5 -5t-32 -6t-32 -4q-26 -3 -54 -5t-62 -2q-88 0 -152.5 20t-105.5 62q-32 35 -53.5 78.5t-30.5 92.5h-83l32 48h45q-1 6 -1 12v12v22t1 22h-76z" />
    <glyph glyph-name="guilsinglleft" unicode="&#x2039;" horiz-adv-x="346" 
d="M234 238l106 -170l-70 -29l-148 199l148 199l70 -29z" />
    <glyph glyph-name="guilsinglright" unicode="&#x203a;" horiz-adv-x="352" 
d="M122 408l70 29l148 -199l-148 -199l-70 29l106 170z" />
    <glyph glyph-name="daggerdbl" unicode="&#x2021;" horiz-adv-x="560" 
d="M260 194l36 93l-36 94l30 77q-50 -5 -106 -11.5l-101 -11.5v82l205 -20l-20 202h137l-23 -202l105.5 10.5l100.5 9.5v-82l-206 23l15.5 -38.5l15.5 -38.5l-38 -94l38 -93l-32 -76q50 5 106 11.5l101 11.5v-82l-206 20q5 -51 11.5 -101t11.5 -101h-137l20 202
q-49 -5 -105.5 -10t-99.5 -10v82l206 -23z" />
    <glyph glyph-name="periodcentered" unicode="&#xb7;" horiz-adv-x="152" 
d="M121 398q28 0 47 -18.5t19 -45.5q0 -26 -19 -45t-47 -19q-26 0 -45 19t-19 45q0 27 19 45.5t45 18.5z" />
    <glyph glyph-name="quotesinglbase" unicode="&#x201a;" horiz-adv-x="261" 
d="M189 107q45 0 68.5 -24.5t21.5 -55.5q-1 -19 -12.5 -40.5t-31 -41.5t-46 -38.5t-56.5 -31.5l-12 23q27 18 40.5 44.5t14.5 58.5q-32 4 -53 17.5t-19 38.5q2 23 25 36.5t58 13.5h2z" />
    <glyph glyph-name="quotedblbase" unicode="&#x201e;" horiz-adv-x="415" 
d="M355 107q45 0 68.5 -24.5t21.5 -55.5q-1 -19 -12.5 -40.5t-31 -41.5t-46 -38.5t-56.5 -31.5l-12 23q27 18 41 44.5t15 58.5q-32 4 -53.5 17.5t-19.5 38.5q2 23 25 36.5t58 13.5h2zM166 107q45 0 68.5 -24.5t21.5 -55.5q-1 -19 -12.5 -40.5t-31 -41.5t-46 -38.5
t-56.5 -31.5l-12 23q27 18 40.5 44.5t14.5 58.5q-32 4 -53 17.5t-19 38.5q2 23 25 36.5t58 13.5h2z" />
    <glyph glyph-name="Acircumflex" unicode="&#xc2;" horiz-adv-x="753" 
d="M454 282l-109 264l-108 -264h217zM322 598l-17 41h146l246 -596l44 -27v-15h-235v15l43 27l-80 194h-249l-82 -194l43 -27v-15h-140v15l44 27zM230 723l112 171h94l113 -171l-41 -22l-119 112l-121 -111z" />
    <glyph glyph-name="Ecircumflex" unicode="&#xca;" horiz-adv-x="629" 
d="M91 -1v15l59 37v536l-59 38v14h543l21 -128h-71l-62 92h-165t-58 -1v-255h224l-29 -45h-195v-264h223l61 87h72l-21 -125zM208 726l112 171h94l113 -171l-41 -22l-119 112l-121 -111z" />
    <glyph glyph-name="Aacute" unicode="&#xc1;" horiz-adv-x="753" 
d="M454 282l-109 264l-108 -264h217zM322 598l-17 41h146l246 -596l44 -27v-15h-235v15l43 27l-80 194h-249l-82 -194l43 -27v-15h-140v15l44 27zM304 735l127 160h68l44 -52l-210 -143z" />
    <glyph glyph-name="Edieresis" unicode="&#xcb;" horiz-adv-x="629" 
d="M91 -1v15l59 37v536l-59 38v14h543l21 -128h-71l-62 92h-165t-58 -1v-255h224l-29 -45h-195v-264h223l61 87h72l-21 -125zM440 808q25 0 40.5 -16t15.5 -38t-15.5 -38t-40.5 -16q-22 0 -38 16t-16 38t16 38t38 16zM298 808q24 0 40 -16t16 -38t-16 -38t-40 -16
q-22 0 -38 16t-16 38t16 38t38 16z" />
    <glyph glyph-name="Egrave" unicode="&#xc8;" horiz-adv-x="629" 
d="M91 -1v15l59 37v536l-59 38v14h543l21 -128h-71l-62 92h-165t-58 -1v-255h224l-29 -45h-195v-264h223l61 87h72l-21 -125zM443 700l-212 145l44 52h68l126 -159z" />
    <glyph glyph-name="Iacute" unicode="&#xcd;" horiz-adv-x="355" 
d="M300 53l61 -35v-18h-263v17l60 36v533l-60 36v17h263v-18l-61 -35v-533zM145 735l127 160h68l44 -52l-210 -143z" />
    <glyph glyph-name="Icircumflex" unicode="&#xce;" horiz-adv-x="355" 
d="M322 53l61 -35v-18h-263v17l60 36v533l-60 36v17h263v-18l-61 -35v-533zM80 726l112 171h94l113 -171l-41 -22l-119 112l-121 -111z" />
    <glyph glyph-name="Idieresis" unicode="&#xcf;" horiz-adv-x="364" 
d="M300 53l61 -35v-18h-263v17l60 36v533l-60 36v17h263v-18l-61 -35v-533zM293 827q25 0 40.5 -16t15.5 -38t-15.5 -38t-40.5 -16q-22 0 -38 16t-16 38t16 38t38 16zM151 827q24 0 40 -16t16 -38t-16 -38t-40 -16q-22 0 -38 16t-16 38t16 38t38 16z" />
    <glyph glyph-name="Igrave" unicode="&#xcc;" horiz-adv-x="355" 
d="M306 53l61 -35v-18h-263v17l60 36v533l-60 36v17h263v-18l-61 -35v-533zM273 700l-212 145l44 52h68l126 -159z" />
    <glyph glyph-name="Oacute" unicode="&#xd3;" horiz-adv-x="732" 
d="M96 319q0 87 22 150t64.5 103.5t104.5 60t141 19.5q72 0 133 -19t101 -61q44 -46 66.5 -108t22.5 -145t-22.5 -145.5t-66.5 -109.5q-40 -42 -101 -62t-133 -20q-77 0 -138.5 20t-104.5 61.5t-66 105t-23 150.5zM598 318q0 78 -16 134.5t-41.5 92.5t-57.5 53.5t-64 17.5
q-29 0 -58.5 -13.5t-53.5 -47.5t-39 -91.5t-15 -145.5t17.5 -145.5t44.5 -92t60.5 -48.5t65.5 -14q29 0 57 17.5t50.5 54.5t36 93.5t13.5 134.5zM292 735l127 160h68l44 -52l-210 -143z" />
    <glyph glyph-name="Ocircumflex" unicode="&#xd4;" horiz-adv-x="732" 
d="M244 725l112 171h94l113 -171l-41 -22l-119 112l-121 -111zM97 319q0 87 22 150t64.5 103.5t104.5 60t141 19.5q72 0 133 -19t101 -61q44 -46 66.5 -108t22.5 -145t-22.5 -145.5t-66.5 -109.5q-40 -42 -101 -62t-133 -20q-77 0 -138.5 20t-104.5 61.5t-66 105t-23 150.5z
M599 318q0 78 -16 134.5t-41.5 92.5t-57.5 53.5t-64 17.5q-29 0 -58.5 -13.5t-53.5 -47.5t-39 -91.5t-15 -145.5t17.5 -145.5t44.5 -92t60.5 -48.5t65.5 -14q29 0 57 17.5t50.5 54.5t36 93.5t13.5 134.5z" />
    <glyph glyph-name="apple" unicode="&#xf8ff;" horiz-adv-x="686" 
d="M509 539q89 0 141 -70q-43 -33 -60.5 -64.5t-17.5 -73.5q0 -49 25.5 -87.5t71.5 -57.5q-37 -92 -80.5 -142.5t-85.5 -50.5q-10 0 -20 2.5t-20 6.5l-40 16q-9 4 -21 5t-23.5 0.5t-22 -2t-16.5 -4.5l-42 -17q-19 -8 -37 -8q-55 0 -109 80q-40 58 -61.5 123.5t-21.5 124.5
q0 48 13.5 88t38 68.5t58 44.5t74.5 16q18 0 35 -4t41 -14q31 -12 47 -12t42 10l32.5 11.5t22 7t17.5 3t19 0.5zM364 529q2 72 40 116.5t106 53.5v-10q0 -32 -12 -61t-32 -51t-46.5 -35t-55.5 -13z" />
    <glyph glyph-name="Ograve" unicode="&#xd2;" horiz-adv-x="732" 
d="M489 700l-212 145l44 52h68l126 -159zM97 319q0 87 22 150t64.5 103.5t104.5 60t141 19.5q72 0 133 -19t101 -61q44 -46 66.5 -108t22.5 -145t-22.5 -145.5t-66.5 -109.5q-40 -42 -101 -62t-133 -20q-77 0 -138.5 20t-104.5 61.5t-66 105t-23 150.5zM599 318
q0 78 -16 134.5t-41.5 92.5t-57.5 53.5t-64 17.5q-29 0 -58.5 -13.5t-53.5 -47.5t-39 -91.5t-15 -145.5t17.5 -145.5t44.5 -92t60.5 -48.5t65.5 -14q29 0 57 17.5t50.5 54.5t36 93.5t13.5 134.5z" />
    <glyph glyph-name="Uacute" unicode="&#xda;" horiz-adv-x="710" 
d="M595 586l-82 34v19l213 1v-19l-78 -35v-328q0 -69 -12 -120.5t-39.5 -86.5t-72.5 -52.5t-112 -17.5q-145 0 -212 62t-67 184v359l-66 35v18h284v-18l-71 -35v-345q0 -103 37 -157.5t112 -56.5q38 -1 69 11t52.5 39.5t33 70.5t11.5 104v334zM347 735l127 160h68l44 -52
l-210 -143z" />
    <glyph glyph-name="Ucircumflex" unicode="&#xdb;" horiz-adv-x="710" 
d="M595 586l-82 34v19l213 1v-19l-78 -35v-328q0 -69 -12 -120.5t-39.5 -86.5t-72.5 -52.5t-112 -17.5q-145 0 -212 62t-67 184v359l-66 35v18h284v-18l-71 -35v-345q0 -103 37 -157.5t112 -56.5q38 -1 69 11t52.5 39.5t33 70.5t11.5 104v334zM252 725l112 171h94l113 -171
l-41 -22l-119 112l-121 -111z" />
    <glyph glyph-name="Ugrave" unicode="&#xd9;" horiz-adv-x="710" 
d="M595 586l-82 34v19l213 1v-19l-78 -35v-328q0 -69 -12 -120.5t-39.5 -86.5t-72.5 -52.5t-112 -17.5q-145 0 -212 62t-67 184v359l-66 35v18h284v-18l-71 -35v-345q0 -103 37 -157.5t112 -56.5q38 -1 69 11t52.5 39.5t33 70.5t11.5 104v334zM444 700l-212 145l44 52h68
l126 -159z" />
    <glyph glyph-name="dotlessi" unicode="&#x131;" horiz-adv-x="317" 
d="M279 42l45 -27v-15h-228v15l46 27v77v51t0.5 38t0.5 38v51v77l-54 28v13l189 57z" />
    <glyph glyph-name="circumflex" unicode="&#x2c6;" horiz-adv-x="501" 
d="M137 543l112 171h94l113 -171l-41 -22l-119 112l-121 -111z" />
    <glyph glyph-name="tilde" unicode="&#x2dc;" horiz-adv-x="624" 
d="M298 653q28 0 49.5 -6.5t40.5 -13.5q17 -6 31.5 -10.5t20.5 -5.5q1 0 9 -1.5t19.5 0t23 9t19.5 25.5l23 -11q-8 -53 -38 -74t-74 -21q-29 0 -50.5 6t-40.5 14q-17 7 -31 11.5t-21 5.5q-5 1 -13.5 1t-18.5 -3.5t-20 -12t-16 -24.5l-26 7q9 55 38 79.5t75 24.5z" />
    <glyph glyph-name="macron" unicode="&#xaf;" horiz-adv-x="429" 
d="M76 587v60h318v-60h-318z" />
    <glyph glyph-name="breve" unicode="&#x2d8;" horiz-adv-x="418" 
d="M270 557q-43 0 -86.5 27.5t-86.5 77.5l32 26l13 -8q22 -14 39 -23t31.5 -14.5t28 -8t28.5 -2.5q32 0 65 13t78 43l31 -25q-40 -48 -85 -77t-88 -29z" />
    <glyph glyph-name="dotaccent" unicode="&#x2d9;" horiz-adv-x="888" 
d="M479 832q29 0 49 -19.5t20 -48.5q0 -27 -20 -46.5t-49 -19.5q-28 0 -48 19.5t-20 46.5q0 29 20 48.5t48 19.5z" />
    <glyph glyph-name="ring" unicode="&#x2da;" horiz-adv-x="376" 
d="M243 665q0 33 -9.5 49t-21.5 16q-11 0 -20.5 -16t-9.5 -50q0 -33 10 -48.5t21 -15.5q14 0 22 15.5t8 49.5zM212 748q35 0 60 -25t25 -60q0 -17 -6.5 -32t-18 -26.5t-27 -18.5t-33.5 -7q-34 0 -59 25t-25 59q0 18 7 33.5t18.5 27t26.5 18t32 6.5z" />
    <glyph glyph-name="cedilla" unicode="&#xb8;" horiz-adv-x="288" 
d="M187 -40q24 -4 46 -10t37.5 -15t23 -23t2.5 -33q-7 -28 -39.5 -42.5t-78.5 -13.5q-66 2 -103 29l16 24q11 -5 27.5 -11t36.5 -6t31 5.5t11 18.5q0 21 -19.5 29.5t-53.5 19.5l47 68h44z" />
    <glyph glyph-name="hungarumlaut" unicode="&#x2dd;" horiz-adv-x="437" 
d="M294 551l96 121h62l37 -43l-165 -114zM114 551l96 121h62l37 -43l-165 -114z" />
    <glyph glyph-name="ogonek" unicode="&#x2db;" horiz-adv-x="347" 
d="M284 -227q-11 -8 -28.5 -13t-43.5 -5q-22 0 -45 6t-41.5 17t-30 28t-11.5 40q0 39 22 67.5t48 48.5q31 23 70 39h39q-83 -72 -83 -135q0 -28 16 -43.5t48 -15.5q13 0 22.5 3t16.5 8z" />
    <glyph glyph-name="caron" unicode="&#x2c7;" horiz-adv-x="572" 
d="M467 870l-112 -171h-94l-114 171l41 23l120 -113l121 111z" />
    <glyph glyph-name="zero.001" horiz-adv-x="567" 
d="M452 322q0 85 -14 149l-161 -394q17 -32 36.5 -45t38.5 -13q18 0 36 19t32.5 57t23 94.5t8.5 132.5zM234 322q0 -50 3.5 -89t10.5 -71l162 396q-16 32 -35 47.5t-38 15.5q-18 0 -36.5 -15t-33.5 -50t-24 -92.5t-9 -141.5zM80 321q1 171 70.5 250t197.5 79q56 0 103 -19.5
t81.5 -60t53.5 -102.5t19 -147q0 -86 -19.5 -149t-54 -104t-81.5 -61.5t-103 -20.5q-62 0 -111.5 20.5t-84 61.5t-53 104t-18.5 149z" />
    <glyph glyph-name="zero.o" horiz-adv-x="428" 
d="M80 233q0 125 52.5 182.5t147.5 57.5q42 0 77.5 -14t61 -43.5t40 -74.5t14.5 -108q0 -62 -14.5 -108t-40 -76t-61 -45t-77.5 -15q-94 0 -147 60t-53 184zM346 236q0 101 -24 151t-51 50q-11 0 -22 -10t-20 -33.5t-15 -62t-6 -95.5q0 -58 7 -98t18.5 -65t25 -36t26.5 -11
q22 0 41.5 53t19.5 157z" />
    <glyph glyph-name="one.o" horiz-adv-x="293" 
d="M255 413v-360l53 -34v-19h-239v20l54 32v361l-54 32v19h239v-19z" />
    <glyph glyph-name="two.o" horiz-adv-x="438" 
d="M262 432q-12 2 -26.5 1.5t-20.5 -2.5l-45 -86h-75l16 102q43 12 79 18t72 6q78 0 121.5 -28.5t57 -71.5t-1 -94.5t-53.5 -96.5q-8 -10 -26.5 -27l-41 -36l-46.5 -38.5l-44 -35.5h127l46 53h66l-16 -96h-366v18l100 85.5t70 72.5t42.5 72.5t17.5 85.5q1 18 -3 35
t-11.5 30.5t-17.5 22t-21 10.5z" />
    <glyph glyph-name="three.o" horiz-adv-x="567" 
d="M575 8q0 -91 -67 -138.5t-189 -47.5q-51 0 -103.5 7t-99.5 19l-21 108h66l62 -90q43 -13 80 -10t64.5 21.5t43.5 52t16 82.5q0 37 -8 62t-22.5 40t-33.5 21.5t-41 6.5h-21t-24.5 0.5t-24 0.5h-19.5l28 41l60 1q77 2 77 123q0 44 -12 72t-33.5 43t-50 17.5t-61.5 -4.5
l-57 -108h-68l14 117l12 3q28 7 74.5 15.5t94.5 8.5q115 0 175 -38.5t60 -119.5q0 -53 -34 -94t-94 -56q35 -3 61 -14.5t46 -31.5q50 -50 50 -110z" />
    <glyph glyph-name="four.o" 
d="M352 372l-224 -318h224v318zM358 463h135v-409h108l-32 -44h-76v-134l60 -30v-21h-264v19l63 33v133h-294v23z" />
    <glyph glyph-name="five.o" horiz-adv-x="583" 
d="M470 463l34 53h45l-26 -155h-351l-9 -143q35 9 79 12t90 -2t89.5 -18.5t77.5 -36.5t55 -57t21 -79q0 -54 -22 -93.5t-58 -66t-82.5 -41t-96.5 -19t-99 0.5t-90 18l-28 114h75l58 -92q49 -1 86.5 5.5t62.5 25t38 51t13 82.5q0 69 -28.5 106t-74.5 50t-102.5 7t-113.5 -22
l17 300h340z" />
    <glyph glyph-name="six.o" horiz-adv-x="581" 
d="M347 25q45 0 63 39.5t18 126.5q0 78 -17.5 112.5t-56.5 34.5q-52 0 -112 -17q0 -138 24 -217t81 -79zM584 194q0 -98 -60 -152t-175 -54q-123 0 -193 80.5t-70 241.5q0 86 23.5 147.5t61 101t82.5 58.5t87 20t89.5 -5t89.5 -15l23 -126h-77l-59 108q-11 2 -20.5 3
t-16.5 1q-41 0 -65 -25t-36.5 -62t-17.5 -80.5t-7 -79.5q30 10 62.5 15.5t66.5 5.5q99 0 155.5 -45t56.5 -138z" />
    <glyph glyph-name="seven.o" horiz-adv-x="566" 
d="M623 464l-288 -640h-154l344 537h-320l-52 -63h-48l29 166h489z" />
    <glyph glyph-name="eight.o" horiz-adv-x="573" 
d="M310 312q-25 -15 -40.5 -32t-24 -37t-11.5 -43t-3 -49q0 -57 30 -91t83 -34q48 0 79 32.5t31 85.5q0 19 -8 41.5t-22.5 43.5t-34 38.5t-41.5 27.5zM370 379q28 24 39.5 56.5t11.5 68.5q0 52 -20.5 84.5t-55.5 32.5q-38 0 -61.5 -29t-23.5 -74q0 -40 22 -73t60 -52z
M91 152q0 54 44.5 101.5t132.5 79.5l-31 14q-63 29 -89 62.5t-26 78.5q0 37 16 68t45.5 53t71 34.5t92.5 12.5q48 0 87.5 -10.5t67.5 -29t43.5 -45t15.5 -57.5q0 -23 -7 -42.5t-23.5 -38.5t-44.5 -37.5t-70 -39.5l42 -21q71 -35 102 -74t31 -89q0 -42 -18 -76.5t-51.5 -58.5
t-81.5 -37.5t-107 -13.5q-53 0 -97.5 12.5t-76.5 34.5t-50 52.5t-18 66.5z" />
    <glyph glyph-name="nine.o" horiz-adv-x="581" 
d="M340 435q-45 0 -63 -39.5t-18 -126.5q0 -78 17.5 -112.5t56.5 -34.5q52 0 112 17q0 138 -24 217t-81 79zM103 266q0 98 60 152t175 54q123 0 193 -80.5t70 -241.5q0 -86 -23.5 -150t-61 -107t-82.5 -65t-87 -23q-21 0 -46 1t-50.5 4t-50.5 6.5t-46 8.5l-17 104h81l49 -86
q11 -2 27.5 -3t23.5 -1q41 0 65 28t36.5 68.5t17.5 86.5t7 82q-30 -10 -62.5 -15.5t-66.5 -5.5q-99 0 -155.5 45t-56.5 138z" />
    <glyph glyph-name="Amacron" unicode="&#x100;" horiz-adv-x="753" 
d="M454 282l-109 264l-108 -264h217zM322 598l-17 41h146l246 -596l44 -27v-15h-235v15l43 27l-80 194h-249l-82 -194l43 -27v-15h-140v15l44 27zM239 700v60h318v-60h-318z" />
    <glyph glyph-name="Abreve" unicode="&#x102;" horiz-adv-x="753" 
d="M454 282l-109 264l-108 -264h217zM322 598l-17 41h146l246 -596l44 -27v-15h-235v15l43 27l-80 194h-249l-82 -194l43 -27v-15h-140v15l44 27zM404 702q-43 0 -86.5 27.5t-86.5 77.5l32 26l13 -8q22 -14 39 -23t31.5 -14.5t28 -8t28.5 -2.5q32 0 65 13t78 43l31 -25
q-40 -48 -85 -77t-88 -29z" />
    <glyph glyph-name="Aogonek" unicode="&#x104;" horiz-adv-x="753" 
d="M454 282l-109 264l-108 -264h217zM322 598l-17 41h146l246 -596l44 -27v-15h-235v15l43 27l-80 194h-249l-82 -194l43 -27v-15h-140v15l44 27zM761 -227q-11 -8 -28.5 -13t-43.5 -5q-22 0 -45 6t-41.5 17t-30 28t-11.5 40q0 39 22 67.5t48 48.5q31 23 70 39h39
q-83 -72 -83 -135q0 -28 16 -43.5t48 -15.5q13 0 22.5 3t16.5 8z" />
    <glyph glyph-name="Aringacute" unicode="&#x1fa;" horiz-adv-x="763" 
d="M363 853l127 160h68l44 -52l-210 -143zM428 687q0 33 -9.5 49t-21.5 16q-11 0 -20.5 -16t-9.5 -50q0 -33 10 -48.5t21 -15.5q14 0 22 15.5t8 49.5zM463 282l-109 264l-108 -264h217zM397 770q35 0 60 -25t25 -60q0 -31 -19 -53l243 -589l44 -27v-15h-235v15l43 27
l-80 194h-249l-82 -194l43 -27v-15h-140v15l44 27l247 579l-3 4q-25 25 -25 59q0 18 7 33.5t18.5 27t26.5 18t32 6.5z" />
    <glyph glyph-name="AEacute" unicode="&#x1fc;" horiz-adv-x="971" 
d="M447 585l-27 -51l-33.5 -65l-34 -65l-26.5 -51h121v232zM387 -1v17l60 36v260h-140l-132 -261l71 -35v-17h-206v16l79 36l303 588h497l21 -128h-71l-62 89h-165t-58 -1v-246h224l-29 -41h-195v-269h223l61 82h72l-21 -125zM549 735l127 160h68l44 -52l-210 -143z" />
    <glyph glyph-name="Cacute" unicode="&#x106;" horiz-adv-x="646" 
d="M239 310q0 -72 14 -129.5t40 -89.5q29 -35 66.5 -51t80.5 -16q26 0 51 1.5t48 6.5l65 102h71l-20 -123q-3 -1 -13.5 -3l-25.5 -5t-32 -6t-32 -4q-26 -3 -54 -5t-62 -2q-88 0 -152.5 20t-105.5 62q-45 48 -68 111.5t-23 131.5q0 175 90.5 258t258.5 83q35 0 60 -2t45 -5
q10 -2 25.5 -4.5t30.5 -5.5l26.5 -5.5t13.5 -2.5l20 -123h-71l-63 101q-45 9 -83 9q-48 0 -85 -15.5t-63 -51.5t-39.5 -93.5t-13.5 -141.5v-2v0zM309 735l127 160h68l44 -52l-210 -143z" />
    <glyph glyph-name="Cdotaccent" unicode="&#x10a;" horiz-adv-x="646" 
d="M239 310q0 -72 14 -129.5t40 -89.5q29 -35 66.5 -51t80.5 -16q26 0 51 1.5t48 6.5l65 102h71l-20 -123q-3 -1 -13.5 -3l-25.5 -5t-32 -6t-32 -4q-26 -3 -54 -5t-62 -2q-88 0 -152.5 20t-105.5 62q-45 48 -68 111.5t-23 131.5q0 175 90.5 258t258.5 83q35 0 60 -2t45 -5
q10 -2 25.5 -4.5t30.5 -5.5l26.5 -5.5t13.5 -2.5l20 -123h-71l-63 101q-45 9 -83 9q-48 0 -85 -15.5t-63 -51.5t-39.5 -93.5t-13.5 -141.5v-2v0zM411 835q29 0 49 -19.5t20 -48.5q0 -27 -20 -46.5t-49 -19.5q-28 0 -48 19.5t-20 46.5q0 29 20 48.5t48 19.5z" />
    <glyph glyph-name="Ccaron" unicode="&#x10c;" horiz-adv-x="646" 
d="M239 310q0 -72 14 -129.5t40 -89.5q29 -35 66.5 -51t80.5 -16q26 0 51 1.5t48 6.5l65 102h71l-20 -123q-3 -1 -13.5 -3l-25.5 -5t-32 -6t-32 -4q-26 -3 -54 -5t-62 -2q-88 0 -152.5 20t-105.5 62q-45 48 -68 111.5t-23 131.5q0 175 90.5 258t258.5 83q35 0 60 -2t45 -5
q10 -2 25.5 -4.5t30.5 -5.5l26.5 -5.5t13.5 -2.5l20 -123h-71l-63 101q-45 9 -83 9q-48 0 -85 -15.5t-63 -51.5t-39.5 -93.5t-13.5 -141.5v-2v0zM554 872l-112 -171h-94l-114 171l41 23l120 -113l121 111z" />
    <glyph glyph-name="Gbreve" unicode="&#x11e;" horiz-adv-x="706" 
d="M239 310q0 -72 14 -129.5t40 -89.5q29 -35 66.5 -51t80.5 -16q26 0 53 2t50 7v197h1l-76 34v14h282v-13l-60 -35v-197q-33 -11 -66.5 -20.5t-66.5 -16.5q-26 -6 -56.5 -8t-64.5 -2q-88 0 -152.5 20t-105.5 62q-45 48 -68 111.5t-23 131.5q0 175 90.5 258t258.5 83
q35 0 60 -2t45 -5q10 -2 25.5 -4.5t30.5 -5.5l26.5 -5.5t13.5 -2.5l20 -123h-71l-63 101q-45 9 -83 9q-48 0 -85 -15.5t-63 -51.5t-39.5 -93.5t-13.5 -141.5v-2v0zM413 700q-43 0 -86.5 27.5t-86.5 77.5l32 26l13 -8q22 -14 39 -23t31.5 -14.5t28 -8t28.5 -2.5q32 0 65 13
t78 43l31 -25q-40 -48 -85 -77t-88 -29z" />
    <glyph glyph-name="Gdotaccent" unicode="&#x120;" horiz-adv-x="706" 
d="M239 310q0 -72 14 -129.5t40 -89.5q29 -35 66.5 -51t80.5 -16q26 0 53 2t50 7v197h1l-76 34v14h282v-13l-60 -35v-197q-33 -11 -66.5 -20.5t-66.5 -16.5q-26 -6 -56.5 -8t-64.5 -2q-88 0 -152.5 20t-105.5 62q-45 48 -68 111.5t-23 131.5q0 175 90.5 258t258.5 83
q35 0 60 -2t45 -5q10 -2 25.5 -4.5t30.5 -5.5l26.5 -5.5t13.5 -2.5l20 -123h-71l-63 101q-45 9 -83 9q-48 0 -85 -15.5t-63 -51.5t-39.5 -93.5t-13.5 -141.5v-2v0zM416 832q29 0 49 -19.5t20 -48.5q0 -27 -20 -46.5t-49 -19.5q-28 0 -48 19.5t-20 46.5q0 29 20 48.5t48 19.5
z" />
    <glyph glyph-name="Gcommaaccent" unicode="&#x122;" horiz-adv-x="706" 
d="M238 310q0 -72 14 -129.5t40 -89.5q29 -35 66.5 -51t80.5 -16q26 0 53 2t50 7v197h1l-76 34v14h282v-13l-60 -35v-197q-33 -11 -66.5 -20.5t-66.5 -16.5q-26 -6 -56.5 -8t-64.5 -2q-88 0 -152.5 20t-105.5 62q-45 48 -68 111.5t-23 131.5q0 175 90.5 258t258.5 83
q35 0 60 -2t45 -5q10 -2 25.5 -4.5t30.5 -5.5l26.5 -5.5t13.5 -2.5l20 -123h-71l-63 101q-45 9 -83 9q-48 0 -85 -15.5t-63 -51.5t-39.5 -93.5t-13.5 -141.5v-2v0zM311 -239l52 192l110 -57l-113 -164z" />
    <glyph glyph-name="Omacron" unicode="&#x14c;" horiz-adv-x="732" 
d="M96 319q0 87 22 150t64.5 103.5t104.5 60t141 19.5q72 0 133 -19t101 -61q44 -46 66.5 -108t22.5 -145t-22.5 -145.5t-66.5 -109.5q-40 -42 -101 -62t-133 -20q-77 0 -138.5 20t-104.5 61.5t-66 105t-23 150.5zM598 318q0 78 -16 134.5t-41.5 92.5t-57.5 53.5t-64 17.5
q-29 0 -58.5 -13.5t-53.5 -47.5t-39 -91.5t-15 -145.5t17.5 -145.5t44.5 -92t60.5 -48.5t65.5 -14q29 0 57 17.5t50.5 54.5t36 93.5t13.5 134.5zM249 701v60h318v-60h-318z" />
    <glyph glyph-name="Obreve" unicode="&#x14e;" horiz-adv-x="732" 
d="M96 319q0 87 22 150t64.5 103.5t104.5 60t141 19.5q72 0 133 -19t101 -61q44 -46 66.5 -108t22.5 -145t-22.5 -145.5t-66.5 -109.5q-40 -42 -101 -62t-133 -20q-77 0 -138.5 20t-104.5 61.5t-66 105t-23 150.5zM598 318q0 78 -16 134.5t-41.5 92.5t-57.5 53.5t-64 17.5
q-29 0 -58.5 -13.5t-53.5 -47.5t-39 -91.5t-15 -145.5t17.5 -145.5t44.5 -92t60.5 -48.5t65.5 -14q29 0 57 17.5t50.5 54.5t36 93.5t13.5 134.5zM411 700q-43 0 -86.5 27.5t-86.5 77.5l32 26l13 -8q22 -14 39 -23t31.5 -14.5t28 -8t28.5 -2.5q32 0 65 13t78 43l31 -25
q-40 -48 -85 -77t-88 -29z" />
    <glyph glyph-name="Ohungarumlaut" unicode="&#x150;" horiz-adv-x="732" 
d="M96 319q0 87 22 150t64.5 103.5t104.5 60t141 19.5q72 0 133 -19t101 -61q44 -46 66.5 -108t22.5 -145t-22.5 -145.5t-66.5 -109.5q-40 -42 -101 -62t-133 -20q-77 0 -138.5 20t-104.5 61.5t-66 105t-23 150.5zM598 318q0 78 -16 134.5t-41.5 92.5t-57.5 53.5t-64 17.5
q-29 0 -58.5 -13.5t-53.5 -47.5t-39 -91.5t-15 -145.5t17.5 -145.5t44.5 -92t60.5 -48.5t65.5 -14q29 0 57 17.5t50.5 54.5t36 93.5t13.5 134.5zM482 736l96 121h62l37 -43l-165 -114zM302 736l96 121h62l37 -43l-165 -114z" />
    <glyph glyph-name="Oslashacute" unicode="&#x1fe;" horiz-adv-x="732" 
d="M95 319q0 87 22 150t64.5 103.5t104.5 60t141 19.5q72 0 133 -19t101 -61q44 -46 66.5 -108t22.5 -145t-22.5 -145.5t-66.5 -109.5q-40 -42 -101 -62t-133 -20q-77 0 -138.5 20t-104.5 61.5t-66 105t-23 150.5zM597 318q0 78 -16 134.5t-41.5 92.5t-57.5 53.5t-64 17.5
q-29 0 -58.5 -13.5t-53.5 -47.5t-39 -91.5t-15 -145.5t17.5 -145.5t44.5 -92t60.5 -48.5t65.5 -14q29 0 57 17.5t50.5 54.5t36 93.5t13.5 134.5zM290 735l127 160h68l44 -52l-210 -143zM260 -28h-101l428 684h102z" />
    <glyph glyph-name="Dcaron" unicode="&#x10e;" horiz-adv-x="719" 
d="M580 327q0 70 -18 120.5t-49.5 84t-74 51.5t-92.5 23h-52q0 -59 -0.5 -133t-0.5 -150.5t-0.5 -150.5t-0.5 -133h101q99 0 143 72t44 216zM375 639q81 0 147 -17t112.5 -54.5t72 -97t25.5 -145.5q0 -158 -83.5 -241.5t-254.5 -83.5h-64.5t-65.5 1q-19 0 -46.5 0.5
t-40.5 0.5h-88v15l60 36v537l-60 36v13h286zM541 874l-112 -171h-94l-114 171l41 23l120 -113l121 111z" />
    <glyph glyph-name="Dcroat" unicode="&#x110;" horiz-adv-x="719" 
d="M580 327q0 70 -18 120.5t-49.5 84t-74 51.5t-92.5 23h-52q0 -59 -0.5 -133t-0.5 -150.5t-0.5 -150.5t-0.5 -133h101q99 0 143 72t44 216zM375 639q81 0 147 -17t112.5 -54.5t72 -97t25.5 -145.5q0 -158 -83.5 -241.5t-254.5 -83.5h-64.5t-65.5 1q-19 0 -46.5 0.5
t-40.5 0.5h-88v15l60 36v537l-60 36v13h286zM238 701v60h318v-60h-318z" />
    <glyph glyph-name="Emacron" unicode="&#x112;" horiz-adv-x="629" 
d="M91 -1v15l59 37v536l-59 38v14h543l21 -128h-71l-62 92h-165t-58 -1v-255h224l-29 -45h-195v-264h223l61 87h72l-21 -125zM212 700v60h318v-60h-318z" />
    <glyph glyph-name="Ebreve" unicode="&#x114;" horiz-adv-x="629" 
d="M91 -1v15l59 37v536l-59 38v14h543l21 -128h-71l-62 92h-165t-58 -1v-255h224l-29 -45h-195v-264h223l61 87h72l-21 -125zM377 700q-43 0 -86.5 27.5t-86.5 77.5l32 26l13 -8q22 -14 39 -23t31.5 -14.5t28 -8t28.5 -2.5q32 0 65 13t78 43l31 -25q-40 -48 -85 -77t-88 -29
z" />
    <glyph glyph-name="Edotaccent" unicode="&#x116;" horiz-adv-x="629" 
d="M91 -1v15l59 37v536l-59 38v14h543l21 -128h-71l-62 92h-165t-58 -1v-255h224l-29 -45h-195v-264h223l61 87h72l-21 -125zM371 835q29 0 49 -19.5t20 -48.5q0 -27 -20 -46.5t-49 -19.5q-28 0 -48 19.5t-20 46.5q0 29 20 48.5t48 19.5z" />
    <glyph glyph-name="Eogonek" unicode="&#x118;" horiz-adv-x="629" 
d="M91 -1v15l59 37v536l-59 38v14h543l21 -128h-71l-62 92h-165t-58 -1v-255h224l-29 -45h-195v-264h223l61 87h72l-21 -125zM654 -227q-11 -8 -28.5 -13t-43.5 -5q-22 0 -45 6t-41.5 17t-30 28t-11.5 40q0 39 22 67.5t48 48.5q31 23 70 39h39q-83 -72 -83 -135
q0 -28 16 -43.5t48 -15.5q13 0 22.5 3t16.5 8z" />
    <glyph glyph-name="Ecaron" unicode="&#x11a;" horiz-adv-x="629" 
d="M91 -1v15l59 37v536l-59 38v14h543l21 -128h-71l-62 92h-165t-58 -1v-255h224l-29 -45h-195v-264h223l61 87h72l-21 -125zM523 874l-112 -171h-94l-114 171l41 23l120 -113l121 111z" />
    <glyph glyph-name="Kcommaaccent" unicode="&#x136;" horiz-adv-x="724" 
d="M277 317l263 269l-90 36v17h245v-18l-95 -36l-188 -201l247 -333l82 -36v-16h-197l-218 295l-49 -52v-191l61 -35v-18h-264v17l60 36v535l-60 36v17h264v-18l-61 -35v-269zM311 -239l52 192l110 -57l-113 -164z" />
    <glyph glyph-name="Lacute" unicode="&#x139;" horiz-adv-x="607" 
d="M292 41h199l69 91h72l-25 -131l-255 -1h-263v17l60 36v535l-60 36v17h263v-18l-60 -35v-547zM162 735l127 160h68l44 -52l-210 -143z" />
    <glyph glyph-name="Lcommaaccent" unicode="&#x13b;" horiz-adv-x="607" 
d="M291 41h199l69 91h72l-25 -131l-255 -1h-263v17l60 36v535l-60 36v17h263v-18l-60 -35v-547zM270 -239l52 192l111 -57l-114 -164z" />
    <glyph glyph-name="Lcaron" unicode="&#x13d;" horiz-adv-x="607" 
d="M292 41h199l69 91h72l-25 -131l-255 -1h-263v17l60 36v535l-60 36v17h263v-18l-60 -35v-547zM502 645q45 0 68.5 -24.5t21.5 -55.5q-1 -19 -12.5 -40.5t-31 -41.5t-46 -38.5t-56.5 -31.5l-12 23q27 17 40.5 44t14.5 59q-32 4 -53 17.5t-19 38.5q2 23 25 36.5t58 13.5h2z
" />
    <glyph glyph-name="Racute" unicode="&#x154;" horiz-adv-x="682" 
d="M515 446q0 41 -4 71t-17 49.5t-37.5 28.5t-65.5 9h-107v-287h110q67 0 94 28.5t27 100.5zM411 638q73 0 121 -12t76.5 -34t40.5 -53.5t13 -71.5q1 -30 -5.5 -57.5t-24 -50t-46 -40t-71.5 -27.5l146 -241l77 -33v-18h-197l-169 278h-88v-227l77 -34v-17h-294v17l72 33v542
l-72 33v13h344v0zM250 736l127 160h68l44 -52l-210 -143z" />
    <glyph glyph-name="Rcommaaccent" unicode="&#x156;" horiz-adv-x="682" 
d="M514 446q0 41 -4 71t-17 49.5t-37.5 28.5t-65.5 9h-107v-287h110q67 0 94 28.5t27 100.5zM410 638q73 0 121 -12t76.5 -34t40.5 -53.5t13 -71.5q1 -30 -5.5 -57.5t-24 -50t-46 -40t-71.5 -27.5l146 -241l77 -33v-18h-197l-169 278h-88v-227l77 -34v-17h-294v17l72 33v542
l-72 33v13h344v0zM311 -239l52 192l110 -57l-113 -164z" />
    <glyph glyph-name="Rcaron" unicode="&#x158;" horiz-adv-x="682" 
d="M515 446q0 41 -4 71t-17 49.5t-37.5 28.5t-65.5 9h-107v-287h110q67 0 94 28.5t27 100.5zM411 638q73 0 121 -12t76.5 -34t40.5 -53.5t13 -71.5q1 -30 -5.5 -57.5t-24 -50t-46 -40t-71.5 -27.5l146 -241l77 -33v-18h-197l-169 278h-88v-227l77 -34v-17h-294v17l72 33v542
l-72 33v13h344v0zM494 872l-112 -171h-94l-114 171l41 23l120 -113l121 111z" />
    <glyph glyph-name="Sacute" unicode="&#x15a;" horiz-adv-x="611" 
d="M619 174q0 -42 -24.5 -78.5t-69.5 -66.5q-34 -22 -79 -33.5t-98 -11.5q-106 0 -232 57l-14 117h71l54 -117q34 -7 78.5 -12.5t84.5 0.5t67.5 27.5t27.5 68.5q0 51 -36 81t-105 54q-55 19 -98 38t-72.5 43.5t-45 57.5t-15.5 82q0 74 88 129q62 38 159 38q100 0 207 -51
l13 -97h-66l-57 95q-32 11 -56 13.5t-47 2.5t-43 -5t-34.5 -16t-22.5 -30.5t-8 -47.5q0 -47 42 -82t119 -67q102 -42 157 -85.5t55 -103.5zM234 736l127 160h68l44 -52l-210 -143z" />
    <glyph glyph-name="Scedilla" unicode="&#x15e;" horiz-adv-x="611" 
d="M619 174q0 -42 -24.5 -78.5t-69.5 -66.5q-34 -22 -79 -33.5t-98 -11.5q-106 0 -232 57l-14 117h71l54 -117q34 -7 78.5 -12.5t84.5 0.5t67.5 27.5t27.5 68.5q0 51 -36 81t-105 54q-55 19 -98 38t-72.5 43.5t-45 57.5t-15.5 82q0 74 88 129q62 38 159 38q100 0 207 -51
l13 -97h-66l-57 95q-32 11 -56 13.5t-47 2.5t-43 -5t-34.5 -16t-22.5 -30.5t-8 -47.5q0 -47 42 -82t119 -67q102 -42 157 -85.5t55 -103.5zM354 -40q24 -4 46 -10t37.5 -15t23 -23t2.5 -33q-7 -28 -39.5 -42.5t-78.5 -13.5q-66 2 -103 29l16 24q11 -5 27.5 -11t36.5 -6
t31 5.5t11 18.5q0 21 -19.5 29.5t-53.5 19.5l47 68h44z" />
    <glyph glyph-name="Scommaaccent" unicode="&#x218;" horiz-adv-x="611" 
d="M618 174q0 -42 -24.5 -78.5t-69.5 -66.5q-34 -22 -79 -33.5t-98 -11.5q-106 0 -232 57l-14 117h71l54 -117q34 -7 78.5 -12.5t84.5 0.5t67.5 27.5t27.5 68.5q0 51 -36 81t-105 54q-55 19 -98 38t-72.5 43.5t-45 57.5t-15.5 82q0 74 88 129q62 38 159 38q100 0 207 -51
l13 -97h-66l-57 95q-32 11 -56 13.5t-47 2.5t-43 -5t-34.5 -16t-22.5 -30.5t-8 -47.5q0 -47 42 -82t119 -67q102 -42 157 -85.5t55 -103.5zM267 -239l52 192l111 -57l-113 -164z" />
    <glyph glyph-name="germandbls.case" horiz-adv-x="915" 
d="M951 130q0 -36 -20.5 -63t-52 -45t-69.5 -27t-73 -9q-49 0 -94.5 13t-87.5 35l-8 79h72l41 -74q24 -15 52.5 -19t54 2t42.5 21t17 38q0 25 -7 40.5t-19.5 25t-29.5 15.5t-37 11q-86 22 -133 60t-47 104q0 34 20 59t51 41t68 23.5t70 7.5q87 0 164 -37l10 -80h-71l-43 72
q-20 10 -45 14.5t-47 -1.5t-37 -24t-15 -52t25.5 -55t75.5 -38l63 -22.5t55.5 -27t39.5 -36.5t15 -51zM497 130q0 -36 -20.5 -63t-52 -45t-69.5 -27t-73 -9q-49 0 -94.5 13t-87.5 35l-8 79h72l41 -74q24 -15 52.5 -19t54 2t42.5 21t17 38q0 25 -7 40.5t-19.5 25t-29.5 15.5
t-37 11q-86 22 -133 60t-47 104q0 34 20 59t51 41t68 23.5t70 7.5q87 0 164 -37l10 -80h-71l-43 72q-20 10 -45 14.5t-47 -1.5t-37 -24t-15 -52t25.5 -55t75.5 -38l63 -22.5t55.5 -27t39.5 -36.5t15 -51z" />
    <glyph glyph-name="Tcommaaccent" unicode="&#x162;" horiz-adv-x="667" 
d="M460 51l87 -35v-17l-324 1v16l87 36v552h-114l-60 -90h-69l26 125h583l26 -125h-69l-60 90h-114zM284 -239l52 192l110 -57l-113 -164z" />
    <glyph glyph-name="Tcaron" unicode="&#x164;" horiz-adv-x="667" 
d="M461 51l87 -35v-17l-324 1v16l87 36v552h-114l-60 -90h-69l26 125h583l26 -125h-69l-60 90h-114zM524 872l-112 -171h-94l-114 171l41 23l120 -113l121 111z" />
    <glyph glyph-name="Umacron" unicode="&#x16a;" horiz-adv-x="710" 
d="M595 586l-82 34v19l213 1v-19l-78 -35v-328q0 -69 -12 -120.5t-39.5 -86.5t-72.5 -52.5t-112 -17.5q-145 0 -212 62t-67 184v359l-66 35v18h284v-18l-71 -35v-345q0 -103 37 -157.5t112 -56.5q38 -1 69 11t52.5 39.5t33 70.5t11.5 104v334zM252 701v60h318v-60h-318z" />
    <glyph glyph-name="Ubreve" unicode="&#x16c;" horiz-adv-x="710" 
d="M595 586l-82 34v19l213 1v-19l-78 -35v-328q0 -69 -12 -120.5t-39.5 -86.5t-72.5 -52.5t-112 -17.5q-145 0 -212 62t-67 184v359l-66 35v18h284v-18l-71 -35v-345q0 -103 37 -157.5t112 -56.5q38 -1 69 11t52.5 39.5t33 70.5t11.5 104v334zM421 700q-43 0 -86.5 27.5
t-86.5 77.5l32 26l13 -8q22 -14 39 -23t31.5 -14.5t28 -8t28.5 -2.5q32 0 65 13t78 43l31 -25q-40 -48 -85 -77t-88 -29z" />
    <glyph glyph-name="Uring" unicode="&#x16e;" horiz-adv-x="710" 
d="M595 586l-82 34v19l213 1v-19l-78 -35v-328q0 -69 -12 -120.5t-39.5 -86.5t-72.5 -52.5t-112 -17.5q-145 0 -212 62t-67 184v359l-66 35v18h284v-18l-71 -35v-345q0 -103 37 -157.5t112 -56.5q38 -1 69 11t52.5 39.5t33 70.5t11.5 104v334zM427 786q0 33 -9.5 49
t-21.5 16q-11 0 -20.5 -16t-9.5 -50q0 -33 10 -48.5t21 -15.5q14 0 22 15.5t8 49.5zM396 869q35 0 60 -25t25 -60q0 -17 -6.5 -32t-18 -26.5t-27 -18.5t-33.5 -7q-34 0 -59 25t-25 59q0 18 7 33.5t18.5 27t26.5 18t32 6.5z" />
    <glyph glyph-name="Uhungarumlaut" unicode="&#x170;" horiz-adv-x="710" 
d="M595 586l-82 34v19l213 1v-19l-78 -35v-328q0 -69 -12 -120.5t-39.5 -86.5t-72.5 -52.5t-112 -17.5q-145 0 -212 62t-67 184v359l-66 35v18h284v-18l-71 -35v-345q0 -103 37 -157.5t112 -56.5q38 -1 69 11t52.5 39.5t33 70.5t11.5 104v334zM486 737l96 121h62l37 -43
l-165 -114zM306 737l96 121h62l37 -43l-165 -114z" />
    <glyph glyph-name="Uogonek" unicode="&#x172;" horiz-adv-x="710" 
d="M595 586l-82 34v19l213 1v-19l-78 -35v-328q0 -69 -12 -120.5t-39.5 -86.5t-72.5 -52.5t-112 -17.5q-145 0 -212 62t-67 184v359l-66 35v18h284v-18l-71 -35v-345q0 -103 37 -157.5t112 -56.5q38 -1 69 11t52.5 39.5t33 70.5t11.5 104v334zM485 -227q-11 -8 -28.5 -13
t-43.5 -5q-22 0 -45 6t-41.5 17t-30 28t-11.5 40q0 39 22 67.5t48 48.5q31 23 70 39h39q-83 -72 -83 -135q0 -28 16 -43.5t48 -15.5q13 0 22.5 3t16.5 8z" />
    <glyph glyph-name="Wcircumflex" unicode="&#x174;" horiz-adv-x="1035" 
d="M684 0l-95 326l-10 -24l-26 -60.5l-35 -78.5l-35 -78.5l-26.5 -60.5l-10.5 -24h-87l-222 586l-78 33v20h273v-20l-54 -33l172 -457l119 271l-79 241h133l149 -500l182 445l-68 33v20h183v-20l-66 -32l-114.5 -294l-114.5 -293h-90zM409 723l112 171h94l113 -171l-41 -22
l-119 112l-121 -111z" />
    <glyph glyph-name="Wgrave" unicode="&#x1e80;" horiz-adv-x="1035" 
d="M684 0l-95 326l-10 -24l-26 -60.5l-35 -78.5l-35 -78.5l-26.5 -60.5l-10.5 -24h-87l-222 586l-78 33v20h273v-20l-54 -33l172 -457l119 271l-79 241h133l149 -500l182 445l-68 33v20h183v-20l-66 -32l-114.5 -294l-114.5 -293h-90zM585 701l-212 145l44 52h68l126 -159z
" />
    <glyph glyph-name="Wacute" unicode="&#x1e82;" horiz-adv-x="1035" 
d="M684 0l-95 326l-10 -24l-26 -60.5l-35 -78.5l-35 -78.5l-26.5 -60.5l-10.5 -24h-87l-222 586l-78 33v20h273v-20l-54 -33l172 -457l119 271l-79 241h133l149 -500l182 445l-68 33v20h183v-20l-66 -32l-114.5 -294l-114.5 -293h-90zM521 736l127 160h68l44 -52l-210 -143z
" />
    <glyph glyph-name="Wdieresis" unicode="&#x1e84;" horiz-adv-x="1035" 
d="M684 0l-95 326l-10 -24l-26 -60.5l-35 -78.5l-35 -78.5l-26.5 -60.5l-10.5 -24h-87l-222 586l-78 33v20h273v-20l-54 -33l172 -457l119 271l-79 241h133l149 -500l182 445l-68 33v20h183v-20l-66 -32l-114.5 -294l-114.5 -293h-90zM640 808q25 0 40.5 -16t15.5 -38
t-15.5 -38t-40.5 -16q-22 0 -38 16t-16 38t16 38t38 16zM498 808q24 0 40 -16t16 -38t-16 -38t-40 -16q-22 0 -38 16t-16 38t16 38t38 16z" />
    <glyph glyph-name="Ycircumflex" unicode="&#x176;" horiz-adv-x="656" 
d="M601 587l-79 36v16h208v-18l-75 -34l-184 -326v-211l73 -34v-16h-283v16l76 35v200l-207 334l-83 37v17h283v-16l-64 -36l179 -274zM256 723l112 171h94l113 -171l-41 -22l-119 112l-121 -111z" />
    <glyph glyph-name="Ygrave" unicode="&#x1ef2;" horiz-adv-x="656" 
d="M601 587l-79 36v16h208v-18l-75 -34l-184 -326v-211l73 -34v-16h-283v16l76 35v200l-207 334l-83 37v17h283v-16l-64 -36l179 -274zM430 701l-212 145l44 52h68l126 -159z" />
    <glyph glyph-name="Zacute" unicode="&#x179;" horiz-adv-x="659" 
d="M539 46l71 108h66l-23 -154h-564v4q117 163 213 313l182 281h-232l-71 -87h-62l17 128h519v-5l-106 -159l-97 -150l-91.5 -142.5l-89.5 -136.5h268zM282 735l127 160h68l44 -52l-210 -143z" />
    <glyph glyph-name="Zdotaccent" unicode="&#x17b;" horiz-adv-x="659" 
d="M539 46l71 108h66l-23 -154h-564v4q117 163 213 313l182 281h-232l-71 -87h-62l17 128h519v-5l-106 -159l-97 -150l-91.5 -142.5l-89.5 -136.5h268zM380 832q29 0 49 -19.5t20 -48.5q0 -27 -20 -46.5t-49 -19.5q-28 0 -48 19.5t-20 46.5q0 29 20 48.5t48 19.5z" />
    <glyph glyph-name="amacron" unicode="&#x101;" horiz-adv-x="541" 
d="M357 247q-46 -15 -75.5 -30t-39.5 -29q-14 -20 -14 -60q0 -83 43 -83q24 0 48 7.5t38 16.5v178zM497 42l60 -27v-15h-200v24q-27 -12 -56 -22.5t-63 -10.5q-67 0 -104 23t-42 63q-3 28 0 54.5t15.5 49t37 40t63.5 26.5q11 3 53 12.5t96 25.5v59q0 24 -2.5 39.5t-9.5 25.5
t-20 13.5t-34 3.5q-24 0 -37.5 -3t-18.5 -5l-46 -73h-72l13 94q42 9 83.5 15.5t85.5 6.5q54 0 89 -7t55 -20q54 -35 54 -97v-295zM142 547v60h318v-60h-318z" />
    <glyph glyph-name="abreve" unicode="&#x103;" horiz-adv-x="541" 
d="M357 247q-46 -15 -75.5 -30t-39.5 -29q-14 -20 -14 -60q0 -83 43 -83q24 0 48 7.5t38 16.5v178zM497 42l60 -27v-15h-200v24q-27 -12 -56 -22.5t-63 -10.5q-67 0 -104 23t-42 63q-3 28 0 54.5t15.5 49t37 40t63.5 26.5q11 3 53 12.5t96 25.5v59q0 24 -2.5 39.5t-9.5 25.5
t-20 13.5t-34 3.5q-24 0 -37.5 -3t-18.5 -5l-46 -73h-72l13 94q42 9 83.5 15.5t85.5 6.5q54 0 89 -7t55 -20q54 -35 54 -97v-295zM304 513q-43 0 -86.5 27.5t-86.5 77.5l32 26l13 -8q22 -14 39 -23t31.5 -14.5t28 -8t28.5 -2.5q32 0 65 13t78 43l31 -25q-40 -48 -85 -77
t-88 -29z" />
    <glyph glyph-name="aogonek" unicode="&#x105;" horiz-adv-x="541" 
d="M357 247q-46 -15 -75.5 -30t-39.5 -29q-14 -20 -14 -60q0 -83 43 -83q24 0 48 7.5t38 16.5v178zM497 42l60 -27v-15h-200v24q-27 -12 -56 -22.5t-63 -10.5q-67 0 -104 23t-42 63q-3 28 0 54.5t15.5 49t37 40t63.5 26.5q11 3 53 12.5t96 25.5v59q0 24 -2.5 39.5t-9.5 25.5
t-20 13.5t-34 3.5q-24 0 -37.5 -3t-18.5 -5l-46 -73h-72l13 94q42 9 83.5 15.5t85.5 6.5q54 0 89 -7t55 -20q54 -35 54 -97v-295zM578 -227q-11 -8 -28.5 -13t-43.5 -5q-22 0 -45 6t-41.5 17t-30 28t-11.5 40q0 39 22 67.5t48 48.5q31 23 70 39h39q-83 -72 -83 -135
q0 -28 16 -43.5t48 -15.5q13 0 22.5 3t16.5 8z" />
    <glyph glyph-name="aringacute" unicode="&#x1fb;" horiz-adv-x="541" 
d="M357 247q-46 -15 -75.5 -30t-39.5 -29q-14 -20 -14 -60q0 -83 43 -83q24 0 48 7.5t38 16.5v178zM497 42l60 -27v-15h-200v24q-27 -12 -56 -22.5t-63 -10.5q-67 0 -104 23t-42 63q-3 28 0 54.5t15.5 49t37 40t63.5 26.5q11 3 53 12.5t96 25.5v59q0 24 -2.5 39.5t-9.5 25.5
t-20 13.5t-34 3.5q-24 0 -37.5 -3t-18.5 -5l-46 -73h-72l13 94q42 9 83.5 15.5t85.5 6.5q54 0 89 -7t55 -20q54 -35 54 -97v-295zM319 598q0 33 -9.5 49t-21.5 16q-11 0 -20.5 -16t-9.5 -50q0 -33 10 -48.5t21 -15.5q14 0 22 15.5t8 49.5zM288 681q35 0 60 -25t25 -60
q0 -17 -6.5 -32t-18 -26.5t-27 -18.5t-33.5 -7q-34 0 -59 25t-25 59q0 18 7 33.5t18.5 27t26.5 18t32 6.5zM248 734l127 160h68l44 -52l-210 -143z" />
    <glyph glyph-name="aeacute" unicode="&#x1fd;" horiz-adv-x="753" 
d="M352 247q-90 -29 -110 -59q-14 -20 -14 -60q0 -83 43 -83q24 0 45.5 7.5t35.5 16.5v178zM578 439q-17 0 -29 -8.5t-20 -22t-13 -30t-8 -33.5q-2 -14 -3.5 -50t-1.5 -82l146 66q-4 45 -9 76.5t-7 39.5q-7 20 -17 32t-38 12zM503 180q3 -19 4 -28t3 -14q7 -31 22.5 -55.5
t37 -39.5t47 -18.5t52.5 7.5l19 28.5l19 28.5h71l-14 -52q-16 -13 -39 -22.5t-62 -18.5h1q-74 -15 -136 -0.5t-104 49.5q-13 -8 -36.5 -17.5t-50.5 -17.5t-53.5 -13.5t-45.5 -5.5q-67 0 -104 23t-42 63q-3 28 0 54.5t15.5 49t37 40t63.5 26.5q11 3 50.5 12.5t93.5 25.5v59
q0 24 -1.5 41.5t-7.5 28.5t-18.5 16.5t-33.5 5.5q-24 0 -37.5 -3t-18.5 -5l-46 -83h-72l13 94q42 9 83.5 15.5t85.5 6.5q54 0 86.5 -7t52.5 -20l5 -4q53 34 137 34q55 0 93 -10.5t61 -32t33.5 -54.5t12.5 -77zM413 545l127 160h68l44 -52l-210 -143z" />
    <glyph glyph-name="bracketleft.case" horiz-adv-x="268" 
d="M242 705v-764l86 -37v-21h-213v881h213v-23z" />
    <glyph glyph-name="bracketright.case" horiz-adv-x="268" 
d="M25 743v23h213v-881h-213v21l86 37v764z" />
    <glyph glyph-name="cacute" unicode="&#x107;" horiz-adv-x="492" 
d="M515 38q-15 -13 -37 -22t-46.5 -15t-50.5 -9t-49 -3q-67 0 -115 16.5t-78.5 47.5t-44.5 75t-14 99q0 57 16 98.5t44.5 70t68.5 44.5t87 22q8 1 17 1.5t24 0.5q24 0 44 -1.5t38.5 -4.5t38.5 -7t45 -10l13 -93h-59l-41 78q-7 3 -26 6.5t-48 2.5q-41 -1 -60.5 -14.5
t-35.5 -48.5q-11 -23 -15.5 -62t-3.5 -89q2 -77 16.5 -119.5t48.5 -60.5q12 -8 29.5 -12.5t36 -5.5t35 1t27.5 8l19 28.5l19 28.5h71zM265 546l127 160h68l44 -52l-210 -143z" />
    <glyph glyph-name="cdotaccent" unicode="&#x10b;" horiz-adv-x="492" 
d="M515 38q-15 -13 -37 -22t-46.5 -15t-50.5 -9t-49 -3q-67 0 -115 16.5t-78.5 47.5t-44.5 75t-14 99q0 57 16 98.5t44.5 70t68.5 44.5t87 22q8 1 17 1.5t24 0.5q24 0 44 -1.5t38.5 -4.5t38.5 -7t45 -10l13 -93h-59l-41 78q-7 3 -26 6.5t-48 2.5q-41 -1 -60.5 -14.5
t-35.5 -48.5q-11 -23 -15.5 -62t-3.5 -89q2 -77 16.5 -119.5t48.5 -60.5q12 -8 29.5 -12.5t36 -5.5t35 1t27.5 8l19 28.5l19 28.5h71zM331 646q29 0 49 -19.5t20 -48.5q0 -27 -20 -46.5t-49 -19.5q-28 0 -48 19.5t-20 46.5q0 29 20 48.5t48 19.5z" />
    <glyph glyph-name="ccaron" unicode="&#x10d;" horiz-adv-x="492" 
d="M515 38q-15 -13 -37 -22t-46.5 -15t-50.5 -9t-49 -3q-67 0 -115 16.5t-78.5 47.5t-44.5 75t-14 99q0 57 16 98.5t44.5 70t68.5 44.5t87 22q8 1 17 1.5t24 0.5q24 0 44 -1.5t38.5 -4.5t38.5 -7t45 -10l13 -93h-59l-41 78q-7 3 -26 6.5t-48 2.5q-41 -1 -60.5 -14.5
t-35.5 -48.5q-11 -23 -15.5 -62t-3.5 -89q2 -77 16.5 -119.5t48.5 -60.5q12 -8 29.5 -12.5t36 -5.5t35 1t27.5 8l19 28.5l19 28.5h71zM488 683l-112 -171h-94l-114 171l41 23l120 -113l121 111z" />
    <glyph glyph-name="emacron" unicode="&#x113;" horiz-adv-x="471" 
d="M295 435q-17 0 -29 -8.5t-20 -22t-13 -30t-8 -33.5q-2 -14 -3.5 -47t-1.5 -79l146 64q-4 45 -9 74.5t-7 37.5q-7 20 -17 32t-38 12zM221 175q3 -19 3.5 -25.5t2.5 -11.5q7 -31 25.5 -56t49.5 -38.5t74.5 -12t99.5 23.5l11 -18q-19 -11 -43.5 -22t-63.5 -19
q-54 -12 -102.5 -6.5t-87.5 24t-66 48t-39 66.5q-5 14 -8 32t-4 41l-1 26q-2 60 12 104.5t43.5 74t72 44t97.5 14.5t93 -12t61.5 -35t34 -57t12.5 -78zM135 547v60h318v-60h-318z" />
    <glyph glyph-name="ebreve" unicode="&#x115;" horiz-adv-x="471" 
d="M295 435q-17 0 -29 -8.5t-20 -22t-13 -30t-8 -33.5q-2 -14 -3.5 -47t-1.5 -79l146 64q-4 45 -9 74.5t-7 37.5q-7 20 -17 32t-38 12zM221 175q3 -19 3.5 -25.5t2.5 -11.5q7 -31 25.5 -56t49.5 -38.5t74.5 -12t99.5 23.5l11 -18q-19 -11 -43.5 -22t-63.5 -19
q-54 -12 -102.5 -6.5t-87.5 24t-66 48t-39 66.5q-5 14 -8 32t-4 41l-1 26q-2 60 12 104.5t43.5 74t72 44t97.5 14.5t93 -12t61.5 -35t34 -57t12.5 -78zM301 511q-43 0 -86.5 27.5t-86.5 77.5l32 26l13 -8q22 -14 39 -23t31.5 -14.5t28 -8t28.5 -2.5q32 0 65 13t78 43l31 -25
q-40 -48 -85 -77t-88 -29z" />
    <glyph glyph-name="edotaccent" unicode="&#x117;" horiz-adv-x="471" 
d="M295 435q-17 0 -29 -8.5t-20 -22t-13 -30t-8 -33.5q-2 -14 -3.5 -47t-1.5 -79l146 64q-4 45 -9 74.5t-7 37.5q-7 20 -17 32t-38 12zM221 175q3 -19 3.5 -25.5t2.5 -11.5q7 -31 25.5 -56t49.5 -38.5t74.5 -12t99.5 23.5l11 -18q-19 -11 -43.5 -22t-63.5 -19
q-54 -12 -102.5 -6.5t-87.5 24t-66 48t-39 66.5q-5 14 -8 32t-4 41l-1 26q-2 60 12 104.5t43.5 74t72 44t97.5 14.5t93 -12t61.5 -35t34 -57t12.5 -78zM294 646q29 0 49 -19.5t20 -48.5q0 -27 -20 -46.5t-49 -19.5q-28 0 -48 19.5t-20 46.5q0 29 20 48.5t48 19.5z" />
    <glyph glyph-name="eogonek" unicode="&#x119;" horiz-adv-x="471" 
d="M295 435q-17 0 -29 -8.5t-20 -22t-13 -30t-8 -33.5q-2 -14 -3.5 -47t-1.5 -79l146 64q-4 45 -9 74.5t-7 37.5q-7 20 -17 32t-38 12zM221 175q3 -19 3.5 -25.5t2.5 -11.5q7 -31 25.5 -56t49.5 -38.5t74.5 -12t99.5 23.5l11 -18q-19 -11 -43.5 -22t-63.5 -19
q-54 -12 -102.5 -6.5t-87.5 24t-66 48t-39 66.5q-5 14 -8 32t-4 41l-1 26q-2 60 12 104.5t43.5 74t72 44t97.5 14.5t93 -12t61.5 -35t34 -57t12.5 -78zM508 -191q-11 -8 -28.5 -13t-43.5 -5q-22 0 -45 6t-41.5 17t-30 28t-11.5 40q0 39 22 67.5t48 48.5q31 23 70 39h39
q-83 -72 -83 -135q0 -28 16 -43.5t48 -15.5q13 0 22.5 3t16.5 8z" />
    <glyph glyph-name="ecaron" unicode="&#x11b;" horiz-adv-x="471" 
d="M295 435q-17 0 -29 -8.5t-20 -22t-13 -30t-8 -33.5q-2 -14 -3.5 -47t-1.5 -79l146 64q-4 45 -9 74.5t-7 37.5q-7 20 -17 32t-38 12zM221 175q3 -19 3.5 -25.5t2.5 -11.5q7 -31 25.5 -56t49.5 -38.5t74.5 -12t99.5 23.5l11 -18q-19 -11 -43.5 -22t-63.5 -19
q-54 -12 -102.5 -6.5t-87.5 24t-66 48t-39 66.5q-5 14 -8 32t-4 41l-1 26q-2 60 12 104.5t43.5 74t72 44t97.5 14.5t93 -12t61.5 -35t34 -57t12.5 -78zM442 683l-112 -171h-94l-114 171l41 23l120 -113l121 111z" />
    <glyph glyph-name="omacron" unicode="&#x14d;" horiz-adv-x="543" 
d="M568 225q0 -117 -59 -179t-186 -62q-118 0 -178.5 61.5t-60.5 179.5q0 117 60 178.5t183 61.5q241 0 241 -240zM430 231q0 54 -8.5 92.5t-23.5 63t-35 36.5t-42 12q-20 0 -38 -12t-32 -37.5t-22.5 -65.5t-8.5 -95q0 -53 9 -93t24 -66.5t34.5 -40t40.5 -13.5
q43 0 72.5 54.5t29.5 164.5zM166 547v60h318v-60h-318z" />
    <glyph glyph-name="obreve" unicode="&#x14f;" horiz-adv-x="543" 
d="M568 225q0 -117 -59 -179t-186 -62q-118 0 -178.5 61.5t-60.5 179.5q0 117 60 178.5t183 61.5q241 0 241 -240zM430 231q0 54 -8.5 92.5t-23.5 63t-35 36.5t-42 12q-20 0 -38 -12t-32 -37.5t-22.5 -65.5t-8.5 -95q0 -53 9 -93t24 -66.5t34.5 -40t40.5 -13.5
q43 0 72.5 54.5t29.5 164.5zM327 511q-43 0 -86.5 27.5t-86.5 77.5l32 26l13 -8q22 -14 39 -23t31.5 -14.5t28 -8t28.5 -2.5q32 0 65 13t78 43l31 -25q-40 -48 -85 -77t-88 -29z" />
    <glyph glyph-name="ohungarumlaut" unicode="&#x151;" horiz-adv-x="543" 
d="M568 225q0 -117 -59 -179t-186 -62q-118 0 -178.5 61.5t-60.5 179.5q0 117 60 178.5t183 61.5q241 0 241 -240zM430 231q0 54 -8.5 92.5t-23.5 63t-35 36.5t-42 12q-20 0 -38 -12t-32 -37.5t-22.5 -65.5t-8.5 -95q0 -53 9 -93t24 -66.5t34.5 -40t40.5 -13.5
q43 0 72.5 54.5t29.5 164.5zM389 546l96 121h62l37 -43l-165 -114zM209 546l96 121h62l37 -43l-165 -114z" />
    <glyph glyph-name="oslashacute" unicode="&#x1ff;" horiz-adv-x="533" 
d="M201 544l127 160h68l44 -52l-210 -143zM429 231q0 17 -1 33.5t-3 30.5l-163 -248q28 -40 65 -40q43 0 72.5 57t29.5 167zM219 225q0 -20 1.5 -38t3.5 -35l164 250q-29 39 -68 39q-40 0 -70.5 -53t-30.5 -163zM110 -22l40 61q-67 62 -67 186q0 117 60 178.5t183 61.5
q27 0 50.5 -3.5t44.5 -9.5l14 21h107l-42 -63q67 -61 67 -185q0 -117 -59 -179t-186 -62q-55 0 -94 13l-12 -19h-106z" />
    <glyph glyph-name="dcaron" unicode="&#x10f;" horiz-adv-x="621" 
d="M654 700q45 0 68.5 -24.5t21.5 -55.5q-1 -19 -12.5 -40.5t-31 -41.5t-46 -38.5t-56.5 -31.5l-12 23q27 17 40.5 44t14.5 59q-32 4 -53 17.5t-19 38.5q2 23 25 36.5t58 13.5h2zM209 226q0 -38 2.5 -71.5t11.5 -59t26 -40t46 -14.5q15 0 31 2t34 6l1 371q-32 8 -64 6
q-45 -2 -66.5 -52.5t-21.5 -147.5zM542 15v-15h-182v16q-14 -8 -37 -13.5t-52 -5.5q-53 0 -91 13.5t-62.5 42.5t-36.5 76t-12 113q0 51 13 92.5t40 70.5t68.5 44.5t98.5 15.5q46 0 74 -7v145l-54 28v13l189 57v-660z" />
    <glyph glyph-name="dcroat" unicode="&#x111;" horiz-adv-x="529" 
d="M209 226q0 -38 2.5 -71.5t11.5 -59t26 -40t46 -14.5q15 0 31 2t34 6l1 371q-32 8 -64 6q-45 -2 -66.5 -52.5t-21.5 -147.5zM542 15v-15h-182v16q-14 -8 -37 -13.5t-52 -5.5q-53 0 -91 13.5t-62.5 42.5t-36.5 76t-12 113q0 51 13 92.5t40 70.5t68.5 44.5t98.5 15.5
q46 0 74 -7v145l-54 28v13l189 57v-660zM241 508v60h318v-60h-318z" />
    <glyph glyph-name="gbreve" unicode="&#x11f;" horiz-adv-x="512" 
d="M378 323q0 62 -22.5 90.5t-54.5 28.5q-28 0 -50 -29.5t-22 -92.5q0 -60 15 -96t62 -36q23 0 37.5 11.5t22 30.5t10 43t2.5 50zM413 -62q0 13 -5 23.5t-22.5 19.5t-52 18t-93.5 18l-14.5 -19.5t-12.5 -21.5q-5 -10 -10.5 -28t-5.5 -37q0 -29 16 -47t40 -25.5t52 -5t52 15
t40 35t16 54.5zM301 158h-9.5t-7.5 0.5t-9 1t-14 1.5q-6 -7 -14.5 -21.5t-19.5 -41.5l153 -25h-1q176 -26 170 -121q-2 -32 -23.5 -60.5t-63.5 -51.5q-31 -17 -71.5 -26.5t-83.5 -11t-84.5 5t-74 21t-52.5 37t-20 53.5q0 26 26.5 52t64.5 58q-5 4 -12.5 9.5t-14 13t-11 16.5
t-4.5 18q0 17 18.5 38t58.5 49q-110 42 -110 140q1 78 57 117t157 39q25 0 47 -3t36 -6l110 53l22 -23l-46 -70q19 -22 29.5 -50t10.5 -57q0 -76 -55 -115.5t-158 -39.5h-1zM309 511q-43 0 -86.5 27.5t-86.5 77.5l32 26l13 -8q22 -14 39 -23t31.5 -14.5t28 -8t28.5 -2.5
q32 0 65 13t78 43l31 -25q-40 -48 -85 -77t-88 -29z" />
    <glyph glyph-name="gdotaccent" unicode="&#x121;" horiz-adv-x="512" 
d="M378 323q0 62 -22.5 90.5t-54.5 28.5q-28 0 -50 -29.5t-22 -92.5q0 -60 15 -96t62 -36q23 0 37.5 11.5t22 30.5t10 43t2.5 50zM413 -62q0 13 -5 23.5t-22.5 19.5t-52 18t-93.5 18l-14.5 -19.5t-12.5 -21.5q-5 -10 -10.5 -28t-5.5 -37q0 -29 16 -47t40 -25.5t52 -5t52 15
t40 35t16 54.5zM301 158h-9.5t-7.5 0.5t-9 1t-14 1.5q-6 -7 -14.5 -21.5t-19.5 -41.5l153 -25h-1q176 -26 170 -121q-2 -32 -23.5 -60.5t-63.5 -51.5q-31 -17 -71.5 -26.5t-83.5 -11t-84.5 5t-74 21t-52.5 37t-20 53.5q0 26 26.5 52t64.5 58q-5 4 -12.5 9.5t-14 13t-11 16.5
t-4.5 18q0 17 18.5 38t58.5 49q-110 42 -110 140q1 78 57 117t157 39q25 0 47 -3t36 -6l110 53l22 -23l-46 -70q19 -22 29.5 -50t10.5 -57q0 -76 -55 -115.5t-158 -39.5h-1zM303 647q29 0 49 -19.5t20 -48.5q0 -27 -20 -46.5t-49 -19.5q-28 0 -48 19.5t-20 46.5
q0 29 20 48.5t48 19.5z" />
    <glyph glyph-name="gcommaaccent" unicode="&#x123;" horiz-adv-x="512" 
d="M378 323q0 62 -22.5 90.5t-54.5 28.5q-28 0 -50 -29.5t-22 -92.5q0 -60 15 -96t62 -36q23 0 37.5 11.5t22 30.5t10 43t2.5 50zM413 -62q0 13 -5 23.5t-22.5 19.5t-52 18t-93.5 18l-14.5 -19.5t-12.5 -21.5q-5 -10 -10.5 -28t-5.5 -37q0 -29 16 -47t40 -25.5t52 -5t52 15
t40 35t16 54.5zM301 158h-9.5t-7.5 0.5t-9 1t-14 1.5q-6 -7 -14.5 -21.5t-19.5 -41.5l153 -25h-1q176 -26 170 -121q-2 -32 -23.5 -60.5t-63.5 -51.5q-31 -17 -71.5 -26.5t-83.5 -11t-84.5 5t-74 21t-52.5 37t-20 53.5q0 26 26.5 52t64.5 58q-5 4 -12.5 9.5t-14 13t-11 16.5
t-4.5 18q0 17 18.5 38t58.5 49q-110 42 -110 140q1 78 57 117t157 39q25 0 47 -3t36 -6l110 53l22 -23l-46 -70q19 -22 29.5 -50t10.5 -57q0 -76 -55 -115.5t-158 -39.5h-1zM303 510q-45 0 -68.5 24.5t-21.5 55.5q1 19 12.5 40.5t31 41.5t46 38.5t56.5 31.5l12 -23
q-27 -18 -40.5 -45t-14.5 -58q31 -4 52.5 -18t19.5 -38q-2 -23 -25 -36.5t-58 -13.5h-2z" />
    <glyph glyph-name="aacute.alt" horiz-adv-x="450" 
 />
    <glyph glyph-name="a.alt" horiz-adv-x="505" 
d="M352 247q-90 -29 -110 -59q-14 -20 -14 -60q0 -83 43 -83q24 0 45.5 7.5t35.5 16.5v178zM492 42l60 -27v-15h-200v24q-27 -12 -53.5 -22.5t-60.5 -10.5q-67 0 -104 23t-42 63q-3 28 0 54.5t15.5 49t37 40t63.5 26.5q11 3 50.5 12.5t93.5 25.5v59q0 24 -1.5 41.5
t-7.5 28.5t-18.5 16.5t-33.5 5.5q-24 0 -37.5 -3t-18.5 -5l-46 -83h-72l13 94q42 9 83.5 15.5t85.5 6.5q54 0 86.5 -7t52.5 -20q54 -35 54 -97v-295z" />
    <glyph glyph-name="acircumflex.alt" horiz-adv-x="450" 
 />
    <glyph glyph-name="adieresis.alt" horiz-adv-x="450" 
 />
    <glyph glyph-name="agrave.alt" horiz-adv-x="450" 
 />
    <glyph glyph-name="amacron.alt" horiz-adv-x="450" 
 />
    <glyph glyph-name="abreve.alt" horiz-adv-x="450" 
 />
    <glyph glyph-name="aogonek.alt" horiz-adv-x="450" 
 />
    <glyph glyph-name="atilde.alt" horiz-adv-x="450" 
 />
    <glyph glyph-name="aring.alt" horiz-adv-x="450" 
 />
    <glyph glyph-name="hbar" unicode="&#x127;" horiz-adv-x="621" 
d="M618 15v-15h-228v15l46 27v293q0 40 -16 56t-40 17.5t-52.5 -7l-53.5 -15.5l1 -344l45 -27v-15h-228v15l46 27v69v58t0.5 62.5t0.5 82.5v118.5v170.5l-54 28v13l189 57v-281q1 1 16.5 8t38 15t48.5 15t49 7q30 0 56.5 -8t47 -24t32 -41.5t11.5 -59.5v-290zM96 504v60h318
v-60h-318z" />
    <glyph glyph-name="nacute" unicode="&#x144;" horiz-adv-x="625" 
d="M621 15v-15h-228v15l46 27v293q0 40 -16 56t-40 17.5t-52.5 -7l-53.5 -15.5l1 -344l45 -27v-15h-228v15l46 27v76v49.5t0.5 36.5t0.5 36.5v49.5v76l-54 28v13l189 57v-44q1 1 16.5 8t38 15t48.5 15t49 7q30 0 56.5 -8t47 -24t32 -41.5t11.5 -59.5v-290zM266 545l127 160
h68l44 -52l-210 -143z" />
    <glyph glyph-name="ncommaaccent" unicode="&#x146;" horiz-adv-x="625" 
d="M621 15v-15h-228v15l46 27v293q0 40 -16 56t-40 17.5t-52.5 -7l-53.5 -15.5l1 -344l45 -27v-15h-228v15l46 27v76v49.5t0.5 36.5t0.5 36.5v49.5v76l-54 28v13l189 57v-44q1 1 16.5 8t38 15t48.5 15t49 7q30 0 56.5 -8t47 -24t32 -41.5t11.5 -59.5v-290zM271 -239l55 192
l116 -57l-119 -164z" />
    <glyph glyph-name="ncaron" unicode="&#x148;" horiz-adv-x="625" 
d="M621 15v-15h-228v15l46 27v293q0 40 -16 56t-40 17.5t-52.5 -7l-53.5 -15.5l1 -344l45 -27v-15h-228v15l46 27v76v49.5t0.5 36.5t0.5 36.5v49.5v76l-54 28v13l189 57v-44q1 1 16.5 8t38 15t48.5 15t49 7q30 0 56.5 -8t47 -24t32 -41.5t11.5 -59.5v-290zM512 684
l-112 -171h-94l-114 171l41 23l120 -113l121 111z" />
    <glyph glyph-name="kcommaaccent" unicode="&#x137;" horiz-adv-x="627" 
d="M270 260l174 157l-56 20v16h174v-16l-55 -21l-65.5 -58l-62.5 -58l99.5 -129.5l99.5 -129.5l42 -26v-16h-145l-176 224l-29 -29l1 -152l45 -27v-15h-228v15l46 27q0 142 0.5 280.5t0.5 280.5l-54 28v13l189 57v-441zM287 -239l55 192l116 -57l-119 -164z" />
    <glyph glyph-name="racute" unicode="&#x155;" horiz-adv-x="445" 
d="M265 433q18 6 42.5 11.5t50.5 9t50.5 6t42.5 2.5l18 -116h-71l-39 65h-1q-5 0 -16.5 -0.5t-25 -2t-27.5 -3.5t-24 -5l1 -359l79 -27v-15h-262v15l46 27v77v51.5t0.5 38.5t0.5 38.5v51.5v77l-54 28v13l189 57v-40zM172 545l127 160h68l44 -52l-210 -143z" />
    <glyph glyph-name="rcommaaccent" unicode="&#x157;" horiz-adv-x="445" 
d="M265 433q18 6 42.5 11.5t50.5 9t50.5 6t42.5 2.5l18 -116h-71l-39 65h-1q-5 0 -16.5 -0.5t-25 -2t-27.5 -3.5t-24 -5l1 -359l79 -27v-15h-262v15l46 27v77v51.5t0.5 38.5t0.5 38.5v51.5v77l-54 28v13l189 57v-40zM92 -239l55 192l116 -57l-119 -164z" />
    <glyph glyph-name="rcaron" unicode="&#x159;" horiz-adv-x="445" 
d="M265 433q18 6 42.5 11.5t50.5 9t50.5 6t42.5 2.5l18 -116h-71l-39 65h-1q-5 0 -16.5 -0.5t-25 -2t-27.5 -3.5t-24 -5l1 -359l79 -27v-15h-262v15l46 27v77v51.5t0.5 38.5t0.5 38.5v51.5v77l-54 28v13l189 57v-40zM435 684l-112 -171h-94l-114 171l41 23l120 -113l121 111
z" />
    <glyph glyph-name="parenleft.case" horiz-adv-x="312" 
d="M351 -143q-44 34 -86.5 81.5t-75.5 107t-53.5 130t-20.5 150.5q0 78 20.5 144t53.5 120.5t75.5 97.5t86.5 76l11 -12q-26 -31 -48 -74t-38.5 -97t-26 -118.5t-9.5 -136.5q0 -74 9.5 -142.5t26 -127.5t38.5 -107t48 -80z" />
    <glyph glyph-name="parenright.case" horiz-adv-x="312" 
d="M25 -131q25 32 47.5 80t39 107t26 127.5t9.5 142.5q0 72 -9.5 136.5t-26 118.5t-39 97t-47.5 74l11 12q44 -33 86.5 -76t75.5 -97.5t53.5 -120.5t20.5 -144q0 -80 -20.5 -150.5t-53.5 -130t-75.5 -107t-86.5 -81.5z" />
    <glyph glyph-name="sacute" unicode="&#x15b;" horiz-adv-x="461" 
d="M497 130q0 -36 -20.5 -63t-52 -45t-69.5 -27t-73 -9q-49 0 -94.5 13t-87.5 35l-8 79h72l41 -74q24 -15 52.5 -19t54 2t42.5 21t17 38q0 25 -7 40.5t-19.5 25t-29.5 15.5t-37 11q-86 22 -133 60t-47 104q0 34 20 59t51 41t68 23.5t70 7.5q87 0 164 -37l10 -80h-71l-43 72
q-20 10 -45 14.5t-47 -1.5t-37 -24t-15 -52t25.5 -55t75.5 -38l63 -22.5t55.5 -27t39.5 -36.5t15 -51zM180 544l127 160h68l44 -52l-210 -143z" />
    <glyph glyph-name="scedilla" unicode="&#x15f;" horiz-adv-x="461" 
d="M497 130q0 -36 -20.5 -63t-52 -45t-69.5 -27t-73 -9q-49 0 -94.5 13t-87.5 35l-8 79h72l41 -74q24 -15 52.5 -19t54 2t42.5 21t17 38q0 25 -7 40.5t-19.5 25t-29.5 15.5t-37 11q-86 22 -133 60t-47 104q0 34 20 59t51 41t68 23.5t70 7.5q87 0 164 -37l10 -80h-71l-43 72
q-20 10 -45 14.5t-47 -1.5t-37 -24t-15 -52t25.5 -55t75.5 -38l63 -22.5t55.5 -27t39.5 -36.5t15 -51zM308 -39q24 -4 46 -10t37.5 -15t23 -23t2.5 -33q-7 -28 -39.5 -42.5t-78.5 -13.5q-66 2 -103 29l16 24q11 -5 27.5 -11t36.5 -6t31 5.5t11 18.5q0 21 -19.5 29.5
t-53.5 19.5l47 68h44z" />
    <glyph glyph-name="scommaaccent" unicode="&#x219;" horiz-adv-x="461" 
d="M497 130q0 -36 -20.5 -63t-52 -45t-69.5 -27t-73 -9q-49 0 -94.5 13t-87.5 35l-8 79h72l41 -74q24 -15 52.5 -19t54 2t42.5 21t17 38q0 25 -7 40.5t-19.5 25t-29.5 15.5t-37 11q-86 22 -133 60t-47 104q0 34 20 59t51 41t68 23.5t70 7.5q87 0 164 -37l10 -80h-71l-43 72
q-20 10 -45 14.5t-47 -1.5t-37 -24t-15 -52t25.5 -55t75.5 -38l63 -22.5t55.5 -27t39.5 -36.5t15 -51zM185 -239l55 192l116 -57l-119 -164z" />
    <glyph glyph-name="tcommaaccent" unicode="&#x163;" horiz-adv-x="336" 
d="M265 103q0 -27 6.5 -41t23.5 -19l84 -28v-15h-112q-19 0 -38 4.5t-36 12.5t-30 19t-19 24q-7 15 -9 42t-2 68v237h-57l58 46l47 104h68l15 -104h117l-49 -46h-67v-304v0zM114 -239l55 192l116 -57l-119 -164z" />
    <glyph glyph-name="tcaron" unicode="&#x165;" horiz-adv-x="344" 
d="M377 731q45 0 68.5 -24.5t21.5 -55.5q-1 -19 -12.5 -40.5t-31 -41.5t-46 -38.5t-56.5 -31.5l-12 23q27 17 40.5 44t14.5 59q-32 4 -53 17.5t-19 38.5q2 23 25 36.5t58 13.5h2zM265 103q0 -27 6.5 -41t23.5 -19l84 -28v-15h-112q-19 0 -38 4.5t-36 12.5t-30 19t-19 24
q-7 15 -9 42t-2 68v237h-57l58 46l47 104h68l15 -104h117l-49 -46h-67v-304v0z" />
    <glyph glyph-name="umacron" unicode="&#x16b;" 
d="M259 129q0 -40 14.5 -56t36.5 -17.5t48.5 6.5l51.5 16l-1 298l-54 28v13l191 57l-1 -431l54 -28v-15h-189v44q-2 -1 -17.5 -8t-37.5 -15.5t-45.5 -15t-40.5 -6.5q-30 0 -56.5 8t-47 24t-32 41t-11.5 60v244l-54 28v13l191 57v-345zM183 547v60h318v-60h-318z" />
    <glyph glyph-name="ubreve" unicode="&#x16d;" 
d="M259 129q0 -40 14.5 -56t36.5 -17.5t48.5 6.5l51.5 16l-1 298l-54 28v13l191 57l-1 -431l54 -28v-15h-189v44q-2 -1 -17.5 -8t-37.5 -15.5t-45.5 -15t-40.5 -6.5q-30 0 -56.5 8t-47 24t-32 41t-11.5 60v244l-54 28v13l191 57v-345zM342 512q-43 0 -86.5 27.5t-86.5 77.5
l32 26l13 -8q22 -14 39 -23t31.5 -14.5t28 -8t28.5 -2.5q32 0 65 13t78 43l31 -25q-40 -48 -85 -77t-88 -29z" />
    <glyph glyph-name="uring" unicode="&#x16f;" 
d="M259 129q0 -40 14.5 -56t36.5 -17.5t48.5 6.5l51.5 16l-1 298l-54 28v13l191 57l-1 -431l54 -28v-15h-189v44q-2 -1 -17.5 -8t-37.5 -15.5t-45.5 -15t-40.5 -6.5q-30 0 -56.5 8t-47 24t-32 41t-11.5 60v244l-54 28v13l191 57v-345zM354 597q0 33 -9.5 49t-21.5 16
q-11 0 -20.5 -16t-9.5 -50q0 -33 10 -48.5t21 -15.5q14 0 22 15.5t8 49.5zM323 680q35 0 60 -25t25 -60q0 -17 -6.5 -32t-18 -26.5t-27 -18.5t-33.5 -7q-34 0 -59 25t-25 59q0 18 7 33.5t18.5 27t26.5 18t32 6.5z" />
    <glyph glyph-name="uhungarumlaut" unicode="&#x171;" 
d="M259 129q0 -40 14.5 -56t36.5 -17.5t48.5 6.5l51.5 16l-1 298l-54 28v13l191 57l-1 -431l54 -28v-15h-189v44q-2 -1 -17.5 -8t-37.5 -15.5t-45.5 -15t-40.5 -6.5q-30 0 -56.5 8t-47 24t-32 41t-11.5 60v244l-54 28v13l191 57v-345zM412 547l96 121h62l37 -43l-165 -114z
M232 547l96 121h62l37 -43l-165 -114z" />
    <glyph glyph-name="uogonek" unicode="&#x173;" horiz-adv-x="579" 
d="M259 129q0 -40 14.5 -56t36.5 -17.5t48.5 6.5l51.5 16l-1 298l-54 28v13l191 57l-1 -431l54 -28v-15h-189v44q-2 -1 -17.5 -8t-37.5 -15.5t-45.5 -15t-40.5 -6.5q-30 0 -56.5 8t-47 24t-32 41t-11.5 60v244l-54 28v13l191 57v-345zM620 -227q-11 -8 -28.5 -13t-43.5 -5
q-22 0 -45 6t-41.5 17t-30 28t-11.5 40q0 39 22 67.5t48 48.5q31 23 70 39h39q-83 -72 -83 -135q0 -28 16 -43.5t48 -15.5q13 0 22.5 3t16.5 8z" />
    <glyph glyph-name="yacute.alt" horiz-adv-x="500" 
 />
    <glyph glyph-name="y.alt" horiz-adv-x="541" 
d="M368 0q-10 -25 -16.5 -46l-12.5 -39t-13 -33.5t-19 -28.5q-17 -20 -44 -30.5t-57.5 -12.5t-60.5 3.5t-52 19.5l-14 80h73l33 -66q48 0 68.5 39t25.5 114l-193 416l-44 27v15h234v-15l-45 -27l132 -296l124 296l-45 27v15h145v-15l-46 -27z" />
    <glyph glyph-name="ydieresis.alt" horiz-adv-x="486" 
 />
    <glyph glyph-name="ycircumflex.alt" horiz-adv-x="0" 
 />
    <glyph glyph-name="ygrave.alt" horiz-adv-x="0" 
 />
    <glyph glyph-name="wcircumflex" unicode="&#x175;" horiz-adv-x="770" 
d="M670 422l-43 23v14h131v-14l-41 -23l-147 -422h-43l-103 256l-103 -256h-60l-172 422l-45 22v14h214v-14l-38 -22l114 -276l67 164l-59 144h128l113 -279zM286 538l112 171h94l113 -171l-41 -22l-119 112l-121 -111z" />
    <glyph glyph-name="wgrave" unicode="&#x1e81;" horiz-adv-x="770" 
d="M670 422l-43 23v14h131v-14l-41 -23l-147 -422h-43l-103 256l-103 -256h-60l-172 422l-45 22v14h214v-14l-38 -22l114 -276l67 164l-59 144h128l113 -279zM462 509l-212 145l44 52h68l126 -159z" />
    <glyph glyph-name="wacute" unicode="&#x1e83;" horiz-adv-x="770" 
d="M670 422l-43 23v14h131v-14l-41 -23l-147 -422h-43l-103 256l-103 -256h-60l-172 422l-45 22v14h214v-14l-38 -22l114 -276l67 164l-59 144h128l113 -279zM390 544l127 160h68l44 -52l-210 -143z" />
    <glyph glyph-name="wdieresis" unicode="&#x1e85;" horiz-adv-x="770" 
d="M670 422l-43 23v14h131v-14l-41 -23l-147 -422h-43l-103 256l-103 -256h-60l-172 422l-45 22v14h214v-14l-38 -22l114 -276l67 164l-59 144h128l113 -279zM512 618q25 0 40.5 -16t15.5 -38t-15.5 -38t-40.5 -16q-22 0 -38 16t-16 38t16 38t38 16zM370 618q24 0 40 -16
t16 -38t-16 -38t-40 -16q-22 0 -38 16t-16 38t16 38t38 16z" />
    <glyph glyph-name="ycircumflex" unicode="&#x177;" horiz-adv-x="548" 
d="M378 0q-10 -25 -16.5 -46l-12.5 -39t-13 -33.5t-19 -28.5q-17 -20 -44 -30.5t-57.5 -12.5t-60.5 3.5t-52 19.5l-14 80h73l33 -66q48 0 68.5 39t25.5 114l-193 416l-44 27v15h234v-15l-45 -27l134 -302l118 302l-48 27v15h145v-15l-46 -27zM195 537l112 171h94l113 -171
l-41 -22l-119 112l-121 -111z" />
    <glyph glyph-name="ygrave" unicode="&#x1ef3;" horiz-adv-x="548" 
d="M378 0q-10 -25 -16.5 -46l-12.5 -39t-13 -33.5t-19 -28.5q-17 -20 -44 -30.5t-57.5 -12.5t-60.5 3.5t-52 19.5l-14 80h73l33 -66q48 0 68.5 39t25.5 114l-193 416l-44 27v15h234v-15l-45 -27l134 -302l118 302l-48 27v15h145v-15l-46 -27zM391 509l-212 145l44 52h68
l126 -159z" />
    <glyph glyph-name="zacute" unicode="&#x17a;" horiz-adv-x="525" 
d="M387 45l52 65h70l-19 -110h-410v13l267 411h-145l-44 -56h-63l14 91h406v-15l-271 -399h143zM204 544l127 160h68l44 -52l-210 -143z" />
    <glyph glyph-name="zdotaccent" unicode="&#x17c;" horiz-adv-x="525" 
d="M387 45l52 65h70l-19 -110h-410v13l267 411h-145l-44 -56h-63l14 91h406v-15l-271 -399h143zM311 644q29 0 49 -19.5t20 -48.5q0 -27 -20 -46.5t-49 -19.5q-28 0 -48 19.5t-20 46.5q0 29 20 48.5t48 19.5z" />
    <glyph glyph-name="gcircumflex" unicode="&#x11d;" horiz-adv-x="512" 
d="M378 323q0 62 -22.5 90.5t-54.5 28.5q-28 0 -50 -29.5t-22 -92.5q0 -60 15 -96t62 -36q23 0 37.5 11.5t22 30.5t10 43t2.5 50zM413 -62q0 13 -5 23.5t-22.5 19.5t-52 18t-93.5 18l-14.5 -19.5t-12.5 -21.5q-5 -10 -10.5 -28t-5.5 -37q0 -29 16 -47t40 -25.5t52 -5t52 15
t40 35t16 54.5zM301 158h-9.5t-7.5 0.5t-9 1t-14 1.5q-6 -7 -14.5 -21.5t-19.5 -41.5l153 -25h-1q176 -26 170 -121q-2 -32 -23.5 -60.5t-63.5 -51.5q-31 -17 -71.5 -26.5t-83.5 -11t-84.5 5t-74 21t-52.5 37t-20 53.5q0 26 26.5 52t64.5 58q-5 4 -12.5 9.5t-14 13t-11 16.5
t-4.5 18q0 17 18.5 38t58.5 49q-110 42 -110 140q1 78 57 117t157 39q25 0 47 -3t36 -6l110 53l22 -23l-46 -70q19 -22 29.5 -50t10.5 -57q0 -76 -55 -115.5t-158 -39.5h-1zM137 536l112 171h94l113 -171l-41 -22l-119 112l-121 -111z" />
    <glyph glyph-name="g.alt" horiz-adv-x="512" 
d="M378 323q0 62 -22.5 90.5t-54.5 28.5q-28 0 -50 -29.5t-22 -92.5q0 -60 15 -96t62 -36q23 0 37.5 11.5t22 30.5t10 43t2.5 50zM413 -62q0 13 -5 23.5t-22.5 19.5t-52 18t-93.5 18l-14.5 -19.5t-12.5 -21.5q-5 -10 -10.5 -28t-5.5 -37q0 -29 16 -47t40 -25.5t52 -5t52 15
t40 35t16 54.5zM301 158h-9.5t-7.5 0.5t-9 1t-14 1.5q-6 -7 -14.5 -21.5t-19.5 -41.5l153 -25h-1q176 -26 170 -121q-2 -32 -23.5 -60.5t-63.5 -51.5q-31 -17 -71.5 -26.5t-83.5 -11t-84.5 5t-74 21t-52.5 37t-20 53.5q0 26 26.5 52t64.5 58q-5 4 -12.5 9.5t-14 13t-11 16.5
t-4.5 18q0 17 18.5 38t58.5 49q-110 42 -110 140q1 78 57 117t157 39q25 0 47 -3t36 -6l110 53l22 -23l-46 -70q19 -22 29.5 -50t10.5 -57q0 -76 -55 -115.5t-158 -39.5h-1z" />
    <glyph glyph-name="registered.alt" horiz-adv-x="543" 
d="M339 470q0 29 -7 44t-34 15h-33v-112h36q23 0 30.5 13t7.5 40zM306 539q30 0 50 -4t31.5 -12t16.5 -19t5 -26q1 -22 -12 -38.5t-45 -24.5l57 -89l30 -13v-6h-88l-65 103h-21v-83l30 -14v-6h-127v6l28 14v191l-28 15v6h138v0zM297 606q-77 0 -133 -56q-55 -55 -55 -135
t55 -135t133 -55q79 0 134 55t55 135t-55 135q-56 56 -134 56zM298 639q92 0 159 -67t67 -159t-67 -159q-66 -66 -159 -66t-159 66t-66 159t66 159q67 67 159 67z" />
    <glyph glyph-name="gcircumflex.alt" horiz-adv-x="457" 
 />
    <glyph glyph-name="gbreve.alt" horiz-adv-x="457" 
 />
    <glyph glyph-name="gdotaccent.alt" horiz-adv-x="457" 
 />
    <glyph glyph-name="gcommaaccent.alt" horiz-adv-x="457" 
 />
    <glyph glyph-name="aringacute.alt" horiz-adv-x="450" 
 />
    <glyph glyph-name="hyphen.case" horiz-adv-x="400" 
d="M96 291h323v-95h-323v95z" />
    <glyph glyph-name="braceleft.case" horiz-adv-x="363" 
d="M115 348q17 13 28.5 34.5t11.5 47.5v195q0 147 225 147v-22q-26 0 -46 -6.5t-34 -24.5q-18 -24 -18 -80v-156q0 -57 -25.5 -95t-73.5 -57q48 -18 73.5 -56t25.5 -95v-156q0 -56 18 -80q14 -18 34 -24.5t46 -6.5v-22q-225 0 -225 147v195q0 28 -10 50t-30 35v30z" />
    <glyph glyph-name="bar.case" horiz-adv-x="336" 
d="M171 -92v812h110v-812h-110z" />
    <glyph glyph-name="braceright.case" horiz-adv-x="365" 
d="M290 318q-20 -13 -30 -35t-10 -50v-195q0 -147 -225 -147v22q26 0 46 6.5t34 24.5q18 24 18 80v156q0 57 25.5 95t73.5 56q-48 19 -73.5 57t-25.5 95v156q0 56 -18 80q-14 18 -34 24.5t-46 6.5v22q225 0 225 -147v-195q0 -26 11.5 -47.5t28.5 -34.5v-30z" />
    <glyph glyph-name="guillemotleft.case" horiz-adv-x="508" 
d="M234 317l106 -170l-70 -29l-148 199l148 199l70 -29zM382 317l106 -170l-70 -29l-148 199l148 199l70 -29z" />
    <glyph glyph-name="periodcentered.case" horiz-adv-x="152" 
d="M121 398q28 0 47 -18.5t19 -45.5q0 -26 -19 -45t-47 -19q-26 0 -45 19t-19 45q0 27 19 45.5t45 18.5z" />
    <glyph glyph-name="guillemotright.case" horiz-adv-x="508" 
d="M270 487l70 29l148 -199l-148 -199l-70 29l106 170zM122 487l70 29l148 -199l-148 -199l-70 29l106 170z" />
    <glyph glyph-name="endash.case" horiz-adv-x="563" 
d="M59 364h560v-84h-560v84z" />
    <glyph glyph-name="emdash.case" horiz-adv-x="1167" 
d="M59 369h1060v-84h-1060v84z" />
    <glyph glyph-name="bullet.case" horiz-adv-x="483" 
d="M269 455q59 0 100 -41t41 -100t-41 -100t-99 -41q-59 0 -100 41t-41 100q0 60 40 100q41 41 100 41z" />
    <glyph glyph-name="guilsinglleft.case" horiz-adv-x="346" 
d="M194 317l106 -170l-70 -29l-148 199l148 199l70 -29z" />
    <glyph glyph-name="guilsinglright.case" horiz-adv-x="352" 
d="M82 487l70 29l148 -199l-148 -199l-70 29l106 170z" />
    <glyph glyph-name="questiondown.case" horiz-adv-x="459" 
d="M327 511q-28 0 -47 18.5t-19 45.5q0 26 19 45t47 19q26 0 45 -19t19 -45q0 -27 -19 -45.5t-45 -18.5zM273 351l14 119h88l16 -148l-94 -19q-17 -3 -28.5 -11.5t-18 -25t-9.5 -43t-3 -65.5q0 -38 5 -62.5t16 -40t27.5 -23t40.5 -10.5q17 -2 34 -1.5t34 3.5l51 100h73
l-13 -112q-45 -13 -88 -21t-91 -8q-241 0 -241 169q0 70 41 119.5t139 77.5z" />
    <glyph glyph-name="exclamdown.case" horiz-adv-x="331" 
d="M220 520q-28 0 -47 18.5t-19 45.5q0 26 19 45t47 19q26 0 45 -19t19 -45q0 -27 -19 -45.5t-45 -18.5zM175 475h93l33 -490h-159z" />
    </font>
</defs>
</svg>
